<mxfile host="Electron" agent="Mozilla/5.0 (Macintosh; Intel Mac OS X 10_15_7) AppleWebKit/537.36 (KHTML, like Gecko) draw.io/26.2.2 Chrome/134.0.6998.178 Electron/35.1.2 Safari/537.36" version="26.2.2">
  <diagram id="Ht1M8jgEwFfnCIfOTk4-" name="Page-1">
    <mxGraphModel dx="3067" dy="1918" grid="0" gridSize="10" guides="1" tooltips="1" connect="1" arrows="1" fold="1" page="0" pageScale="1" pageWidth="1169" pageHeight="827" background="#ffffff" math="0" shadow="0">
      <root>
        <mxCell id="0" />
        <mxCell id="1" parent="0" />
        <mxCell id="lr77hA5LthJ5V9N4e_WC-1" value="AWS Cloud" style="points=[[0,0],[0.25,0],[0.5,0],[0.75,0],[1,0],[1,0.25],[1,0.5],[1,0.75],[1,1],[0.75,1],[0.5,1],[0.25,1],[0,1],[0,0.75],[0,0.5],[0,0.25]];outlineConnect=0;gradientColor=none;html=1;whiteSpace=wrap;fontSize=12;fontStyle=0;container=1;pointerEvents=0;collapsible=0;recursiveResize=0;shape=mxgraph.aws4.group;grIcon=mxgraph.aws4.group_aws_cloud_alt;strokeColor=#232F3E;fillColor=none;verticalAlign=top;align=left;spacingLeft=30;fontColor=#232F3E;dashed=0;" vertex="1" parent="1">
          <mxGeometry x="-240" y="-77" width="828" height="695" as="geometry" />
        </mxCell>
        <mxCell id="lr77hA5LthJ5V9N4e_WC-11" value="" style="sketch=0;points=[[0,0,0],[0.25,0,0],[0.5,0,0],[0.75,0,0],[1,0,0],[0,1,0],[0.25,1,0],[0.5,1,0],[0.75,1,0],[1,1,0],[0,0.25,0],[0,0.5,0],[0,0.75,0],[1,0.25,0],[1,0.5,0],[1,0.75,0]];outlineConnect=0;fontColor=#232F3E;fillColor=#7AA116;strokeColor=#ffffff;dashed=0;verticalLabelPosition=bottom;verticalAlign=top;align=center;html=1;fontSize=12;fontStyle=0;aspect=fixed;shape=mxgraph.aws4.resourceIcon;resIcon=mxgraph.aws4.s3;" vertex="1" parent="lr77hA5LthJ5V9N4e_WC-1">
          <mxGeometry x="706" y="308.5" width="78" height="78" as="geometry" />
        </mxCell>
        <mxCell id="lr77hA5LthJ5V9N4e_WC-25" value="&lt;font style=&quot;color: rgb(0, 0, 0); font-size: 14px;&quot;&gt;s3&lt;/font&gt;" style="text;html=1;align=center;verticalAlign=middle;resizable=0;points=[];autosize=1;strokeColor=none;fillColor=none;" vertex="1" parent="lr77hA5LthJ5V9N4e_WC-1">
          <mxGeometry x="728.5" y="389" width="33" height="29" as="geometry" />
        </mxCell>
        <mxCell id="lr77hA5LthJ5V9N4e_WC-3" value="Public subnet" style="points=[[0,0],[0.25,0],[0.5,0],[0.75,0],[1,0],[1,0.25],[1,0.5],[1,0.75],[1,1],[0.75,1],[0.5,1],[0.25,1],[0,1],[0,0.75],[0,0.5],[0,0.25]];outlineConnect=0;gradientColor=none;html=1;whiteSpace=wrap;fontSize=12;fontStyle=0;container=1;pointerEvents=0;collapsible=0;recursiveResize=0;shape=mxgraph.aws4.group;grIcon=mxgraph.aws4.group_security_group;grStroke=0;strokeColor=#7AA116;fillColor=#F2F6E8;verticalAlign=top;align=left;spacingLeft=30;fontColor=#248814;dashed=0;" vertex="1" parent="1">
          <mxGeometry x="-167" y="7" width="579" height="571" as="geometry" />
        </mxCell>
        <mxCell id="lr77hA5LthJ5V9N4e_WC-16" style="edgeStyle=orthogonalEdgeStyle;rounded=0;orthogonalLoop=1;jettySize=auto;html=1;strokeColor=#000000;" edge="1" parent="lr77hA5LthJ5V9N4e_WC-3" source="lr77hA5LthJ5V9N4e_WC-9" target="lr77hA5LthJ5V9N4e_WC-6">
          <mxGeometry relative="1" as="geometry" />
        </mxCell>
        <mxCell id="lr77hA5LthJ5V9N4e_WC-9" value="" style="shape=image;verticalLabelPosition=bottom;labelBackgroundColor=default;verticalAlign=top;aspect=fixed;imageAspect=0;image=data:image/png,iVBORw0KGgoAAAANSUhEUgAAAgAAAAIACAYAAAD0eNT6AAAACXBIWXMAAAsTAAALEwEAmpwYAAAgAElEQVR4nO3deZgV1ZnHccxiNrObfd/3TCZmMY6Ta1fde86ladzbEI3EJWJiYozGDImjwTgmYZLMJAyJSQfoU7cbBNoFFAEVFARZRFQ2ZRFkl31tuun9zFPXaFS26u5b91Sd8/08z/s88+SZP6T6rfP+bp1z6/bpAwAAAAAAAAAAAAAAAAAAAAAAAAAAAAAAAAAAAAAAAAAAAAAAAAAAAAAAAAAAAAAAAAAAAAAAAAAAAAAAAAAAAAAAAAAAAAAAAAAAAAAAAJRVRlW+2w/EyLDC/5vLDwCAxU6qOenVXiCv8gK51w+kDstT8oCv5I0ZlXmt6f8+AABQYl5trr+vxOrnB//LywvkBj8QA7nwAABYIFvIfsYL5NQjDf5Dg4CYkVO5L5n+7wYAAD3gF/y3e4EY5inREXX4vygEdPqBqPNGeO/i4gMAkNJ9/h6Xko3h+YD8sPxrTP+7AADAEfgFmfUD8WSvB/+hQeBpT+WrufAAACSIUOLTvpJTSj74Dw0CD3pB/oum/70AADhNjBBvC/f5fSXbYx/+LzsfkKvLvdP0vx8AAOf2+f1ADPKV2FGuwX+Y2uMFYjDnAwAAKNc+vxLLDA7+lz0RkKs4HwAAQEwqRspPeYG4x/TAP8rWwPRsbd8v0AAAAJTAqWP6vdVXcqinRKvpIX/MUrLdC2QN5wMAAOihzIzMq8J9fi8Q240P9m4HAbE7PB9Q3VB9PA0AAEA39vk9JZcaH+S9LE+JlX5BVPGHBwDgKPxC30/6gWgwPbhjCALTcnW5z/PHBwAgrfv8vTwfkB+Vfwd/fACA017Y51dym/EBXa6nAYHcxfkAAICzsirv+0osNj2QzZVYkVWyn+m/AwAAZZGtzX7Cxn3+Hj8RUGJaRSA/R/sBAKyUUZm3FPf5A9FieugmsNrC8wGZMVUnmv47AQBQEkOGDHmFH4iBfiC3JmDQpuB8gLwqPBtB+wEAUssLRIUfyEWmB2vaygvkci/I9TX99wMAoFsydeLj7POXIAgoMc0blf8s7QcASLRcXe4NvpI3+oE8aPpTtEXV5gViWLYm+2bTf18AAF6Cff4ybAsouTM8H1DdUP1K2g8AYJyv5GleIJ9IwCdlJ8pT8qlsQUrTf3cAgKNErfiAH4g6X8ku00PRxfKUnFQR5D9mug8AAI5gnz955wPy9fk3me4LAICtdJ/jnvs+v9iSgMFHvfgaKLGD8wEAgJI7rS73dS8Q8xi8yQ4enhKPVwS5b3ILAAB6JVOffz/7/GkMAnKSP8r/KO0PAOiWqpqq1xe/z69Es+lhRvX4aUAr5wMAANHoPsd5Kl/tKbmewWtH+PCUeNYPxCDeHwAAOCy/Nv9VP5BzTA8sKrZrsNCrlf9O+wMAiryg3/vY53frfECuLvcR2h8AHN7n9wIx2Fey0fRQosp8DcKzHUoOPWXk6W803YcAgDLv8/uBWMfgdTt8eIHcHJ4PCH/LgRsQACyWLWS/4gXyYdODh0rWNfCUfDRbyJ9quj8BACWWHZl9rxfIGi8QnaaHDZXQa1D8TQfRUDGy8kPcgACQcic3VL+uuM8fiP3GBwyVimvgBaIpPB+QacicYLp/AQA94NXm+vuBWGt6oFApvQZKbAp/+yE8M8INCAApUBGIkzwlZhsfIJQV18ALxIKKWnGK6b4GABwB+/zmh6Xt5wOyhewHuQEBICGqG6qPD38K1lNin/FBQblwPuDG8GyJ6b4HgD6u7/N7Sj5jejBQjl0DJTZyPgAADPBq5Zd9JR8yPggot6+Bko/4BfkNFgEAiFlmTNWJ4U+8ekp0GF/8Ka7BP88H1Ml6+R4WAAAoMfb5GbZJD1yekgfC8wEZlXktCwAAlGqfP5BrTC/wFNcgUhAI5AbOBwBAL/iF/L96Ssxk8DJ409gDXiDmnVaX+zqLAABE5Bf8t7PPb36AUSUJAZ3h+YCMqnw3CwAAHMFJNSe9uvh9/kDuZfgwgG3qAc4HAMDR3tuvxGrTCzXFNYg5CKwvng8AANdlC9nP+EpOYfAyeJ3qASUfrBgl/sX0/QcAZSdGiLexz5+AQUQZPx/gjfDexRIEwJl9fj+Qexg+DGB6oPg0oDF8f0B+WP41pu9PAIiFX5BZX4llLPoMfnrgcE8E5CpP5atZfgBYQyjxaT8Qk1n0Gfz0QKQeeMAL8l80fd8CQK/3+X0l21n4Gf70QPfPB+Tqcu9kCQKQqn1+PxCDfCV2sOgz+OmBXvXAHi8QgzkfACAV+/yekktZ9Bn89EAJvzGgxErOBwBIJL/Q95OekpNY9Bn89ECsXx2cnq3t+wXT9zsA9Dl1TL+3+koO9ZRoZeFn+NMDZegBJdu9QNbkR+XfwRIEoOwyMzKvCvf5vUBsZ9Fn8NMDBnpAid3h+YDqhurjWQIBlEVW5X0vEEtY9Bn89EASekCs8AuiiuUPQGyytdlP+IFoML/gUVwDeuCQ8wFKTKsI5OdYAgGUTEZl3lLc5w9EC4OHwUMPJLoH2sLzAZkxVSeyBALosSFDhrwi/OlST8ltCVjYKK4BPRCxB7xA7gp/cyM8q8MSCKBbKmpznq/EYoYOQ4ceSG8PeIFcXlGbr2T5A3BMmTrxcfb5zS/cFNegpEFAiWneqPxnWQIBHCLTkDkh/ElS9vkZPIQPa3ugLfxtjvBMD0sggBf2+f1Abk3AAkVxDeiBMp0PqG6ofiVLIOAoLxAVfiAXMXQYOvSAez3gKfmUr0Te9DoEoIyyhewHw58aNb0AUVwDesB8D4S/4VER5D/GIgxYLFeXe0O4z+8H8qDpRYfiGtADyTsfkK3Jvtn0OgUgln1+sSUBCw3FNaAHEtoDnpI7OR8AWOK0utzXvUDMM72wUFwDeiA9PeAp8Xi2kM+YXr8A9ICoFR8o7vMr2WV6MaG4BvRAes8H+KP8j7IIAynAPr/5RZPiGtjUA54SreH5gHx9/k2m1zcAh6P7HOepfLWn5HrTCwbFNaAH7OsBT4ln/UAM4v0BQIJ4gfiap8Rc0wsExTWgB1zoAfFYRZD7pul1D3Bapj7/fvb5TS+GFNfA3fMBubrcR0yvg4BTqmqqXl/8Pr8SzaYXAYprQA+42wPPnw84ZeTpbzS9LgJO7PP7gVhn+sanuAb0AD3wQhAI5ObwfED4zhHTyyRgHb82/1U/kHNYdFl06QF6IME9sDBbyJ9qer0ErOAF/d7HPr/xRY3iGtAD3doakJMySn7Y9PoJpHaf3wvEYF/JRhZfFl96gB5IXQ+EZ5SUHMr5AKD7+/xrjd/AFNeAHqAHeh8ENnE+ADiGbCH7FS+QD7PosujSA/SAbT3gKfnoaSr3bwwC4EWyI7Pv9QJZ4wWi0/RNSnEN6AF6ILYeKP42iWioGFn5IYYAnHZyQ/Xrivv8gdjPosuiSw/QA670gBeIpvB8QKYhc4LpdRgoO682199T8hnTNyLFNaAH6AHD5wMGhmefGEOwnlcrv+wHYhaLLosuPUAP0AMvbA084hfkN0yvz0AsZL18T3GfX4kObnoWfnqAHqAHDn8+IFvIfpAxBCtUN1Qf7wXyKk+JfdzwLPr0AD1AD0Q6H3BjRmVea3r9Bnq3zx/INdzwLPr0AD1AD3T7fMBGzgcgdfxC/l99JR/ihmfRpwfoAXqgtwcF5fysyp9sel0HjiozpurE8Kcx2edn0WfRpwfogZKfD6jLqMp3M4aQKCfVnPRq9vlZ8Fnw6QF6IN4e8JQ8wPkAJGqf31diNTc+iz89QA/QA+XpAS+QG4rnAwATsoXsZ7xATuWGZ9GnB+gBesBMD3iBmJFTuS8xBVEWfsF/O/v8LPgs+PQAPZCMHnjuN1REnTfCexdjEPHu8wdyr+mGp7gG9AA9QA+8rAeUbAzPB+SH5V/DGETJ+AWZ9QPxJDcciy49QA/QAwnvASWf9lS+mhGIXhFKfNpXcorxhqa4BvQAPUAPdDcIPOgF+S8yBtEtYoR4W7jP7yvZzk3HwksP0AP0QLrPB+Tqcu9kDOKY+/x+IAb5Suww3bgU14AeoAfogZL1wB4vEIM5H4Aj7/MrsYwbjkWXHqAH6AE7e8AL5CrOB+AFFSPlp7xA3GO6MSmuAT1AD9AD5QoCYnq2tu8XGIWOOnVMv7f6Sg71lGjlpmPhpQfoAXrAsR5Qst0LZA3nAxySmZF5VbjP7wViu/EGpLgG9AA9QA8YDgJid3g+oLqh+njT8wkx7/N7Si7lhkvWoltZ319fOvFyffXUa/V106/XN828+SX1n9N/qX9238/1j6dcU/z/O2tstfH/ZoprcLQeyBX66u/ccZG+cvJPir0b9nHY22GPhz0c9jw9lKwe8pRY6RdEFUPYMn6h7yf9QDSYbjDquWtw8YTL9PBHbtGz18/RWxu36S7dpburtaNVb2ncop/Yskjf9uQd+tcP/VZ/985LdDbIc53ptbL3wNljq/V/zfyNnrRysn5m91rd1tF21P4Nez7s/dnrHtbD5/9FXzThe/RtQvrWU2Jari73edNzC73EPn9yKvzU/tcFNXr1rjU6TgdaD+i5G+bpP84dpgc0XGD8303Z/Sl/yIO/0nM2zNPtne297t3Vu1brWxb8TZ859lzj/zbnSz13PiA/Kv8OBnFa9/mV3OZ8Ixu+mavHf7v4Cb25vVmXW1dXV/EJwe8e/oOuHH06ixoLe0l6QNb103+Y87960/7NsfRteK+MX3abPnf8AHrWdM8qzgekjhfIUcYbx/EShUr9t0f/bmTwH86+ln16zJKxxUBi+tpQ6b0G4R7+uj3ry9KzTW1NxScC4b1k+t/tenmBHGV6riEi9vvN3iwXTbi0+DgziVraW/TYJeP0GbeeY3xRodJzDcJDe/esnNyj8yq9tWrn03rgnZcYvwZul2hgAKcEAcDcjfLrWUMT86n/aPa37C+eE+DQoOmFNfkVHi5ds/sZo/3a1Nasb5r5a+PXwt0SBIC0IACYuUlGLBxl5BNSbyzdtowT2MYX1+TWFfdcqfe27NNJEN5bNY+OMH5N3CxBAEgLAkD5b5CxS8frtAq3BcJDXeYXGSpp+/1JfJoVnmUxfW3cK0EASAsCQPk/+dtg+poHdL/RZyRgsaFMX4NBd19R/EppUvEkgACAIyAAlO/mCF/Ak7bH/kezcudKvn7leAD5VsP5elfzbp1k4T3HmYBy9oXgCUBaEADKc1OEJ5PDryrZZkvj1uLbCk0PIqr81yBbyOvHn31Cp0G4PRF+44Y+IQDgRQgA8d8Q4XeTk/pVv1LYe3Bv8Z3tLK5uBZHgiTqdJit3ruI9AQQAvBgBIP6FMtyDtN2eg3v0pRMHGR9KVHmuwcA7Li7+xkTa/OWRv9IjsfeHYAsgLQgA8d4M4dv0wu8lu2BX867iYGAI2x9EHtm0QKdRuA3Ha4MJAPgHAkC8N0P4bn+XbN7/rD573HnGBxQV3zX44T0/1mk2bmkD/RHrPSJ4ApAWBIB4f9Uvid+NLscLg/ryG+7WDpnwF/3SLHwix68IEgBAAIh1oQx/4MdV4c8Mhz8Ba3pYUaW9Bt++7cLiL0emHWcBCAAgAMQ6IFbvWqNdNmnlZAawZSGk9vFA2yD8RoDpa2lvCbYA0oItgHhugksmXmZ6jUuEUY+pBCxIVKmuwdo9a7Utwh8uojcIAE4jAMQzHP78yC2m17fEvIXt9/x2gBWDJjw9b9ObLIfNG278mtpZgicAaUEAiOcmmL1+jun1LTHaO9v1L6Zdn4CFierNNbj5od9om8xaN5ueIAC4jQAQz1DYdmCb6fUtcb8ieOXkn7DgpjiEjF92m7bJlsYtxq+pnSV4ApAWBIDS3wCV9f2tOCldauFvxbPvmt6at3G+tkl4j/J1VQKA0wgApb8BvnfX5abXtkS/KOiccd8yPsyo7l+DDXs3aNvw+moCgNMIAKW/Aa6eeq3pdS3xX8GqGn0mQzhlQST8vQfbXDXlGuPX1b4SbAGkBQGg9DfAddNvML2uJV74M7Kyrl8CFisq6jUIz3HYhsOpBACnEQBKfwP8asbNpte1VLhv9f06G+QZwikJITZ9BfB54b1q+rraV4InAGlBACj9DXDTTAJAVGOWjE3AgkVFuQY2Cu9V/v4EAGcRAAgApoUvTWIRTn4IsREBgCcATiMAEACS8HUsHsWaH/AEAPPX2I4SbAGkBQGAAJAErR2t+idTf5qAxYs60jWwEU8ACABOIwAQAJLiQOsBfdld32cIJzSE2IgAQABwGgGAAJAkO5p2Fn9z3vSwowgA9ABbANYjABAAkmbtnnX6zFvPYQFOWBCxEU8AeALgNAIAASCJFm9dwnvaEzD0CQDmr3v6SnAIMC0IAASApJqzYa7OFfomYEGjwmtgI54AEACcRgAgACTZ3SsmMYATEkBsRAAgADiNAEAASLq/LxxpfPhRBAB6QLIFYBsCAAEg6cJ30P/u4T+wAPMEoOR4AsATAKcRAAgAadDe2a4H338dIYAtgJIiABAAnEYAIACkRVNbs/7+pB8SAjgDUDIEAAKA0wgABIA02Xtwrx545yWEAA4BlgQBgADgNAIAASBtNu9/Vp87fgAhgG8B9BoBgADgNAIAASCNVuxYqatGn0kI4GuAvUIAIAA4jQBAAEir+RsXaFGoJATwHoAeIwAQAJxGACAApNm0NQ/obJAnBPAioB4hABAAnEYAIACkXf2iMQQAAkCPEAAIAE4jABAAbDB8/l8IAbwKuNsIAAQApxEACAA26Ozq1ENm3EQI4LcAuoUAQABwGgGAAGCLlo5WfdWUawgB/BhQZAQAAoDTCAAEAJvsa9mnL55wGSGAXwOMhABAAHAaAYAAYJvtTTv0gNu+Qwjg54CPiQBAAHAaAYAAYKO1e9bqM249hxBQwv62EQGAAOA0AgABwFaLtizW+foqQgAB4IgIAAQApxEACAA2m7F2ps4WeFEQTwAOjwBAAHAaAYAAYLu7VkziKQBbAIdFACAAOI0AQABwwV8X1BACOANwCAIAAcBpBAACgAu6dJceOvv3hAAOAb4EAYAA4DQCAAHAFe2d7Xrw/dcRAvgWwAsIAAQApxEACAAuaWpr1pfffQUhgK8BFhEACABOIwAQAFyzq3mXvuD2gYQA3gNAACAAuI0AQABw0ab9m/U5475FCOBFQPRAyddA0WB6riEiAgABwFXLd6zQ/UafwQDgTYD0AAHATQQAAoDL5m2cr0WhkgHAq4DpAZ4AuIcAQABw3eSVU1j8CQD0AAHAPQQAAgC0Dp6oYwDwY0D0AGcA3EIAIADgOf83/88MAH4NkB7gEKA7CAAEADyns6tT//LBXzEA+DlgeoBvAbiBAEAAwD+1dLTqH0+5mgFwmPvCRrwIiBcBOY0AQADAS+1r2acvmnApIYAAQA/wHgC7EQAIADjUlsYtunr8AAYATwDoAV4EZC8CAAEAh/fM7rX6jFvPYQCwBUAPBLwJ0EoEAAIAjuyJLYt0vr6KAcAZAHog4FXA1iEAEABwdA8+M0NnC3nnB4CNOATIIUCnEQAIADi2cUsbCAAWIgAQAJxGACAAIJpbFvzN6RBgIwIAAcBpBAACAKLp0l36t7P+2/ggJgAQAJJdgp8DTgsCAAEA0bV3tuuf3ffzBCyy5S8b8QSAAOA0AgABAN3T1NakB919hfGBTAAgACSzBE8A0oIAQABA9+1s2qnPv/3CBCy25Ssb8QSAAOA0AgABAD2zbs96febYc40PZgIAAcB0b/g8AUgnAgABAD331I7lunL06QlYdHkC0BM8ASAAOI0AQABA78zdME/nCn2ND+i4y0YEAAKA0wgABAD03qSVk40PaAIAASAZJTgEmBYEAAIASmPUYyoBiy9PALqDJwAEAKcRAAgAKN2Lgn4/53+ND+q4ykYEAAKA0wgABICotjftiHUxtuVFQb+Ydr3xYU0AiIYAQABwGgGAABDVpRMH6f2tjT0ejq5oaW/RV07+ifGBzROAYyMAEACcRgAgAEQVDpSrp16rWztaezUgXbC3ZZ/+7p2XGB/abAEcHQGAAOA0AgABIKrnh8kNDwzRnV2dvR6Stnt2/7P63PEDjA/uUpWNCAAEAKcRAAgAUb14GPxp3vBYF2ZbrNy5SleNPtP48CYAHB4BgADgNAIAASCqlw+RcUsbSjYobfb4s09oWdfP+ADnCcChCAAEAKcRAAgAUb18gGSDvL5v9f0lHZa2emDNg8XrZXqIswXwUgQAAoDTCAAEgKgONzzCT7aPbl5Y8oFpozFLxhof4gSAlyIAEACcRgAgAER1pOHRf8yZetXOp0s+MG3050duMT7Ie1o2IgAQAJxGACAARHW04XD2uPP0pn2bYl2sbdDV1aV/NeNm48OcAPAcAgABwGkEAAJAVMcaGhfecZHec3BPbMPTFuF7FH4y9afGBzpPAAgA8fSK4MeA0oIAQACIKsrNf8U9V+qD7QdjHaA2ONB6QF921/eND/XulI14AkAAcBoBgAAQVdRBcd30G3RHV0esC7cNdjTt1N++7ULjg50AYP7a2lWCJwBpQQAgAETVnUXgf+b8MdbhaYu1e9bpM289JwGL9rHLRjwBIAA4jQBAAIiquwOjsKg+1sXbFou3LtF96/sbH/AEAPPX2I4SPAFICwIAASCqniwGE5ffHevwtMWcDXN1rtA3AYv3kctGPAEgADiNAEAAiKonQyMcarPXz4l1EbfF3SsmGR/yBADz1zn9JXgCkBYEAAJAVD1dECrr++tl256MdXja4u8LRyZgAT982YgnAAQApxEACABR9WZ4nDW2Wm/YuyHWxdwGXbpL/+7hPxgf9gQA89c7vSV4ApAWBAACQFS9XRguuP27elfzrlgHqA3aO9v14PuvS8BC/tKyEU8ACABOIwAQAKIqxRD53l2X68bWxlgXdRs0tTXr70/6ofGhTwAwf93TV4InAGlBACAARFWqBeKn9/6Hbutoi3WA2mDvwb164J2XJGBBf65sxBMAAoDTCAAEgKhKOUxufug3xR/GwdFt3v+sPnf8AOPDnwBg/vqnpwRPANKCAEAAMBEAwgpPvOPYVuxYqatGn2l8YbcRTwAIAE4jABAAoopjqNz+5J2xLvC2mL9xgRaFSgJAiREACABOIwAQAEwGgGwhr2eunVXqdd1K09Y8oLNBnicAJUQAIAA4jQBAAIgqrkfLsq6ffuzZx0u5rlurftEYAkAJEQAIAE4jABAAoopzf7n/mLP06l1rSrm2W2v4/L9wBqBECAAEAKcRAAgAUcV9yOy8hvP11sZtpVrbrdXZ1amHzLip7CHARgQAAoDTCAAEgKjKMWQumXiZ3t+yP9ZF3wYtHa36qinXEAB6iQBAAHAaAYAAEFW5Pmn+aPJVuqW9pbdru/X2tezTF0+4jCcAvUAAIAA4jQBAAIiqnI+bb3hgSPFRN45ue9MOPeC277AFQABIUAleBJQWBAACQBIDQFh/nDuM+R/B2j1r9Rm3nhP738NGPAEgADiNAEAAiMrEp4mxS8bFOgBssWjLYp2vryIAdBMBgADgNAIAASDJASB88c29T9/f3XXdSTPWziy+WIknANERAAgATiMAEACSHACef1HQgk2P9mgouuauFZMIAN1AACAAOI0AQABIegAIq3L06fqp7ct7MhOd89cFNbH8DWxEACAAOI0AQABIQwAI6+xx5+lN+zbFOhBs0KW79NDZvycAREAAIAA4jQBAAEhLAAjrwjsu0rubd/dmPjqhvbNdD77/Op4AHAMBgADgNAIAASAq08P/+frBpCt1c3tzb2ek9ZramvXld1/BFsBREAAIAE4jABAAojI9+F9c102/Xnd0dZRiTlptV/MufcHtA0tyzW1EACAAOI0AQACIyvTQf3n9dtZ/F/e7cXSb9m/W54z7FgGAAFCme1PwJsC0IAAQANIaAMJSTxSY/xEs37FC9xt9Bk8AXoYnAAQApxEACABpDgBhTVh+FyEggnkb52tRqOzxdbYRAYAA4DQCAAEgKtOD/kiVK/TVs9c9HOugsMXklVMIAC9CACAAOI0AQACIyvSgP1pV1vfXS7cti2NmWid4oo4nAP9AACAAOI0AQACIyvSQP1adNbZab9i7Ia65aZX/m//nbl9fGxEACABOIwAQAKIyPeCj1ICGC/T2A9tjHRo26Ozq1L988FcEgJk3G+9Z+0rwLYC0IAAQAKIyv7BEq0snXq4bWxtjHaA2aOlo1T+ecnXk62ojAgABwGkEAAJAVKYHe3fqmnt/pts62mIdHjbY17JPXzThUgJAAnrWnhI8AUgLAgABICrzC0v36uaHfqO7unhR0LFsadyiq8cPOOb1tBFPAAgATiMAEACiMj3Qe1I1j46IdYDY4pnda/UZt55DAEhAz6a/BE8A0oIAQACIyvzC0rO6/ck7Yh2etnhiyyKdr6864nW0EU8ACABOIwAQAKIyPch7Wtkgr+9fPT3WQWKLB5+ZobOFPAEgAX2b3hI8AUgLAgABICrzC0vPS9b10ws3Pxbr8LTFuKUNBIAE9Gx6SxAA0oIAQACIyvzC0rvqP+YsvXrX6liHpy1uWfC3Q66fjdgCIAA4jQBAAIjK9AAvRZ3XcL7e2rgt1qFig/BnlsOfWyYAmO/Z9JXgCUBaEAAIAFGZX1hKUxdPuEzvb9kf6wC1QXtnu/7ZfT9/4brZiCcABACnEQAIAFGZHtylrB/dc5VuaW+JdbjYoKmtSQ+6+woCQAJ6Nj0leAKQFgQAAkBU5heW0tb1DwzRHV0dsQ5QG+xs2qnPv/1CbSOeABAAnEYAIABEZXpgx1HD5g2PdcDYYt2e9dpGBAACgNMIAASAqEwP67hqzJKxsQ4ZJBcBgADgNAIAASAq04M6zhcFTV11b6yDBslEACAAOI0AQACIyvSgjvtFQY9sWhDrsEHyEAAIAE4jABAAojI9pOOuytGn6ye3PxXrwEGyEAAIAE4jABAAojI9oMtRZ4+t1hv3bYp16CA5CAAEAKcRAAgAUU1svEEAABZhSURBVJkezuWq79xxkd7dvDvWwYNkIAAQAJxGACAARGV6MJezfjDpSt3c3hzr8IF5BAACgNMIAASAqEwP5XLXtfcNLr4OF/YiABAAnEYAIABEZXogm6jfzPrv4g/jwE4EAAKA0wgABICoTA9jU1X7eBDrEII5BAACgNMIAASAqEwPYpM14amJsQ4imEEAIAA4jQBAAIjK9BA2WdlCXs9aNzvWYYTyIwAQAJxGACAARGV6CJuuyvr+eum2ZbEOJJQXAYAA4DQCAAEgKtMDOAl1+q1n62d2r411KKF8CAAEAKcRAAgAUZkevkmpAQ0X6O0Htsc6mFAeBAACgNMIAASAqEwP3iTVpRMv1/tbG2MdTogfAYAA4DQCAAEgKtNDN2l19dRrdVtHW6wDCvEiABAAnEYAIABEZXrgJrH+a+ZvdFcXLwpKKwIAAcBpBAACQFSmh21Sa9i84bEOKcSHAEAAcBoBgAAQlelBm+RqWHY7czqFCAAEAKcRAAgAUZkeskmubJDX96+eFuuwQukRAAgATiMAEACiMj1kk16yrp9+dPNC5nSKEAAIAE4jABAAojI9YNNQ/cecqZ/etTrWoYXSIQAQAJxGACAARGV6uKalqsd/W29p3MqcTgECAAHAaQQAAkBUpgdrmmrgHRfrvQf3xjq80HsEAAKA0wgABICoTA/VtNUP7/mxPth+kDmdYAQAAoDTCAAEgKhMD9Q01n9O/6Xu6OqIdYih5wgABACnEQAIAFGZHqZprf+Z+ydmdEIRAAgATiMAEACiMj1I01yjF98a6yBDzxAACABOIwAQAKIyPUTT/qKgKavuZU4nDAGAAOA0AgABICrTQzTtlSv01XM2zI11oKF7CAAEAKcRAAgAUZkeoDZU5ejT9ZPbn2JOJwQBgADgNAIAASAq08PTljp7bLXesHdjrIMN0RAACABOIwAQAKIyPThtqgtu/67e1bybOW0YAYAA4DQCAAEgKtND07b6waQf6eb25lgHHI6OAEAAcBoBgAAQlemBaWNde99g3d7Zzpw2hABAAHAaAYAAEJXpYWlr/XrWUN2lu2IddDg8AgABwGkEAAJAVKYHpc018rFaZrQBBAACgNMIAASAqEwPSdvrjqcmxDrscCgCAAHAaQQAAkBUpgek7ZUt5PVD62Yxp8uIAEAAcBoBgAAQlekB6UL1re+vl2xdGuvQwz8RAAgATiMAEACiMj0cXanTbz1br9n9DHO6DAgABACnEQAIAFGZHowu1bcaztfbDmyLdfiBABBP/4oG03MNEREACABRmR6KrtWlEwfp/a2NzOkY8QSAAOA0AgABgACQ3Lp66rW6taOVEEAASFEJngCkBQGAAEAASHbd8MCNurOrkxDAEwDjvegTAOxCACAAEACSX3+aN5wAQAAw3oc+AcAuBAACAAEgHTV+6W2EAM4ApKAEWwBpQQAgABAA0lHZIK/vW30/IYBDgMZ70ScA2IEAQAAgAKSnZF0//ejmhYQAvgWQ4BI8AUgLAgABgACQruo/5kz99K7VhAC+Bmi8F30CQLoRAAgABID01dnjztOb9m8mBPAegASW4AlAWhAACAAEgHTWwDsu1nsO7iEE8CIg473oEwDSiQBAACAApLeuuOdKfbD9ICGANwEmqARPANKCAEAAIACku66bfoPu6OogBPAqYOO96BMA0oUAQAAgAKS//mfOHwkABADjfegTANKFAEAAIADYUYVF9YQAfgzIeB/6bAGkBwGAAEAAsKcmLr+bEMCvARIAEA0BgABAALCncoW+evb6OYQAfg7YYB8KDgGmBQGAAEAAsKsq6/vrZdueJAREcNPMm43/vewrQQBICwJA6W+AX8242brFt0t3JWBhoaJeg7PHVuuN+zaZbpvEC+9V+ooA4CwCQDxfy7JN+F1zFsp0BZALbv+u3tW823TrJNovpl1v/O9kXwmeAKQFAaD0N8DVU6/VtgkHifmFheruNfjeXZfrA60HTLdPYl015Rr6igDgLgJAPIuubdbtWc9CmdIAMvj+63R7Z7vpFkqkSycOMv73sa8ETwDSggAQzyGsrq4ubZM5G+YmYGGhenoNfv3Qb4vnOPBP4T3at74/fUUAcBcBIJ6hsu3ANqvW2nFLG1goUx5ARiwcZbqNEmVL4xbjfxM7S/AEIC0IAPHcBLPXPaxtctPMXydgYaF6ew0mPDXRdCslxkPrZtFTBAC3EQDiGSrDH7lF2yJ8dHzu+AEslhYEkGwhr2eunWW6pRLhT/OGG/972FmCJwBpQQCI5ya4aML3tC1W71qdgEWFKtU1CPe9F29dol038M5L6CsCgNsIAPENlnBw2uDvC0eyUFoWQPqPOUuv3rVGu2rlzpXG/wb2luAJQFoQAOK7Ef66oEbbcFJ6wG3fScCiQpX6GpzXcL51h1Wj+vMjt9BTBAAQAOIbLGeOPVc3tzfrNAt/WIbha2/4uHTi5bqxtVG7pKmtSZ956znGr729JXgCkBYEgHhvhvHLbtNp9oNJVyZgQaHifnNla0erdsWtS8bRUwQAhAgA8Q6X6vEDip840oiX/7gTPMIfxbHt5VWHEz7tOHvcecavt90leAKQFgSA+G+IWxb8TadNS0dr8cdkzC8mVLmugQsvCho+/y/0FAEAzyMAxL+wikKlXrXzaZ0mIx6rZaF0LHxkg3zx5Ti2WrFjpc4V+hq/zvaX4AlAWhAAynNTDLzj4tRsBSzaspiF0uGwOmXVvdo2TW3N+rt8758AgJciAJRvcQ1fp5v0H2TZ0bSTt/45XuGTgLQfXn2x8GzDjTP+y/h1dacETwDSggBQ3psj3INMqvB34wfd/YMELCBUEq7B0Nm/0wfbD+q0C9/HYfpaulWCAJAWBIDy3yDh15CSJtyeuGrKNQlYPKgkXYNLJw7S6/eu12k1evGtxq+heyUIAGlBADBzk/zlkb8m5mtXu5t36+9P+mECFg4qidegsr6/Liyq1+2d7Totwq02XmFNAMAxEADMngkwfTBw5c5VfN0vAUM2DXXZXd/XS7Yu1UkXbmUNmXGT8evlbgmeAKQFAcDszRL+Ilk4hE18Qgp/Gz5fX5WABYNK0zW4bvr1if2hq/CrfhfecZHxa+R2CQJAWhAAkvEb7f87d1jZngaEvwL34ylXG/93U+n+psDP7vu5nrdxfiK+2RJ+6g+31fiev/ne8AkA6UEASE6dO36AHre0ofid5Ths2LtBD539++J3vU3/Wyl7rsFFE75XPGy3pXGLLrcwNI9dMo7X+yaqBE8A0oIAkMxfEQw/zZTi7YFtHW161rrZ+oYHhhSfNJj+t1F2PxW44p4rdeGJev3UjuW6o6tDx2XlzpXFn/TlV/2SWIIAkBYEgGRX+PayYfOGF4d4+AnrWN8cCH/VLdyfnbj87uLLT87gZ0+N/w1drX6jz9A/vfc/dM3CEXryqql68dYles/BPd0e9mHPh70fvqb4T/OGF8/NmP63UfIo14AAkBoEgHTdzH3r+xd/w/0nU3+qfzHt+uKvuIV7sT+65yp9we0D+ZSfgL8RdfRr0H/MWcUhHvZs2MM3zbz5kAr/97DHw/cQcFA1bT0leAKQFl4gr/MC0Wm+aSiuAT1AD9ADae4BLxCd4UwxPdfQDV6t/LIfiFmmm4fiGtAD9AA9kNIeUPIRvyC/wfBNKa82199T8hnjjURxDegBeoAeSEcPKLHRD8TAPrrPcaZnGHrp5Ibq13mBGOwHYr/xxqK4BvQAPUAPJLIHvEA0+UoOzTRkTmDwWiY7MvteL5A1nA8wf6NRXAN6gB5ITA8o2RUe9KsYWfkh03MKMasIxEmeErONNx3FNaAH6AF6wGgPeIFYUFErTmHwOng+wA/EWm5AFmF6gB6gBxzrASU2sc/vOM4HJOBGpLgG9AA9UL5P/Ozz46W8oN/7OB/AIsQgogfoAbv3+TNKfpj5h8Pya/Nf9QL5sPFmpbgG9AA9QA+U5lO/ko9mC/lTGXs4Nt3nOE/lq/1ArOMGZBGmB+gBeiCdPeAFcrMfiEFDhgx5BaMP3VJVU/X64vsDlGw03cgU14AeoAfogYg9oERz+H3+U0ae/kbGHnolU59/vx+Iuuf2kFiEuAb0AD1ADyS1BzwlJ+Xqch9h7KGkvEB8zVNirukGp7gG9AA9QA+8vAfEY16t/HfGHmI/H+ApuZ4bkEWYHqAH6AHTn/jFs+E+f3VD9SsZfSiLXF3uDb6SN/qBPMgCwBCgB+gBeqDsg7/VC8SwfH3+TYw9GMH5ABZ+Fn56gB4o9/CXk/xR/kcZe0iE0+pyX/cCMY+FgGFAD9AD9EBsn/ofrwhy3zS93gOHCL9rGr5b2g/EFhYAhgA9QA/QAyX7xL/TC+RV7PMj8TgfwMLPwk8P0AMl6YG2cJ8/W5N9s+l1HegWUSs+UHx/AIshiyE9QA/QA93e568I8h9j7CDVfCVP8wL5BAsAQ4AeoAfogWMO/qd8JfKm120ghvMBcisLAEOAHqAH6AH2+eGYTEPmhPD9AV4gWlgAGAL0AD1AD7DPD8dk6sTHw9+m5uZnANAD9ICrPeApMc0blf+s6fUYMMILRIWvxGLTNyLFNaAH6IGyDf5ALveCXF/GDpz3/PkAT8ltLMIswvQAPWBrD3iB3BV+nz8zI/Mq5xd+4MUyKvOW8DesOR9gfqGiuAb0QEl7oM0LZE1mTNWJrPrAUWRrs5/gfAADiAFED9iyz18RyM+x6APdkFV53wvEEtM3MMU1oAfoge73gFiRVbIfiz7QQ+FeWfhb15wPYAFmCNMDqegBJXZ7gRhc3VB9PAs/UAKnjun31uL5ACVajd/gFNeAHqAHDhn8sj3c58+Pyr+DRR+IgV/o+8nib2GzALMA0wP0QIL2+XN1uc+z6ANl4Bdk1lNyqekbn+Ia0APu9oCnxEpP5atZ9AFT5wMCsd30QkBxDegBh3qAfX4gGTgfkIAFkeIaOLTPn6vLvdP0ugfgRSpGyk95gbjH+CJBcQ3oAet6wAvE9Gxt3y+w6AIJPx/gK7HM9IJBcQ3ogfT3gBfIVezzAylyUs1Jrw7PB/hK7DC9gFBcA3oglT2wJ/w+f35Y/jWm1zMAPSBGiLd5gRgW7t0lYEGhuAb0QMJ7wAtEpx+IOvb5AUsIJT7tKznF9OJCcQ3ogQT3gJIPVowS/2J6vQIQ1/mAQDxpfKGhuAb0QHJ6QMmn2ecHHDkfEP4mtxfIvcYXHoprQA+YHPyNvpI3ss8POMYv+G8Pzwd4SnSwCDOI6QH39vm9Ed67TK9DAAzKFrKf8QI51fSiRHEN6IGyDP8ZOZX7EosugBd4tbn+vhKrWYQZxPSAfT3gBXKDH4iBLHkADovzAeYXaoprUNLBr+SBcJ8/ozKvZdkDcEycD2AIEURS3gNKdoX7/BlV+W6WPADd5hfy/+or+ZDxxYziGtAD3Rn+87MqfzJLHoCSnA/wArmGRZhBTA8kuAeU2Fjc59d9jmPZA1Ay1Q3VxxffH6DEPuMLHcU1oAde6AEvEE3s8wOInayX7wl/E5z3BzCEGcKJ2OdvyBayH2TpA1A2Xq38sh+IWQwBggA9YGT4P+IX5DdY8gCYPR+g5DMMAYIAPcA+PwDHnNxQ/brwt8P9QOxnCBAE6IHY9vmHZhoyJ5i+3wHgENmR2fcWzwcU3zXOIOQa0AOl2uevGFn5IZYcAImXLWS/4ikxmwHIAKQHevWpf8FpKvdvpu9nAOge3ee48DfG/UCsZQgQBOiB7nzqF5v8QAwaMmTIK1h2AKRWVU3V64vnA8LfHmcQMgjpgaMN/uZwn/+Ukae/0fR9CwAl4wX93he+m/y5PU0GIdeAHnjJ434lJ2WU/DBLDgBr+bX5r/qBnMMAZADSA8UeWJgt5E81fV8CQLnPB6xjCBAEXOwBL5Cb2ecH4CzOB5gfRFSZrwH7/ADwT5n6/Ps5H8AwdmGfP1eX+wj3PgC8jBeIr3lKzDW9UFNcg9L2gHjMq5X/zg0PABHOB3hKrmcQM4jT3AOeEs+G+/zVDdWv5KYHgIhydbk3hL9x7gfyoOmFnOIadHPwt3qBGJavz7+JGx4AekjUig9wPoABnKZ9fn+U/1FueAAokdPqcl/3AjHP9AJPcQ2O8Kn/8Wwhn+GGB4AYhO9G9wMx0A/EFgYxgzgJPeApudML5FXs8wNAGXA+wPzgo2RbuM+frcm+mZseAEydD2AgMZDL+6l/UkWQ/xg3PAAY5it5mh/IRQQBgkDMg/8pX4m86X4HABz2fIDcShAgCLDPDwCOyTRkTgjfH+AFooUgQBDoZQ+wzw8AaZOpEx/3A9FACCAE9Oxxv5jmjcp/1nQfAwB6qKI25/lKLCYIEAQiDf5ALq+ozVdywwGARecDPCW3EQQIAkcY/LvC7/NnZmReZbpfAQAlllGZt/hKDuV8ACHgpfv8siYzpupEbjgAsFy2NvsJzgcQAsJ9/opAfs50PwIAyiyr8r4XiCVsC7gWBsSKrJL9uOEAwGHhnm/4m+1eILabH0xUrNdAid1eIAZXN1Qfb7rvAAAJceqYfm8tng9QopVBbFkQUbI93OfPj8q/w3SfAQASyi/0/WTxN91NDy2qZPv8ubrc5033FQAgJfyCzHpKLmUQpzOMeEqs9FS+2nQfAQBSiPMB6d3nzw/Lv8Z0/wAAUk6MEG8Lf/s93Es2PuCow3/iD0Rn+NPQubrcO033CwDAMhUj5af8QExmCCcuiDzgBfkvmu4PAIAD5wN8JZYlYPA5XV4gV7HPDwAoq5NqTnp1+P4AX4kdpgehg7WHfX4AgFGcDyj/Pr83wnsXbQ8ASAShxKd9Jack4NOxnaXkgxWjxL+Y/jsDAHDk8wGBeNL4wLSllHyafX4AQGrOB4S/Le8Fcq/xAZrS8pQ84Ct5Y0ZlXmv67wkAQLf4Bf/t4fsDPCU6TA/UtBT7/AAAa2QL2c94StxrergmvbxAzMip3JdM/70AACgprzbX31ditelBm7TyArnBD8TAPrrPcbQcAMDu8wFK7DM9eE0X+/wAAOdkxlSd6Oz5ACW7wu/zZ1Tlu03/HQAAMMKrlV/2lXzIoeE/P6vyJ9NuAAD843yAF8g19g5+sZF9fgAADqO6ofp4284HeIFoCr/Pf3JD9ev4owMAcBSyXr7HC2RNqs8HPLfP35AtZD/IHxsAgG6oCMRJfiBmpfBT/4KKWnEKf2wAAHp7PkDJZ5L/qV9sYp8fAIASCvfQvUAM9gOxP6H7/EMzDZkT+KMDABCD7Mjse4vnAwLRmZR9/oqRlR/ijw0AQBlkC9mveIF82NinfiUfPU3l/o0/NgAA5ab7HOepfLUfiLVl3ucfNGTIkFfwBwcAwKCqmqrXF88HKNkY4+BvDvf5Txl5+hv5YwMAkCBe0O994Tv2n9ubL+nj/kkZJT9s+t8HAACOwq/Nf9UP5JwSDP+F2UL+VC42AAApOx/gKbm+25/4A7mZfX4AAFJ+PiB8F39xD/+Yj/pFa/gTxfn6/JtM/3cDAIASyNTn33+08wHhPn+uLvcRLjYAABbyAvE1T4m5/xz+4rGKIPdN0/9dAAAgZuF3+CsCcXFYfJ8fAAAAAAAAAAAAAAAAAAAAAAAAAAAAAAAAAAAAAAAAAAAAAAAAAAAAAAAAAAAAAAAAAAAAAAAAAAAAAAAAAAAAfdLs/wEixlJTRwuNZwAAAABJRU5ErkJggg==;" vertex="1" parent="lr77hA5LthJ5V9N4e_WC-3">
          <mxGeometry x="51.5" y="85" width="107" height="107" as="geometry" />
        </mxCell>
        <mxCell id="lr77hA5LthJ5V9N4e_WC-7" value="" style="shape=image;verticalLabelPosition=bottom;labelBackgroundColor=default;verticalAlign=top;aspect=fixed;imageAspect=0;image=data:image/png,iVBORw0KGgoAAAANSUhEUgAAAfQAAAH0CAYAAADL1t+KAAAABHNCSVQICAgIfAhkiAAAAAlwSFlzAACKaQAAimkBsWWzMgAAABl0RVh0U29mdHdhcmUAd3d3Lmlua3NjYXBlLm9yZ5vuPBoAACAASURBVHic7N13nJxV1cDx35ndbAokoZeEIoTQFlJ2ZjchgBKaoIBIEwUUEUFFaYqgiBQFUUAJIAIiCASFKFgQX3oiJWwyM5sEDC0QuoBISC9b5rx/PBMgpG2597nPM3O+nw8f3hfhnAO7M+cp954LxhhjjDHGGGOMMcYYY4wxxhhjjDHGGGOMMcYYY4wxxhhjjDHGGGOMMcYYY4wxxhhjjDHGGGOMMcYYY4wxxhhjjDHGGGOMMcYYY4wxxhhjjDHGGGOMMcYYY4wxxhhjjDHGGGOMMcYYY4wxxhhjjDHGGGOMMcYYY4wxxhhjjDHGGGOMMcYYY4wxxhhjjDHGGGOMMcYYY4wxxhhjjDHGGGOMMcYYY4wxxhhjjDHGGGOMMcYYY4wxxhhjjDHGGGNMMBK6AGOMqQgztY4O1gFgKb0R+n3wv9WwlHnMYawsDVWeqXzW0I07j2t/+rI9ypbA1sBmKBsgrP/B36OUgHkACCWEt4HXUN4kwxv05jXqZWGI8o1ZI1VhOttRooESWyNsAWyFMrj8f2/K2r9TlwCvAK8DryI8Q4mZ1DCdBnnX77+AqXTW0E33TNQ+DKSJEp9EGINSD2zlKPo84GmEPCXyZMiTlRcdxTamc/K6AxlyQBZoQBkJDPCY8VmUx4AH6eABRst8j7lMBbKGbjpvqm6G8DmEg4C94SOPFP2bA+SBSZS4j0ZmIKIx5jeVbqauy2L2QTgAOAD4RMBq2lAeJcN4lnAXe8iCgLWYlLCGbtZsotYygENQvkr0JVcbuqSyt1DuI8N99OJBhsn7oQsyKdSsW1DL0cCBwB5AXeCKVmURcAfCFWTl2dDFmOSyhm5WraD9UE5AOBPYJnQ5a9GBMokMt9PGXfao0qxRdCd+GBmOQ9kbyIQuqZMU5R/UcBENUghdjEkea+hmRTO1jsWchHAusFnocrphCXAPyu304z7qpTV0QSYBVIVp7E2JLwOHAeuGLqkHFOUvZPiR3bGbj7KGbj6U10MQriT5d+SdNQcYTwe/ZpS8ELoYE0CzDqCWrwDfBrYPXY5jbcDltPITxsiS0MWY8KyhG2jRQXRwNcJhoUvxpITyAHAVOe5HpBS6IONZtEL92yhfAfqHLsezl4DjycnjoQsxYVlDr3YFPRS4EdgwdCkxeQH4Ne383t61V6Ci7o3yfWB/quv7rQO4mAX8hLHSHroYE0Y1/cKbj5qpdSzhSuCboUsJZC7ClWQYx0iZG7oY00N53RfhfKKV6tVsIh0cySh5L3QhJn7W0KvRDN2ENu7CvvwA5qKMozfjbOtbChV0f+DHwO6hS0mQ2Sifo1H+HboQEy9r6NUmrzsg3E80mtV8aB4wjjqutMaeAnndF7gIYbfQpSTU+ygH0ChTQxdi4mMNvZoUtAG4D9g4dCkJNg/hYgZwFUNlWehizMfkdRfgsvI0N7Nm8xEOIiuPhS7ExMMaerVo0RwlHgIGhi4lJWajfJ9GuSt0IQYo6ObAhcAJQE3gatJkAbAfOZkSuhDjnzX0apDXXRAmUT0r2V16DOEMslIMXUhVmqHr0MZ3gbNI9zCYkOYgjCUrT4UuxPhlDb3STdUtyTAF2Dx0KSlWAm4DfkBO3gpdTNUo6JHAr4DBoUupAG+QYRQN8p/QhRh/rKFXsoIOBJ4EdgpdSoVYjHIZ/bjERsp6VNSdKHEdwidDl1JhptOXPamXhaELMX6k5VAC0z2/xZq5S/0QzmcJT5LXptDFVJyC9qKgZ6MUrJl7MYIlXB26COOP3aFXqryegfDL0GVUMEUYTy3fY7j8N3QxqRftJ/81sF3oUiqeciKN8rvQZRj3rKFXoqIOQ5kC9AldShV4B+G7ZOX20IWkUkH7Ifwc5VvYE8O4LARGkJOXQhdi3LKGXmmika5TgeEBq5gDFIGngTcR/gu8S4kOMtSi9Ad6IQxG2YJoyM0WwM5A32BV98xf6MU37G69C/K6O8LvSe9deTswE5gNvAa8hvAGJeagtFFD9K5aWIcOBiNsAmyLkEMZAfQLVjk8Rpa97KCiymINvdLk9YLyTOs4tQETEf5MiYdplNndilLQXgjDUJqAUUSjaYc4rNO3dxG+QVbuDl1Iok3UPqzLRQhnkq495e8jPILSTIap1FBkuCzqVqSJWkt/hiEchnIEsIPbUjvldHIyLkBe44k19EpS0B2Bp4BeMWV8B7iMVm5mjMzxkmGaDqWDAxEOQNmLdNzB304d37ERsqtQ1CzKLUB96FI6QYFpCP9Hif/jZZo5Sjq8ZIr+u/wI+BzxfS8vIMOOtpWtclhDryR5/TvCwTFkmgdcBFxHThbHkC8yWfvSm4NRjgM+TXwXLt3xJsKJZOW+0IUkwkStZQDnopxLsn9uED1Gv40Sf6BJXo8181QdQYZfAPvFkk+4jax8OZZcxjtr6JWioGOBR2LI9E/aOZnR8kYMuVavRTemxNEIx6E0Bq1l9RS4hoGcVdVz4aPhRrcDe4YuZQ3eRbkd4TZy0hK0ElWhhRNRLgcG+M4G7GajYSuDNfRKoJqhSB5o8JilDeHbZOUGjzm6J3pc+R3gaKB36HJWYRodHM0oeSF0IbHL6yEIN5HUscNKAbia9bgzcRddLbo1Jf4KjPCc6UFysr/nHCYG1tArQV5PQPC5r/R/ZDiEBnnSY46ea9YB9OJolNNJ3kCdpcA5VbMIaYauQzu/Kb8eSZrFKONRfkOTTA9dzBpN1D4M4GaUo73mUfajUR7ymsN4Zw097QraC3gR2MpThvfIsA8NMsNTfPei97XHopwHbBu6nI+5hb58u6LHb07R7anhDmBk6FI+pg3lZpSfxv5uvCcmaA1DuNnzxdED5OTTHuObGFhDT7uifgHlDk/Rl5Sv3J/wFN+vaBvc8eXVw74ueLrjeTJ8IVUXSZ2V16MRfkuyTkZrR7mNEj9hlLwcuphuiX6X/4myr6cMSoldaZKZnuKbGNhkprQrcZq3yMKxqW3mADlpIyu/pS9DgVOAN0OXVLYDJZ4kr0l8HN09E7WWgl6B8EeS08xLKOOpYWca5YTUNnOIfpej/epPe8ogCKd6im1iYnfoaZbXJgQ/q1OFi8nKj7zEDqWg/YAzge8D/QNXs9zVwHfJSVvoQrpthm5CG3cCe4Uu5QPKw8BZNMq00KU4ldcdEFrwM2VuCR1sySh5z0NsEwO7Q08z4bueIjcznws8xQ4nJ4vJyU+pY2vg50QL1UL7DtDMNP1E6EK6paBjaePfJKeZtyDsQ6PsW3HNHKBRnkc4w1P0vtRwiqfYJgZ2h55WLTqIEq/gfkjHEoQsWXnWcdzkic7d/nlMw3jW5j9kOCLxOwk+Kq9fQ/g1ydgq+A7K+Szkd4yV9tDFeKUqFLkfP8Nn3mQ2W3ubiGe8sjv0tFKOwc/ErSuqopkDZOVZGuUQ4CDglcDVDKLEJAr6zcB1rN1MraOo1yHcSPhmXgKuo4YdaZTrK76ZA4gocCrR4TCuDWYIn/IQ18TAGnp6Hekh5ru0c5mHuMmWk3uJZov/nOigmVDqgGsp6nXl7YjJM0U3ZCkPoJwcuhTgKTLsQU6+yUiZG7qYWOXkOeBGT9GP8hTXeGaP3NMoOrDEx9SxU8jJtR7ipkdBhwDXAmEnZwmTqeXziTqONZrI9zdgcOBK5qCcQY7xVX38ZzT++EXcj4d9D9g81Qs1q5TdoadRB4d5iPoGfb1d8adHTl4iywEIJwPzg9WhjKGNRylqMs4KL+qnyyvHQzfz+8nQQKPcWtXNHKBB3gV8jGLesHyyoUkZa+jp5P6RmHId9dLqPG4aiShZuYEMwxBCjsPcAaWZvO4VsAYo6Kko9wIDA1axAOFkshxIg7wasI5k6eBawP0CNrHH7mlkDT1tokfCrg9hWUaNlyv9dGuQV2lgf+BbQKhRrRsi3E9Rj489s2qGgl4JjANqYs//oYnUMIys3FBeEGaWGyUvI9zrIfKhqFp/SBn7gaWPj3e7d5Yf35mPE1Fy8huU4Qj/ClRFHcpNFPX82DJO1D60MAG8TSLsjEUo3yHLPoyUVwLWkWwlrvEQdSPyDPMQ13hkDT1t1MOWErF352vVKLNpYG+UM4EQryYE5QKK+jvvK+An6wb050GUw73mWROlgDCCRrnG7srXIsdDwBvO49bYe/S0sYaeJqqCsLfjqK/RwOOOY1YmkRKN8iuEEfibqb1mygkIkyjoRl7i53UH6igAe3iJv3YllAtZyG5k5cVANaRLdMEzwXnckvPvGuOZNfQ0aWFHYGOnMZV77A6oi7LyLO3sAfwxSH5lDPAgLTrIadypOgJhErCN07id9x7CoTTKBVUxIMYl5W7nMYU97D16utgPK13cXzFnuNN5zGowWuaTky+hHAmEGGoyghIF8rqLk2h53ZcMjwObOYnXVcp9ZNiJrNwTJH/a5ZgMuF79vz7TnC/ANR5ZQ0+TEns6jvg/XmKy45jVpVH+TIk9gGcCZN8c4X6man2PorToPgh/AdZxU1aXlICfspCDbWFmD4gown3O42qwVy+mG6yhp4kw2nHESXYIgwNNMpMFZPE3inNNBpHhCQravS/eoh5FiX8S5gzzdyixNzk5zx6xO/GI84glss5jGm+soafFNF0P2MppTA22DavyjJWl5OTrKF8BlsScfSBwP0U9oEv/VEFPRPkD0Qz5uDXTTo4msd9BV2qZBLhdDyO2dS1NrKGnRYldcT17P9y+6srVKLcSrRB/OebM/VD+RkE7d2hPQc8kGhsaYmDMVQxkL0aL+61W1Sya+/+846g7MlNDXPCZbrCGnhbKro4jvk+WmY5jGoCctAC7A4/FnLkOuJ28fnGNf1dBvwdcTvyHM7USHQB0GkNlWcy5q4PyqOOIdSxiqOOYxhNr6Gnh+tGXMqXqD7fwKSdvAfsAV8WcuRfCePK66uNNC/oT4DLib+ZvkWGvqj/Nz7cMBecx7bF7alhDTwtlhNN4wjSn8czKctJGTk5D+SLxvlfPIFxHQS/94K+oZsjr9cCPYqxjuceAYTTIkwFyV5cSM5zHFIY7j2m8sIaeHjs7jvdvx/HM6jTKHcBngTkxZz6bgl7CBK2hwI0IJ8WcH4S76MWB5OR/seeuRv14hmgroEvbO45nPLGGngaTdQOgv9OYylNO45k1y8lEahiN+0VLa/MDtuU5hK/GnFeBn9DAkQyXRTHnrl71shCY7Tiq2901xhtr6GlQ6/wDtQyJvbGYkTKr3NTd7xdes+1izrcM5Rhy8mMbKxyE63MGrKGnhDX0NBDnH6hZ5KTNcUzTGSNlLgP5DFqxI3fnAQfSKGHm3BuAFxzH24iC9nMc03hgDT0NhK0dR3zFcTzTFUNlGTm+iHJh6FIcexEhR04mhi6kyr3mOJ54+A4yHlhDTwNlS8cRX3ccz3SViNIoF6B8B/eLmEKYRok97cjTBBAvn2977J4C1tDTIOO4oQs2oSspGuUalOOBNL8CeYJW9qVJ3g5diAFKHj7f7m8qjAfW0NNhc6fRSnaHniiNchvC4cDS0KV0w/3A/oyRuLfkmdXxc4e+sYeYxjFr6GmgrOc4nut3bKansnIPwmeBhaFL6TTlbvpyCDlZHLoU8xHRnn+3g4zE8XeQ8cIaejqs7zRaDf91Gs+4kZVHgE8BaTgX/CpyHEG9tIYuxKyS2ycmJWvoaWANPR3cfpiEeU7jGXeig10+CQle56BcRpbTbY95orn9jNsdeipYQ0+6CVqD6ylxJeY6jWfcyslzZNgDSOKK8XNolO9bM084cf4Zt4aeAtbQk24LBuL2ZKxWe+eZAg3yKiX2xP3Ur+4qER19+vPQhZhOcX2H7va1n/HCGnrS9XJ+ZWyP29OiSd6mxP6Eb+ol4Dt29GmquP2cKwOdxjNeWENPOmEdxxGtoadJk7xNK3sBUwJV0I5yvDXzlCkx33HEPo7jGQ+soSedUus4Yhr3Ole3MTKHpewHFGPOvAzhKBrltpjzmp7K4Hr3gevvIeOBNfSkq6HGccQOx/FMHHqzE7BjzFlbUV6NOadxQZ1/zl1/DxkPrKEnXckaetUr6jCEB8D565e16Q88QF53iDmv6bl2x/HsDj0FrKEnnfuG7vqDbnwq6FYo/4Rgi5I2RPg/pupmgfKb7hC7Q69G1tCTzvUjd/eP4owvT+n6wD+BwYEr2YYMD1BQW+mcFu4/53aHngLW0JPO9R26+yt348NMraOVO4H60KWU7QqMZ6LaF3s6uH4SZ3foKWANPeky9jOqOqrCEm4C9gtdysccRH9+E7oI0wlqDbgaWbNIuhLLnMZT20+aeEWuBY4JXcZqnEhBLw1dhFmLDH0dR3R7epvxwhp60onzYxCtoSdZQc8GvhG6jLU4m6KeHroIswbuL9xtfkUKWENPuozzD5I19KQq6vHAz0KX0SnKFRT0yNBlmNWwhl6VrKEnXYfzD1Jvx/GMC0U9AOUG3B7E41MGGE+L7hO6ELMK7p/E2SP3FLCGnnQ1dode8Vp0Z5Q7gF6hS+miOkrcyTQdGroQsxK7Q69C1tCTbqk19IrWohtT4h7CDY7pqQ3p4J7ynnmTFOp8UZw19BSwhp50dc4/SOugaj/3JJilvSlxN7Bt6FJ6aAeW8ScKmrYnDJVLHB+77HpxrvHCvtiTLieLwenJSRmmYndToakK8xgP7BG6FCeEfYDfhi7DfGBDp9GU953GM15YQ0+HuU6j1bGB03im64qcDRwRSy7hX8DiGDJ9hYKeFkMes3ZuL9qtoaeCNfR0eM9ptJLjq3fTNUU9BrgkpmwP0of9gYPA8ZCiVfslBT00hjxmdaJXaq6fwv3PcTzjgTX0dHDd0O0OPZSijka5kXi2p02jnSOol1ZyMhHleKDkOWcG+ANTtdFzHrM6TzMQ17PXxe7Q08Aaejq4begZa+hBREeh/oV4dhq8AnyW0TL/g7/SKHcAZ8eQuy8Z/sp0DX1KXHVq9fD5FsffQcYLa+hpoMxxHM8aetwK2g/lLiCOc8XnohxMTt5a6X/JyeXAtTHUMIh27mCW2iCjuPl4Aldy/B1kvLCGng5u318pmzqNZ9ZsgtYg/BkhF0O2RZTYn0b592r/jizfBm6NoZY9mMd4VNMy/a4yZHD/ZMTu0FPBGnoaiOOrY2ELp/HMmg3hQpQDY8jUgfBlmiS/xr9LRFnAySiPxlDTERQ5J4Y85kODnEe0hp4K1tDTQPmP43j2bjMueT0a5Yex5FJOJyt3d+rvHStLqeVzwLN+iwLgp+T1czHkMRH3F+xtvOk8pnHOGnoaZHjDaTxhS6fxzKoVNYtwM3GsaBd+QaNc06V/ZqTMJcO+4Pj3a2UZhNvJ6y6e8xjw8QRu3gqLK01iWUNPg3bnX7j2yN23gm5UXgQXx4r2P9LQzcfaDfIf4HPAIqcVrWwdhLuZpm5HkpqVqfPPt+8LPuOINfQ0qHH+gepnh2l4NEFryqenbR1DtmZa+Roi2u0IOWkBvgB0OKtq1YbSwW12loB31tCrlH2w0iCa5+52UUqr3aV7M4QLy7PNfXsJOJgx0vODM3JyL/HsUT+IIj+KIU81s4Zepayhp4fbRSlq79G9yOuBKD+IIdNClCPJibstjTm5Avi9s3ir92Pyum8MearPDN0EnB+dagviUsIaenq87jSaMNRpPANF3QnhTvx/rtqBw2mUac4jz+ZE4B/O466oBmECRd3Oc57q0+rhcy12h54W1tDTQh1fJQv2ZepSNAnuD0B/77mEs8jJA15iHyUd1PFl4AUv8T+0PsodTNQ4Fg1WDz+fa7c3E8Yba+jp8ZLTaMr2TuNVs2gS2nhgRAzZfkNWrvSaYZi8TwcH4P+ErSz9uclzjuri58nbix5iGg+soadFhlmOI9ojd1eKnAl8PoZMj7CAU2PIA6PkZTIcTfR436cvUtTTPeeoHur8c93GfF5xHNN4Yg09LUrOG/pWzNQ6xzGrT173A34eQ6YXaeVIxorvBvuhBnkY5QzveZTLmKqf8p6nOrhu6K/E+jtnesQaelq08RJuz7KuYTHbOIxXfZp1C4TxuD57emXzEA5hjMR/4lU0fe46z1lqyXAnzWpbKXvObUMXe9yeJtbQ0yLaa2wL45JigtZQy23AJp4zKcrXyEocM9dXbSCnozzpOcum1HIrE9T3xVHlatZNgXWdxlRr6GliDT1N1PnK410dx6se2/JTYK8YMv2QRrkrhjyrN1SWUeJgXC/MXNlYtuEizzkqVy8vizJdv+ozHllDT5OM86vlYY7jVYei7g2cFUOmP5ON5f382o2S94CjgMVe8whnk9e9vOaoXO4/z+r9Is44ZA09TdT51fJIx/Eq3wzdBI3lvfm/6ctXezSj3bWctCCc7DlLDcLttOjGnvNUHvVwh15rd+hpYg09TYTnHUccygxdx3HMyqWaoY3bgM09Z5pLDYdRLws95+m6rIwHxnnOMogObrVDXLrMdUNfyixmO45pPLIPTJp0MMNxxBqWMdxxzMpV4MfA/p6zdJDhCEZKcu+MspyJcp/XHMIBdohLF0QX5js4jjqTo8T3CXzGIWvoadIkrwNzncbMxDLdLP3yui/CeTFkOo8GeTiGPN0nUqKNY8D73dv5tGgcp9alXzu74v410NOO4xnPrKGnz0zH8ayhr81U3ay839z35+VPZLnUcw43xsgcMhyG30VyGUrczlTdzGOOyuDj/bk19NSxhp4+bj9kagvj1kg1Q4bfA5t6zjSTvpyQqEVwa9MgMxBO8pxlU4Sb7X36Wrl/dabW0NOmNnQBpsuecRpNqGei1tp4x9Uocjrwac9ZFqIc3eNFcBO0hh0Z0KV/Zlfm9ugiIiu3k9dPem3swgG0cCrg91CaNFOGI45j1jh/Gmg8c/0rYHwr6p4ojzqNWWIXmsQ+vB+X1yaExwDfM+9nojwB9EPoDfRF6IPSF+hT/qMv0Bvo95E/+zQf6ADmEY0c/vDPUv6zfvDXewHH4feJXysZdqdBCh5zpJNqhiLzAZc7Vt4mJ753cxjH7A49bfowjSWUcPnlWcMI3L+bT7dpuh4d3IH/Zg5Qj1C/wl8J/+B9+Z3++iv9L2Fqq6PEHRQ0S07mBakgqYpsj9tmDmAXTilkDT1t6mUhBX0e2Mlh1NHA7Q7jpUdB+wFbkWEwHQxG2AoYTAejwA6vSZghwJMU9N/AWx/8IbxNiTep478Ml/+GLTEAYTfnF1liDT2NrKGnkVJEHDZ0ZXdnsZJkpq7LMraixBYIg1C2ArYABgFbA4NZfgdawl5ApcNOfPxiVol+dm1AQVuBd4DXgNdQ3kB4HeVVhDfoxRsV1/T9fH6LHmIaz+wrLI2KejrKrxxG7GAp67OHLHAY07/HtT992QZlW2BblG0RtiFq1lsAA8MWaBJqKfAqwmyUl4HZCLPp4GVKzGa0zA9dYJcU9FlgR6cxS2xOk7ztNKbxzu7Q08n11XMNvRkFPOQ4bs/N0t4sYEeUHYCdyn/etvzHxis8arTLU9M5fYAdyr9LESValZIBCvo/hJfLZyc8j/ICwgv05YXEjeOdohvifkLcG9bM08kaehrV0kIbbUSri90QxhCyoTfrAOqop4OdEXYkeqy6I/P4BP4PQjHmozZC2QhoBD68UFwCFPRNKDd45VmEp1GeIif/C1JpLWNQ55eyzY7jmZhYQ0+j4bKIvM5AyDmMGs979Bm6Dh3shLILJXYGdkXYGdjK3mObFBgMDEYZC3y44r+gbwH/BmaU//w0A5nJUFnmtRof78+FJ5zHNLGwhp5W0YfOZUMfzQStcXoYQ4sOooMRwEik/Oc2tmH5ljtr3qZybF7+Y78P/so82inocyjTEaaTYTpLmcYYmeMw7xiHsSId1tDTyr5S06qoR6Hc6TRmhhE0SPdOdJumn6BEE0oDlJs3bOKyPGMqxGsI0ykxDSFPL/LdWnk/S3szj7lEawJcWQysR07aHMY0MbE79LTq4FHnc7mUPaATR7RO1XqELEIWyALD6WBdx9UYU6m2QtkK4RBg+Xa7uQgFSjxBhiJCMw3y7hqjzCWHOG3mAM3WzNPLGnpaNcnbFPRVoi1abii7Ab9e8a9phiL1wJ5Ej/dGEw34MMa4sx7Kvgj7ooDSQUGfQXmSDE+iNJPl+RXm7gujnVchPOk8pomNNfR0m4zLhg5jmKx9qaUJYQ+EMRTZHdvPbUzcaogWjO6Klg++KTKHgj4JNJeb/D7OJ8SVmOw4oomRvUNPs6KegnKN46hut8MZY9KiRB0bMUzeD12I6R47YzjNhMc9RLVmbkx1mmnNPN2soafZSJ4mOr7SGGN6yrarpZw19DQTKQFTQpdhjKkANlAm9ayhp53YIhZjjAPt1tDTzhp6Wk3UWoq6N8rw0KUYY1JPyXAOBd2fgto6mpSyVe5pUtCBKJ9DOBLYG+gXuiRjTMVZAjyM8ic6+GvqjpOtYtbQk26ybkAdBwOHAvtjTTzNWoFFwFxgMcoSMsxFWVT+/xcgzCf6Ql2E0kqGRUBr+e9pQ1mI0kYNCxHa6cD1GfYDyZABBlIq/1k+9mct/zn6XewHrAesU/6/+wMDPvK/re+4PhOvRcA/Ue5mGfeyh7j+fTMOWUNPoqm6JRkOJWrin8QGACXdK8A/Ed5Hy38IcyjxPjW8Txtz6Mv7DJdFoQsNIrooXZ8SG5BhfZQNENZHPvi/B6McHbpMs1bLgAcR7qadvzNK3gtdkFmRNfSkaNZNqeV44MvAzoGrMZ3XBowmJy2hC0m1go4Hjgldhum0EvAkwq20cYc9lk8Ga+ghzdB1aOVwMhxXPl+5JnRJpssuIifnhy4i9Qo6EHga2DJ0KabLlgIPAbfSl79RL62hC6pW1tBDKOgohGNRvgBsHLqcCjEPZRYZXkR5EWUWwvnAth5zPs1AGhkqyzzmqB5FPQjlHo8ZppPhNJRtUYbACn9s6DFvNXkL4Q6U8fbUKn7W0ONS0K2ArxA9VtwhcDVpNQ/KDVuYBbxIhheAF1c6JkPp+gAAIABJREFUajKvX0a4xWMtbSijaJRpHnNUn4LeCHzNW3zhBLJy8yryDoSVmvwQoB7YxFs9le1ZlNsRbiMnr4UuphpYQ/cp2s95KHAasHvgatJCgZeBZ4CZKM+QYSYZXmKkzO1UhBYdRIln8HtK3Dnk5Oce41enGboObUwDhnrKMJ9admaEvNnpf2KW9uZ9tkPIIuxM1OR3BrbBvkM76wlgHPBXO2/dH/tl9KGgG6GcgHAyfh/5pt0chKdRnkWZSQ3P0s5MmuTtHkX1vcBKyDOfMYyVdm85qllBxxK9k/Uz+Eq4g6x8scdxCro5Sj1CPVGT37X8xzo9jl25XkK4nnZuslXy7llDd6lFd6ODb5UHv/QOXU7CvAcUgSJKkVqKjJRXnGcp6qdR7nMe90NLERrIyrMec5iCXkn0ZMuXg8jJvc6jTtAatmMHlJEoI+GDP2w//oqWAhMQfkNWmkMXUymsoffUBK1hCIejfBdoCl1OQsTTvD8uelz7NNGjUF++S05+6TG+AZisfamjBdjRU4bX6Es99bLQU/wVTdFtqF2pyQ+KJXfyNaNcwcv8haOkI3QxaWYNvbse1/704QTgdOATgasJqR2YAUxGeZISzYySl4NUUtDLge96i688So6x5VPujG95bSqfAOZrsNJV5MTnU4A1a9Yt6MUYSuyGsBvQAFTzHPXZwDj6clNsF1oVxhp6V03XwXRwKspJRCMvq817RAMlnqTEZOrIJ2ICWlGzKM34+/JfhDKMRpntKb5ZlbxejPBDT9E7gN3JSTKOIJ6ofehPDhgNjAF2AzYLW1QQ7wPXk+FqGuQ/oYtJE2vonVXQIQg/RDmO6ruKnoRwK8qTZHkeEQ1d0Aomai39mUr0GNOX08nJOI/xzarM0t7MYxqwk6cMTwPZxK68nqLbUMMxwE9ClxJAK3Arys/sQrpz7PjUtSloAwW9B3gB5QSqr5kDvEtWbiYnzyWumQMM4Pv4bObCv8hytbf4ZvWGyjKUY4hG7PqwK8q5nmL33Ch5Ga3asxzqgBMRZlHQe8irzwv2imB36KvTojlKnA98FvvvtJBWNmGMLAldyEqKuhPKNPztKlhEB7sGWxdgInn9BcJZnqK3UqKBJpnpKX7PFHQGMCx0GQmgwL0IF5CVYuhiksju0D9uim5PUf9IiSnAQVgzB1iX3uwTuohVUq7E5xZB4RJr5glQx4VEA4f8RK/h16gm77M+RbfBmvlyAhyEMoWC3k5RtwtdUNJYQ1+uRbemoBOo4dnyUY723+ajlMNDl7CSvJ5AdEa8H8JkGrjUW3zTecNlESW+SnSX5p7yKYp800vsnshwZOgSEqgG+BLK8xT1Vgq6eeiCkiJ5V6Rxi/a7ng6cAwwIXY4ji4E+uL0o+R8L2Dwx09EKuhHwLLCRpwxtlGiiSaZ7im+6o6C/BU70FH0usDM5ectT/K4r6hMoYxxHnQOsS/SOuhLMA37GAsYxVpaGLiak6r0Lnai1FPQ06ngNuIT0N/O3gKuAPZnNAOBRx/E3Yl32chyzJy7HXzMH4WJr5gm0lDMBXwd9rEc0bzwZpuqWKLs5jyv8gFbWQzgE5QbgHec54jUQuJT+vE5BT2OiVusiwiq9Qy/oKOBaokEOafY2wt9Q7gYmrrD1pqino/zKcb6rycmpjmN2XfTzm4y/C9JnGEiDHYuaUHk9BOFvnqIryt40yiRP8TuvoN8k+p5yScmwxQr7u2dpb+ayD8KhwCHApo5zxkspoHyLJsmHLiVu1dXQm3VTarkaUv1eqojyD5Q/rXFV7nQdTDuv4/Zn/B+ybBl0Ulq053wasIunDPaoPQ0KegvwZU/RZzGQXYNf0BX0YWBvpzGFyWRlzSc/TtV6hCMRDgKyTvPHRxHGU8v3GC7/DV1MXKrjkbuqUNSvUsvTpLOZvw2MI0MjOcnRKBesdYvNCHkToeC4jkEUyDmO2TX9ORF/zRzgWmvmKZDhe0RTC30Yyjy+7Sl250zWDYA9ncdV7lnr39MkM2mUC8hJDsgi/IrolV6aCMpxtPE0Bf1KIncweFD5Db2owyjyGMpNwMahy+mCRSjjEQ5kNluQk9NpkK416OhRvFvC553H7KxoIdzFHjO8wVLO8xjfuNIg73rclw5wPtN1sMf4a1bHwfgYYtXVVxU5aSErZzKbLREOQLgNSNOc9U2A31NgEnn1eSOQCJV71VLQXuVRreeSnuluHSgPkuF2avlLj2ekT9HtqeF5R7Ut9yI5Geo4ZucU9Abg6x4zfJ6c/NVjfOOSqlBgEsInvcR3dW56dxT0H0RDrVx6npz0/PS6GboO7XyeEscg7Ee0jSwNWoGfsIBLE7Nbx7HKbOh53QXhFtKz6G0mwo10cAdN8rbTyAV9GtePqKN3zPEuOIlO3noSf0+V/kZODvUU2/gSTQqcjq8tWMI+ZOURL7FXZ4puSA1v4f5G5Ofk5BynEafqZtRwNMqJQL3T2L5Ei+aOT+xkwB6orEfu0Va0H5TfHSe9mbcCfyTDp8jJLmTlSufNPOL+sXsN8d61qGbIcA3+fl8XUOI7nmIbn7LyLPBzb/GVayhovE/4ajkcP08V/+I8YpO8TVauJCe7kOFTCHcQfbcll5AjQ4G8fp8JmpanC51SOQ09rzvQn8eJ9pT7GwXac68AP6QXW5KTL9EgrveLryjjoaErR6Ea3+9OCyeiNHqLL/yYJnndW3zj1wIuAWZ5ir4TwumeYq+aerlgfpUsUz3E/VCDPEpWvkg7WyGcC7zqNV/P9EH4OdvwGFN0+9DFuFIZj9zzejTCb4mmHyWT8BDKlWT5v9i3fRV0FuB27rEyNpa9utHjx+eBDT1lKDKbURwlHZ7imzjkdV+EBz1FX0g7OzFa3vAU/0PRdtPXcH+zdQU5+Z7jmGs2QWsYwmdQTsf19ju3FiCcSFYmhC6kp9J9h17QfhT1VoQ/ksxmvgS4CmEoWdmPnNwbaA/3n5xHFI51HnNVMlyGv2beBnzVmnkFaJSHUG72FH1darnKU+wVtfNFfHwvR9+R8TpKOsjKPeRkH2rYnmiSZRJHs/ZHubM8F75f6GJ6Ir136C26MyX+DOwUupRVmINyNXVcm4ihBtFRsK4Xsc1lIJt5Hb7RortR4gl8/Z4ql9Eo3/cS28Rvsm5AHc8SbVXy4SBycq+n2JGCFnG//ifczpSPa9ZNqeGbCN8BNghdzipMRziSrLwYupDuSGdDz+tnyvshk/YL8T+EX5HhWkbK3NDFfEBVKPIasIXjyP6+4FQzFHkSaPISH15nKfXsIQs8xY9HQQcCOyLsDOyIsjOwOdE6kn5ET66WL7BqI9pDvBhYhvIfMjwLPEeJmXTwHKNlfvz/Eg4V9ETgt56iP0dfhlMvfhZ9FXU71MtagMvJic89+133lK7PMr6FcAb+nsB113sIx5KV+0IX0lXpa+gFPRX4Jcna+/gucAV9+TX1ksyhCwW9Chyv5FbG0yjHOY25XFG/Xj44wg/hMLLiftWvby06iBJ7AXsBnwJcL+h5AWUSMAlhUqJOHuuM6OL1MWDN40277xxy4mdVfUF/BPzEedwQ20w763HtTx++DZyJz8OWuq4D5XQa5ZrQhXRFehq6aoYCV8S+4nTN/otwObVc2+MhML5N1U+RYZLjqAuAzcjJYqdRm3UAtczC36PT+8nJAZ5iuxfduX2FaGzxDjFnfw6YgHILjTI75tzdM1VHkKGAn4v+hWTYYYXDTVwp6L9xv5f7ZbIMQcTPOfKuzNR1WcIpwHdJ1kTPX5LlrKDnV3RBOhp6dGb57RBw7OiK3gMuBa513sx8iR5hv4rrx+7CF5yvDi3oJcAPnMb8UCvKMBrF9QQ9t2bquizlCEp8FWFPwn9WFeFR4Pf04c+JfRK1XEF/DXzLS2zhJrLyNacxizoMZYbTmADKJTTKuc7j+jJD16GVUxDOAdYPXQ4Awl0s4zjGyJLQpaxN8le5N+sW1NFMMpr5fOAcerE1Obk8Nc0cKF9h3uY8bnTn6E5RtyO6SvdDuCzRzXyqbklBx7GEt1FuLo81Dd3MITrs4lMoN7OEtynoOJrV9ZoMd9r5Ab4OFFG+Sou6PqToeMfxIDoq1dfKfz+GyyIa5Rf0YkvgHKLv3LCUw6mjOdG/72VJ+KJYvWhP5iO4f0/YVSXgVkopH0BS0F2BpxxHbaedLRgt7ziJVtDxwDFOYq3sPyxlx0QuhGvRrVG+h3IC0WK2NFgM3Ei0x/m10MWspKgnoVzvJbbwEFnZz0ms6Ejg14HNnMRbTsiTFV+LSuNR0K2I1hUcS/gb0OepZR9GyJuB61it0P+BVm+qbkk7kwjfzB8ARpCTr6a6mQPk5GnA9dGgtdQ62pM+VRuBLzmJtWpnJa6ZF7QfBf0ZJWahfJv0NHOIaj0VmEVRf8pk7Ru6oBU0cCNQ9BJb2ZeCujk8ZQAH4LqZA6iHJ3Jxy8lr5OQrZGhAeChwNTvQziSm6paB61itZDb0om5HhidwPd2sa15BOJicfLrcCCtDdGiNayf1OIKqkOFq/D01up+c/MFT7O7J65eBF4keLablRMBVqUM5lzpeLP87JUP0mukkoidsPoxjpvb8UBjF7fv4yDJaud1D3DAaZAZZ2Q/hEKLx2aFEvSl6NZg4yWvoU3QblIeAUFdBHcA42hlOVv4RqAZ/lDuJ/h1d2r7H7xRb+Dwwyk05K+kgw9meYndds25KQe8uX1xtHrochwYh3EJe72KG+tqh0DU5aQFu9RR9CEt62IwLuhHwGTflrOBBxsgcD3HDyso9wAjgatx/j3XWligPMk0/ESj/aiWrobfo1tTwL2DrQBVMQWkkJ6enfsDG6kT7ih92HrejB4t6Zmod6vXErOtoEPcriLujqHtTyzSSscjTD+Ew2phGXvcKXQoA7ZwDzPMU/YLycJ/u+hI+jn6VCnjcvjo5mUdOTgWaEOcTMDvrE3Qk7/F7chr6ZN2AEvcT5s58IcLJZNmNRpkWIH+8lN87jykc2+13qEs5DX+vV95imbctcJ03U+so6Ljy06dKuitfnUEIj1DQcbEfP/pxo+UdlB95ir4JcF4P/vmvuyrkI96jD3/1EDdZctJCA6MQTiaagBi3rcnwAE9pMrbXkZSGPlFrqeOPxD80A6AZaCQrNyR++IIrdfwd9x+AgfSi64uEJusGKOc4ruVDwvnBF8I9peuzhPuIFpAle2eJWwKcivJ/TNP1AldyPTDTU/RTaNGuP1Vs0eHALu7L4S/extMmjYiSlRvIMAo8Hw+7ajuyjD8wUWsD5F5JMhr6uvwa2D/mrEuBc5jNHuTkuZhzhzVcFiG4H3sq3Xjs3ovz8DeTfxoN/M5T7M4p6Oa08i9gbNA6QhL2KT+edL+Su7Ny0lY+xtOHPpT4WZf/qZ68plqTTAU/bl+dBnmGBewO/BDwd2DUqggH0D+m0/jWIvzdQl6/j3h8f7pqLwBHVNTq9a4q6P7A/Y6jtgNbdXr+dzTSdCY+3iFG9iYnEz3FXrvo3+8BYJtgNSTLSyj7Bx0hW9B7gIM8RFZgN3IypZN19ALexP2Y01fIsm3VPG1clWjq3p+BuE+Y+x45uSLmnCsIe4de1E8j3biy7QnhLtpprOpmDjCbhwHX86hru3ROunIx/pr53wI382Eoj2PN/KOGIDxRHnAUyllEp865JsBlXfj7P4ufmeXjq7qZA2TlKaARPDyFXLNfkFc3w4a6KVxDb9FBKONjrGFZtPBNjqjYFexdcZR04GcU7Mmorv1n2qK7AUc5zx9ZRgdneIq9dkXdCeURYNNgNSTXZsAjFHTHINmj12tXe4q+J3k9pJN/7zc85FfwsOA1jaKV8IeVF8zFtZ4gg3A7BQ226DVMQ1cVlBuJ77i8dxD2Iyv+juNMowx/9BB1CNM68b64xAUeci93HaPkZY/xV6+gm6P8g+Sd8ZwkGwH/oFnDXPB0cAnwvpfYwoVrvaCN9i/7uJPLk5OXPMRNr6zcQIn9gf/GlHFj4AZUg7zODtPQC5yFcmBM2YpkaCArj8WULz2ivdmuR8FCiVPW+L9H7+99LYL8HzVeLxZWLxqm8i9g2yD502UItTzMZPW1IHL1Rsl7KD/2FH0EhbWcRVDim/j57v29h5jp1yT/IsNIfI0BXtlBFMM8IYy/oU/VEQgXxZTtAWAfL2cXVw4fK2IPWu1jp+jK1efP/6eMlLke46/aBK2hlT8Q/0KcNKunjj926hWNa/24AZjlJbbw49XuvY+GKLk9oTCyDPiTh7iVIeoB+wAPxpTx4hBrReL9IE3QmvJxfr295xKuZwGfJSe+JkRVhg5uIdrC51IvWM1IzBYOxd+I1xeAaz3FXrMh/AhhnyC5021/CgEG/9RLK8pZnqJvx+p+/5fyefysrbiLnPzPQ9zKkZN5LOAz5ZkEvvUBbo77YjXehr4t3yaaw+uXciFZ+QZjpd17rrQbJe8Bd3qI/K2V7lImai3KpR5yRZQzyImPFcxrVtRPe3yEW/mEi4KsDm6Uv+F+6+ZyF/G49l/pr0Yn6rmngS5k02astJOVb6BcGEO2LAW+FUOeD8TX0KNDCOL40ruURrkghjyVQ7wMX9kc4YAV/soAjsXfcbiTaJR/eoq9ejN0E5SbCb0FNN0yCDfToj62ca1ZiXPwcxrbxvT52Jd5UXcCdveQ61ka5QkPcStXo1yA8AvveYQL4lwnEt+XULTn2O+/mHIJOQk/tzttogWDzziPqx/ZmjNLe6PeFqspGug0tVZ+Q3XMZvdtMCV+HXvWJpmO4utY3bNXGHmrnIyfYV5xPEKuPFk5G7wPNduQOi72nOMD8TT0Fs0hnOg5yxU0yrmec1QyH18KBzBFo8Eq8/km/k7Ru4tGiX+Oc14PRDgs9ryV68jyDoh41XIefsaFrk97+T19QfuBl8VwS6jzdjxs5cvJOcA4z1m+TkEbPOcA4mroHVzqOdcEsnzfY/zKV8dtwBLHUTPU8HUe1/4oP3Qce7l2jydprd5E7YN4G1BSza5mlvpfNPtRI+UVlN94iS2cVp5NcDTg44CaCQwTP3vqq0WWMxHu8pihBjyuHfoI/w29RT/pdfWv8BBwLCI+3oNVj2HyPuJl0MxJ9OF8/Iy5BOV6GuV5L7HXpD8/BobEnrfybc88bxd/q1fLhcAcD5HXQbkA4VQPsQnymqLSiJTow5dQHvaYZT+KuqfH+EAch7MU9F7gM56iv0gHo8srtU1PtehulJjsIbLi53dtMRmGxj5nYLoOpp0XibamGPeWAEM6fciPK3k9F+GnHiJ3EN2luTaDnPjfNVQtWnRjSjTjazCUcg+N0tnRwN3i9w49r7vgr5kvpsSh1swdapAngRYPkX1dOF4RZGhQGz/AmrlPfYFzYs+6kCuA1z1E9tHMQWyrmlMN8i5wKO5fPUaEg8jrDl5il/lt6BlO9hZbOIMmmektfrVS0jLv/h36xrDt5OOm6+AYFngaOIkWHRRrxrGy1ONODNfm08fb6vzqFZ3C+T1P0QXhm55iAz4b+kTtg65lpnF3KXfbQSueCHcAi0KX0QmXUy8LY8/awanEMenQ9KHkaQjLmizkViD+NRldd2eQ3/9qkOU3KPd4in6cz0Wf/hr6uhwErO8h8jw64p2+U1VyMg/xMjnOpddZwDWxZ52m66F+r7DNCk6hoANjzThW2lHSsP31utAFVCwRLR+76uOY7Q2Y5+9gMn8NXTjWU+TzGS3veIptAEoJH1ShXMhYcT1/fu1KHAWsPM7T+DIA5YjYs+a4G6UQe97OEvLkxMdaF7NctCDTz3hYf73RU0OPZhi7vwoR8mRt7693jTI1wV9oz/JyoGMila8GyVvNJMB/cxGFAAfGdJ4thovDbMbh43hp5bPlQUPO+WnofdkLqHMeV7nQ9pvH5sbQBayScAlHSUfseQs6BH+nxJnVG8M0/UTsWRvlIcTLFs6emketHZMai6OkA/Fy/kgflL08xPXU0PVjh3K4MZMs8R++Ua3qGA8kbQLVM7zkZfjN2inHEcfcBvNxQgfHBcp9XqC8a/J7hksaFq1Whgb+ATzrPG7Gz3t0X+/QP+U8onB5+VGYiUP0pZG0nQQXBLk7B5AA73LNcocHyZqVR4CJQXKvWgfKVaGLqCpRz/ml87jqoUfio6FHR8Xt5Djqu7bnMoB2rgHiP1981aaT5c9BMk/VzYCdg+Q2AMOCHK0KoIm6S/87jTI7dBFVZwHjAdcDzOp97OBw39B70+Qh7l+pl1bHMc3ajJY3IFAT/Tjhx8Ge0AhjscftIQklP+8c16pRnkC5L0jujxN+FbqEqhQNHPq746gZlCbHMb08ct/VeUS1RSABXR66AJRHyYqvQQ9r5/NwIdM5yr4Bs/+Q6DyCkKaQlccC11C9Ml5mc+ziOqCPhr6j43jzECY5jmk6K9rv+kTQGoSLg+Yn0N2h+ZAE/Bk0yjTE2+SwzrGjesPqw0RggeOornulh4ZeYjvHEYvkJCnvcauTcmXA7I+RkweCZX9K18eOSU2C7WnWAcGyd3A+4e7S36SPPaUMKnrlW3QaUxjqNB4+Grrg9kAFSeyAk+qR427gpSC51cs+0M5rd38VbbqpJuDPokmmA3cFya1cZWuIEsF1L3J++JCPR+6bOY1W8jCpx3RNNMwn/ulUwmQaZVLseT+qxPZB85sPZQL/LIRLif8ufTElfhdzTrMq4rwXue2VuG7oM7UOWNdpTHjLcTzTPb/D/TuktflJzPlWxe7QkyPszyIrRYh5uJVwG6PE9ZYp0x3KfxxHHMgErXEZ0G1DX0Afp/EAlLnOY5quy8k84KYYM04lK0nYLrRD6AJMmSbgZ6FcFGu2sOtXzEf56EX19HUZzm1D7+uhofeyhp4gVwPxTGqTRNydg7Bp6BLMB5w/ouyy6OCieC40hfvIyXOx5DJrV/LQi5a47ZluG3qHh/dL7R6PeDVdk5OXgL/EkGkqWflHDHnWTgm3stp8XDJ+Fhl+RBzv0pXLvOcwnVfjoRc57pluC1yM+zOqhfWcxzTdV4phWlVS7s4jdv55ciTjZ5GVIsr9nrNMJydJmiNvfPSiGpa4DOe2obe5La7M+bxb0wNNMhnX+zFXNIMG7vUYv6tcL/I03Zecn0UNP/MaX7nGa3zTde4bupJ1exPstqGPlXZw/p5hK8fxTE8JN3uLrfw0YafqJeOu0ECSfhYN8ihC3lP0d1nI7Z5im+5S571oTnlLsDM+3k+/7The1nE801PKft5iZ3jBW2yTdsk5IGeGboJS7yn6fxgr7l9fmp4pOe9Frnull4bueq9eg+N4pieKuh1wsLf4JX7oLXb3xL333qxecn4WrXwP6Ocp+nCmqpfzsk2PuO5Frnull4bu+g5rJAX19cExXXcafn5vIsKRFHUnb/G7LjlNxCTjZ9GiGyN8y2uOGs70Gt90zQxdB2GE05jq/mmk+y9mZabjiP2AzzqOabqjoBuhfM1zlgzKBZ5zdEUymogBmB+6AABKnA2s4zWHcjAturPXHKbzWjkY3A6BQZz3Sg8NPcMzzmPCoR5imq77Gq5/qVftcPIafioYgLIwdAnmA+Evrgq6EXByDJmEEqfEkMd0hvB55zEzaWjofZgKtDuOehAzNTlbVqpRQXsB34kpWw2SkHfp4n7hium28D8L5Qzi2z53PFN0w5hymdWJju39jOOobZTcnyTqvqHXy0JghuOoA1jKiY5jmq4QjgIGx5jxS+UFeKE9H7oAUyaBfxaTdQMktotagH7UxvI0wKxJLV/H9UWcMJ2cLHYaE3+LmyY5j6iczkStdR7XdE50ZxKn2oSseLdZ2skR9mdRxxnEvRdeOaV8iqUJIXoyeZrzuCUPPRJfDT3D/3mIujUD+IKHuGZtoi008c8DEI5lim4Te94Va7A79KToCPizeErXJ75XTh81iMUcHSCvAVCOBrb0ENnLMbx+GnpvHsPHAhblYtvCFkC4LTS9qAl8l97LGnpilAL+LFo5k1BjqCX2p2MGlm9Vu9hD5LkIT3iI66mh10sryt88RN4a+IGHuGZ1pulQlIMCVvAVCjokWPZh8j7wUrD8ZrkXGC1htq1FK9vdP3btvBEUde+A+atTG+fi5+78b+SkzUNcjwNCMt5mEX8v6Bd8tWn3PEhm7XohnB8wP8AjgfObkD8D4SxCz5FXGzQTqym6PfBdL7GV8V7i4vOLej4P4WG0HdAH+L0tkItBtKr3+NBloHwp6PQ4xY6xDC9MQ5+qm6F8O0juFX2Ggu4YuoiqUNBe1HAL4GMx4hu87O/7xF9Dj05eu95T9D1Ylws9xTbL1XESvididU4NGvDnHTX0JJ0AV22UjJ9VwWuV4Rz8zWzvCkE4PXQRVUG5GBjtKfr1HCUdnmJ7Pr2oWTellleB3h6il1AOoFEe9BDbTNAatuUlonULSaCUaKBJpgfJXtB/g7fTtcyazSAnbudod0azbkEts4ieCibBEuoYXF7XYXzI64EI9+KnNy6lF1szXP7rITbg+93oaHkH8fYuPYMwPvi2pko1hM+QnGYO0R3KRcGyK38OltvcFSRrLT8kOc0coC/LEvAKrFIVdAjCrfi70b3NZzOHOBY7RY9KWz1F34QaHqJZN/UUv3ppkD23ayYcTIt+MkjuGm4GSkFyV7cOarkp9qzRwtvkTacUTkE15CLVyhT1kAeBjTxlaAV+6in2B/z/YuTkNYQ7PWbYlhomMEt9PNavTnndFtgndBmrVOLcIHkb5FXgySC5q5nyBCPkzdjzRmcJ9Io979oNoYBtYXNpovahlrsAn097/0hOXvMYH4hrO5JwHuB8bu1H4n+SudzCBK3xlqOaZDiZsFvV1mT/YHfp0eM4E6/4/5tHsxe+HHvezvtm6AIqxgStYQDjgd09ZllEifM8xv9APF/aDfIqwi+85hC+wLbW1HtsovZBOSF0GWtU4pIgeTNMIAlHeFaP+UiAtQsdXAwkd1uscAjTNc6DkiqVqFDrAAAgAElEQVTTRK1lCONRDvec6VKa5HXPOYA478L68DPgBc9ZjmEbJpQH6pvuGMDR+HuP5Mru5NX3h3BlI2UuytWx561e48jJvFgz5nV34MhYc3ZdLe18I3QRqTZLe9Ofv5Zntfv0PH0938x+RHwNPRoH638ut3AYwq02eKabSpwUuoROES4M8jSmg6uAJbHnrT6LyAS4eAq5k6JrTrDvuG6aqLXM5RbgszFkO4d68bUofCXxvidtlLtQHvaeRzmaAfydxzXsuMa0maojEHYLXUYn1TMkwHvO0fIO8NvY81af62iQd2PNWNQDIDULzgaxLp8LXUTqNOsA1uUeJJaTOx8gJ3+NIc8H4l/4VMuJwFzveZQD6cPjFHQr77kqhXhbbOPn561cyESNf59wLb8Alsaet3osAa6INaNqBuVSjxl8fAZscVxXtOjW1PI4wgExZHufUvzbHuNv6CPlFSS2RVfDgGnl87zNmkRz24/zEHkpwr7AMg+xt6R/gKMlo21UPo5VNJELyclbsWZs4SvAcC+x/7+9+w6zq6oaP/5dd2bSICQ0QZpKJwFC5t6ZhBAhEQGl10gXUFBQQJRX9NUXLAgqyk8QpCgSUBFCKIoKChJKEpOZcycFEkogJHSQkkqSKXf9/jgXJaRM2/vsc+5dn+fJQ5tZayXMveuec/ZeW7gf9XArX9ifZt3dedxK1KxjKNEC7JFANkU5KamFcB8UZmtSXu5BuTmhbJuQ428U9aSE8mVTHScC/T1Evoe8FBHGe4gNcCEzdLCn2Ou2lJ9hx6r68CyD+EWiGedpX5SLPUVXhIsRfoefuzpf8BCzsjTrKQh/AzZJKONNNMj9CeVaTbi9xss4B3gioWwDUH5PUW8l0jQctJAuqoJ4OlGqxDXA+7MIfGz52oQOvush7vqNlZWorTR2TBG+yE7i427Oui3hPODjXmILd1AvEQV5C7jdQ/zTmaVpOEApfSIdQLP+rjw/wsfFytrMZmm4KZvhGvpYWYlwOn5uxa6dcgrwME3q49D67JrBJ4FdPESeQ6NMBaBe/o1wnYccAOcE2ZfbIA+h3J143so1kbw8nmjGSAehfNNT9PbVTgkseVlMOYjWRBZ4ZUuLfgzhEYSTE8y6EuU0xkqw9TVhp4HlpYhyOskeTTmCHC3lFa0GoORpTYNy/Wr/vIqf4GdxUH/a+Z6HuJ3rw9lAss97K9Mr5PhKgLwX4W/uwi0U5On//FP84XaWhzzpmzkfUrMeTIkiSkOCWRXhNBpkRoI51xB+vGeD/BHhooSzboZyP5FOYLpumnDudImfP4/zEHkJAz703HyUvINyuYdcAGfQogVPsdctPj3pKKAt8dyVoxXl6MS3qc3QnYBveIr+Hqx13Oc1zjMJexNpEou90m26bkqkE8rHnyb9vn4hefF5ZkmXhG/oAHm5AvhVgMzHUcOTNGv17ucscRx+ni/dxlBZtsa/XcbVwMse8uVQfuYhbucKMh28LaqqfMJ3aZCmxPOWuBzo4yn6L9exUv82wP155uplh0p2RHokNcwhxJQ/5VoKcmXiedciHQ0doD8XAJMCZN4S4R4ivZY5umGA/GGVvD1jWvvzwnjthJ/9vsp+FPVQL7E7M58rEhmaVHn+QX3Ce84BmnQUytGeoi+BdXy4LMh7wB+dZxROrMpzLCbrQIp6PXA3kPwx2so/kQBbZ9chPQ19qLTSh2OAmQGyC3AOK5hTVVfrke6A8EkPkadTkJZ1/td+/BqY7yEvKFcEmeU/Tjqo5VhgduK5s2sGMA6RZM+ZVxVyXEn8uvfh5+VV7ety/Xr+W09tzQ4c4CFuehX1KPoxB+VL+Pt/uT4t1HIsBUnN47b0NHSAPeVdYAwa7Nzp7RDuJdJJFHW3QDUk6Qv4eCFIJ29Y8Vx/X+ea7wqBto0Ml0XE58g/3dmXGp6igwMSP3wFoMipwAhP0V+nrpM7DgV5ApjiPLNWyZ70Fh1CUR8p7zAJs2NJeJQ69i2/5lMjxKeazs3SDWjjL8CYgFW0AVeylO+F3IbgzQStYXsWAq63ey2hjq0YJsvX+1WqQpEIqHecH+KV9Dt1cpXkzzTdhlqmADZ2eO0W0s5oRoqPtRTrF7+3PAts5SW+8FXycm2nX1fU01F+6zh7K7B1sJ973+L/d5cRj7wNeaLmJOo4rNP3uADSdYX+vvgP6khgWsAq6oCLGEgLRT0sYB1+fIKxuG/mAHd26QddRBFvW80GA9/2FLtzI+VlhMOAN4LVkF6vA4cFaeYAbVyAr2YOC9mI33TpK1cwEVhz0Wjv9CH9R7/2TLMeQRsRcB4hm3l89/ioNDZzSGtDByjIYto5CJgcuJLdUP5Msz5KpL5u0yVPOM1T3K69oQHk5T6ER73UAV+lqDt6it25vMxGGA28EKyG9HkeZZ/yLefkRfpR8LpF9n+7POVutCxFmOChhtM8xAynRfcm0scR7iV+nBbSZFZxUJDHRF2U3oYOMFKW0MqBCHeFLgVhX+BfRDqhvH81uyIdRLx32rU55KV7d1WECwEfi6L6oPzUQ9yuy8tzwD4kN+I4zWZRYjQN4mcxZFcIlwK+drI0ke/m6vUObvJQRyNNOtRD3GQ16y40612UmAKMDl0OMJFWDmS0+Bhf7Uy6GzrAKFlBPeMQ/l/oUojXHBxHB3OI9FeZHSErjAPcz7TXHrxB1UuEcpvzWmJHUdSw51sX5DX6sB9htmSmg/JPahhDo7werIYmbUC9Xr1+A5HuTbyMJ8c95bySXIav0lv0YxT1eoQnEY4mHeu8fk6ezzFKVoQupDPpb+gAIiXy8vXysatp2CJQB5xNjgVEOoFm9TEH3R/1MipyJW3c0qPvrOEiwM8zKeV65mlfL7G7ak95lzz7A18jHT+/SWkFvkaBA4KuBp6gNeS4AV/vd8LtFKRnjwaFGx1XA3BqkK2bvRHprkQ6gRLzy9vQakOXBLQhnE5BLkx8a2UPZaOhvy8vN6McDKTlGUYOOA5hbmYaezwistFD5HsYJe/06Dvr5VXwNlxkJxaHO/3oP0SUglyFVs1z9fmUGE1Brur2latrO3AGMNxT9JXkerEAs53f4f6Aqo+U3yfT7/1Gzn+mvKWlJy1GOZi8jA9dSHek5Q+v6xrkIUqMAZ4LXcoHvN/YnyDS36S6sYu3k5nG9+q72/k58KaTStb0HWbpRzzF7p4GaaKdvYF7QpfijXI3dexNozSHLqV8mtoPPWb4FcNlQY+/e4S8jfAXd+WUJXvKWPcVdTeKehPxIKY0NXKAeQj70iAPhS6ku9L0h9h1jTITKJC+N8U64AvlK/Z7iTQNizlWp14a+svk6d0P/0hZAlzippw1DC7vX02HkfIGBTm6vLVtQehyHJqPcggNckz50JrwhEvwNxL0bfpwqYM44x3E+LBDmKwDPcTtnRbdl2b9M8qTKGcQdj/52kyknQJ5yeTEx2w2dIi3teU5hvi0pLQ9l8wBRwCPE+m/aNZjUA3/Z13UPOBjK9cfnDxjWspvgLm9L2etTqdJkzxOsXN5+QswFPgx6fsZ7o5WhB/Ryu40yN9CF/MfLToE5aseM/ygPN2yd5S/4/7uVH/6c7jjmD0zQWuI9DginU6JR8sfZMO/H66uDeEC8owrX1xkUtr+ULsnfi55JcpY/Jzg5cJIhIkUeYZIzy1vGQuj5Ol2e4nfOYkzVtpR/sdJrDXlyPHLVHyw+qCCvEdBvk2OnRCuIT52MyveA64GdiIv303dKmDlKvxdAT4LXOckUjwL/HYnsT5IOd55zO6YoYOJ9Hy25xlgAn7W7rjwEjn2Iy+/CL7eo5fSsCXAjUg3Iz6CNe2TkpYTn7Z03XoPMHEtHrX6AvAxx5FnUBC341uL+iDKp53GfJ9wBnm52UtsF2bpR2jlfIRziCfepdEihGsRrkr8DPOuatZjECZ6i68cSYP8yVm8Fi1QwvWag1b6sKWTuwjdUdQ8ytnACfjYHuuScgclvsIIeTt0KS5UTkN/X1E/h3INsFnoUrpgOsL1rOIO71c3TTqKnJcDIb5Og7idEdCiwyjRgp87SG9Qw65pO1RhDXN0Q1ZyLCVOL5+IF/q1qgiPAePpx8S1nnWfFvHM77n4m6X/CAUZ6zxqpHMBt4dCKV+gQVzPjF/TVO1PXz5XbuRpvRL/oH+jnEOD+PvQF0C6bj+6kJc7aGd3wN2nZ39GoNxMH14m0qtoVl9bayDn5XZ7O+rhbOd6mYX2cE9757agI0UL5NZlqCwjL+NpkP0QdgYuBZ4JUMnTwA9QdiQvY8jL+FQ3c4BWLsFfMy8Rr9vxwc2jqw/yt6slFmk9kV5FH15GuZksNPN4F8buldbMIfynfr+a9RSEq4CNQ5fSDbOBW2jnD4wUN4d7qOYo8hKuD6UQ7icvfva7xnO3nwF8rNQtoexNgzR5iO1Xi25V3rY5BtgP2NlxhmdRHgEeQXiEgrzmOL5fzbo7Qgv+np3fREF8DGaCSLcjnlHg8kKrnTq2drrrYJpuQS0nEc+N38NZXP/eAc6lIL4mUwZX2Q0doEm3RLgC4SSy9fttB/6OcDsr+FOvZgg36xjEy+jRk7y+OCK9ELjCU/QW5tPIOOnwFD8Z8SLLXRGGALuiDAE+CmxEPLd8IP+dX74MWFr+6xKUV8nxFPA0JebQwdNZXuFbXifyGP5mfy+ijl28bsmLdBLuj40+h4L0bgFfvJ//iPLY6INIxyS3rlLgVur4Zmq2U3qSpQbXO3FTuxYYErqUHlgB/AXhdpbwt26fzx7pdcCXHde0FNiSgvhblT1H+7CCWfg7Zel8CnK1p9gmac16BuLlwJP3+f958fF7EB4lL2O6/X1xEz+ceGjWgUDYEco98yQ5vkK9PBa6kCRUT0MHyvONvw78H7BB4Gp6agnC34B7aeP+Tq+oJmktA3kV2NxpFcrvaZBTnMZcm0gPBP7uKfoScuxWHj1rsmy6bkoNT+NvMewTLKWesdLuKX4svuPyBm6bZ4latmMveaXTr2zRzengcIQjgQMc15GkZcD3gavK2wKrQuUtilufgrRRkJ8AQ1JxJGvPbIRyPMrt1PImzXo/RT2LJt1yrV89kE/hupkD5Lyc5bymgvwDuNdT9I0opeIUP9NbtfwUnztblPO8N3OgfNb2A46j5uhYz3beZt2eSL9OpI9R4jWE3wCHkt1mPpESQyjIz6qpmUO1XaF/WLz38wrcP7MKZS5wH/AX8kxBRIl0PPB5x3neBj6a2Itlmm5DLU/j666KcDh5uc9LbONfUT+F8k9v8ZO6G/W+eOut20EzQjN5iVegT9JaNmRMeWLbYcAnnOYKZxLC/5CXYuhCQqnuhg7xQpoWxqFcBmwfuhyH5hJv3fsy7lf5j6cgpzuOuX6Rfh+42FP054E9va4HMH7M074spkg8QteH5bSzKyMluUmUc3RDVvAm0N9hVEU4AWVv4rHUH3cYO7TngW+TZ2LWJ731VnXdcl8bESUvd7CUXRC+BLweuiRHhgDfxs+WPfd7zzvTnx8Rj9v0YQfgck+xjU+L+R7+mjkI30+0mQPlff6u7xhJ+ar/fCqnmb+G8nny7ExB7qz2Zg52hb6m2boxq7gQ4Vz87IHOuneIV7cn/2yqqEej3tY+dFBKyZGfpmuKuidKhL89588xiN3ZSVyfV965SI+DhNapZM8S4Gpq+HnqJz4mzBr6ukzVTejD14DzgHAHqqSPv8EaXRHpP4hX3/rwBP0pMFRaPcU3rsTPgf+FUPCY5VAK8leP8dct0gHEq9037OxLq8gilKvoy1WJz6fPCLvlvi6j5B0KcjF1bA18DcjWxCxfcgFut6+e/0ziA2582IMV/J+n2MalDbnIazNX7gjWzIHyeo4sjK9OwqvA16hjGxrke9bM182u0Ltqmm5EDecinI+PbWDZsJSVbN2rqXUu+F0gt4oSeRpljqf4prem687UMBO3i8Y+aBklhtAoL3mK3zV22/1N4Bes5Jrg7zkZYQ29u+LhNEci/A9KQ+hyApmPMAWliDCZ55mZ6AjVeILcTFyfTPVfM4HGatvDmgkTtIbtmQKM8Jgl+QmC8c90I5AH9iEeX/vRRGtIjybgZ8C99hrsHmvoPaWao4VDgG+g7Be6nMDeAqYB01GmUUvkfbGK3wlyIFxAXn7hLb7pmUjPAa71mCGZiXBTdRPqGAHlX8JIYLDXnOk3CeFK6vmrrVjvGWvoLrRoAeUbKMeSrUMLfFHivaEtKEWghb4UnT/7atbbPR4PuRxlTxpkvqf4prvi08iexN/uE0X5JA0yxWnUFt0cpR6lHiGPUk/lDHPprTbgTuDnFKQldDFZZw3dpZm6Ne2cBXwR10eVVob5QAtQRJhBDU92ab70usRHiT5FfLKYe8o/KXCAXS2kRLPej/AZjxl6v4OjSbdF2AMhD9SXf/k6mz3LXkH4NcKv7SwFd6yh+6CaI+JTCGcBR2FX7evTCjwHzEGZS44iJeZQ4IUuNdJIvwz07mjI9ev90ZOm9yL9IvBrjxleK0+E6/z4WFWhmSHkGIIytHx07VBgR6CPxxqzrh24B+VGCjyMSCl0QZXGGrpvke5KPH7189gzsu54jfj26lMIz1LiWWqZx168uNobQbxIajrxYiIfFpFjqF1FBNSkW5JjDrCJtxzCGeTl5tX+nWqOmWxHBzsj7ISyC8oQhD2Aj3irpfIsQhkPXE+DPBO6mEpmDT0pkQ5AOBrlFGB/oCZ0SRm1iviK/lmEeZR4FmEw8apYX+6lIEd5jG/Wp6gTUY7xmGEOylcRdiw37p2AnYmvuLN64lhoHcA/EW5FucfOSUiGNfQQZuvGtHEcyqnEW1RM2gknk5c/hC6j6jTr8UjgYUamO6Yg3Eodd9oAmORZQw8t0nrgBGActngmzd6gg6GMkLdDF1I14vHLc4AtQ5di1usl4gE4t9lK9bCsoaeFqhAxihzHl7e/2ZtY2gi3o1xGjrcZyNtBDu2oBlO1P7VshnAZwsmhyzFr9SbKnQi3k2eqLXBLB2voaRQv9NqXeIX8EdiVe1otA95C+Dcl3i7//dvwgb8vsYwcSymxDFiMsIRBLK34DwOTtB99GUAdgxE2QNiAEhsCgxA+AmwGbApshrIpwubEI5U3AwYErNys2yvAn1Hu4QUeTnQ6pOkSa+hZUNQ8ypHAkcDuocsxTrQRfyB4F1gKLENYQYkVCCuB91BWkWM5Smv5a9uApQjtlFiCsOYbqrKIeLBP53LUomsZ0qL0I0d/YABKX2AD4u1YA1FqiZtyDhiMkisvStyg/Ctu2nbwU6V4EuFPCPcynKLNZEg3a+hZ06TbUsNnUQ4DDsT2vRpj3FkFPIhyJzXcT738O3RBpuusoWdZk25JDYdT4iiET2HN3RjTfe8BDyL8CeU+CvJW6IJMz1hDrxSRPgXsGroMY0ymKCW2olFeD12I6T17zlUJpuk2WDM3xnSfIDSGLsK4YQ29EtQwNnQJxpjMsvePCmENvTLYC9IY0zPx+htTAayhVwJh/9AlGGMyaw8i3Sx0Eab3rKFn3XT9BO4Hz6xA+BzxgSePE6+CNcaEsxzlMYSfAlc6ji0I+zqOaQKwc7qzrpZPd3GMSHc8Tl4mEM9njjXr9sBohDzxUaUN2DY5Y3xYBURAEZhMjimrHd/boptT4gJc7lJS9gfudhbPBGENPevUy/Pzh9f4Nw0yH5gP3ArALN2ANoYDeYQ8ymjgEx5qMabSzUUoohQRJqPMpiBt6/zqevk3kT4J7OGwBluHUwGsoWffJz3EfKTTrxgmy4HJ5V+xGboTJepR9kIYhjIM2MpDfcZk1SvALGAWwkzaaWaEvNCDOI/gtqHvyiz9CMPkTYcxTcJssEyWNev2CM87jvou89nc2cELk3Ug/dmZEkM/cLt+L+K538ZUquXATChfeeeYwwqeZbQsdRK9WY9AuNdJrPcpx9IgdzmNaRJlV+hZlmNv58/PlclOT1GK38CK5V/x7fp52pfFDP3AVfwwYE9gE2d5jUnOOygzyDEbZRYlZrEBcxkqrd4ytvE4fSjhcmGzsDdgDT3DrKFnm/vb7cJDzmN+WHx0aEv513/N0768y47kGAJsjzAUZQiwM6zlVDBjkvMawhxKzEeI15OUmMvGPBfkKNxR8g7N2oJQcBbTVrpnnjX0LFP2dh5TuvD83Jf4jXFO+dd/TdJaBvMJSuyCsiuwM8LO5b/fIkClpjK1AS8Az5Z/zUN4lg7m0cDLqTs6NH6tumvoyl5EOoCC2DbVjLJn6Fk1QwfTwdu4nSXwDnk2R6TkMKZfM3Qwyo4o26Jsh/AxlG2BbYn352+J/ZybWBvwCsqLCAuAhSgLgYXkWMASFjBW2sOW2A1FPRTlPqcxlbE0yCNOY5rE2BV6VrWzN+J8MNDUTDVzgOGyiHjPbrTW/x4/r98G2A5lW4SPw2oN/2PAgGSKNZ6tABYAL5Yb9YvkWIiygBILWcCrTteHhLaKqR6eo4+mK7tcTCpZQ8+qHPt4GCgzxXnE0OLb+M+Xf62pSbclxyxg4yTLMo4pN9IgXwpdRqJGyTtEOhfY3VlMZR9nsUzibPRrVimjnMeUCmzonWmUlxDODl2G6ZVn6cPXQxcRyOTOv6QbhL1Rtb6QUfZsMYtUcxR5F9jIYdRVLGUwY2Wlw5jZUdRbUU7xmGERyicRltBBP2oZiLABJfoBg4ABCH1RNkboh9IfYTBKX+I9+xsh1Hwg3iB0tQ/kg1j9A/pg1v367gCWfOCfW4n3Tb9vBcJ/fw6UZUAryiJytKIsB5ahtJJjUfm/LS9/XRs53kVppcRAcjyA3x0KbZTYh0Zp9pgjvYp6MsrvHEfdjYI87TimSYDdcs+iFnbBbTMHaK7aZg5Qy9m0MYJ4i5wPg8nxW/ox2uv+5LSYo31YwaP43m4ofKdqmzmA8piHmI2ANfQMslsrWVSiwUNUt7fusmaYLEc4kXgltB9KAyv4qbf4abKCy4GRnrM8TD0/95wj3QryIvCi05g5L+8vJgHW0LMoHqHqljLNecysyUsR+InnLOfRrId7zhFWUQ8FLvCcZQk1fCFzuzJ8EKY6jljvOJ5JiDX0bGp0HrHDGjoAeS5BeNRjBkH4A5Hu6jFHOJHuinIbvtfnKGcwXBZ4zZEVrj+MK/VEWuc0pkmENfSsmaS1xLPPXXqZkfKG45jZJFIix5nAMo9ZNkS4lXna12OO5M3TvuUFWr6fm99uh4ispug4Xj9KDHUc0yTAGnrWbMgeQH+nMZUmp/GybrjMA87wmkNpYDG/9JojaUv4ldPZ4mv3NLV80XOObGmliOu1HzUe7gIa76yhZ02OvTzEdP0JP/sKcidwm+csZ1LUcZ5zJKOoJ6GePwTFTes0hsnyTr+ymoySFcBTTmMqw53GM4mwhp416vx2OwjTncesBHWche/tO8pvadJs396MtB7lN97zCN+kIPazunau/1zcXzgY76yhZ88ejuOVKK1jDnq1i68ExwE+9+dvQI67mazZPB420kHAHUA/z5n+RD1Xec6RXYLrvfi7o2qDxzLGGnr2uL6ae56CLHYcs3IU5AmUSzxn2Zl+XOM5h3vxG/6vgR09Z3qddr6UuuNL00SdPzbbkJl8zHFM45k19CyZplvg/vzvGY7jVZ4CPwMe9JzlVCI9z3MOt4p8CzjOc5YSyqm2C6MT/XmSeISvOyXndwONZ9bQs6TGywvsSQ8xK4tIiRKnAm96zvRzmnWM5xxuNOtngUsTyHQFDeL7w1T2xeOEn3Eas8SeTuMZ76yhZ4l4eIEps5zHrESN8jo5jgPaPWapRbibovq+hd07TToU4Q78v388SJ7/9Zyjksx2Gs3H+43xyhp6loiXYQ92hd5V9fIYcJnnLBuj3MFUdTtrwJXJOpAcd+B7eAz8m1pOt9Gu3TLHcbxs776oQtbQs8X1uNBlFHjBcczKNp8fAA97zlJPHTd6ztF9qkI/bsH/G30J5ST2klc856kswhOOI+5sI2CzxRp6lii7OI73hK0c7qZx0kErxwELveYRTibSi7zm6K4iPwCO8p5Hudiem/dAh/PHZ3XU8HHHMY1H1tCzYqpuAmzqOKrrT/TVYZS8g3A8Po9ajV1Gsx7sOUfXxBPtvuM9j3A/BS73nqcSNcpLwCKnMdvZyWk845U19KyoZQfnMXOOx0VWk7xMw/8q7xzCLbRo2P3AzboLyo34PkENXqWW0+y5eS+o49e0eJ8xYByyhp4VOQ+flJV5zmNWkzyXIjzkOctmlLiHSAd4zrN203QjhHuAQZ4ztZPjBIaJ762BlU0cv6bFrtCzxBp6Vig7O49Zw7POY1YTkRJ1jAOe95xpOMJEJmiN5zyrm6N9qOE+YDfvuZQLyrsITG+o49e0j/cd44019Kxw/0m5jUW2wr3X9pR3EY4G/J4ApnyWHbjCa44Pe4/rEfZNINN4GiR7o2/TKOf8rptdoWeINfSscN/QFzBWfA5JqR55mY1ypvc8ygVEerb3PABF/R+E0xPI1MJSkvk9VQPlOccRt2Oe9nUc03hiDT0r1PH2EXH+wq9uDfJH4PoEMv2CFvV71dysB6OJrDRfQgcnMFZ8nmZXbVw//qnhHTukJSusoWdBPDVsM6cxXT9rM7CUcxEe9ZylDyXuo1l39xK9WRsRJgK+n9d3oBzLCLGfQ5fikxPdHmRTx7ZO4xlvrKFnQR+2wv2WId8LuarPWGmnhpNw/Ya6po0QJjJbN3YadZpugTAB8D92VvmJDY/xxu3dtw62dhrPeGMNPQvUwydk5UXnMQ3sJa+QYxz+h87swirudDaac6r2p5Y/QSK3V//BC1ycQJ5qtcBptBzbOI1nvLGGng3uG3qOl53HNLF6eQzli97zCPsDv+l1nAlaQx/uBEb0Olbn5rKSYxknHQnkqlYvOY3m44LCeGENPQvEwy2vDuzgC58a5FZcNNvOnUqk3+hVhO35HnCIk2rWbxlwPKNlaQK5qtmrTqANIp8AABTiSURBVKOp3XLPCmvo2eD6E3IrDd6f85p4O9akBDJdQVFP69F3Rno+8F2n1axdB8KxFMTOD/DP7RW62BV6VlhDzwL3t7xetVPWEjBW2ungOGC+50yCciNFPahb39WsxwJX+ilpDd8jL39PKFd1c/84zZ6hZ4Q19CzIsaXjiHa7PSkj5G2UEwDfe63rUG4n0j269NWRjkC4hSTeA5T7yHOZ9zzmfW5vucOmNlwmG6yhZ4E6PjZVbUFcohqkCeVkwPddkcHAP5mh658qWNQ9gb8DSRz48gQDONFOUEvQcF4HWh1GFJY6P7rZeGANPRs2cRpN7Pl54hrkLuD/JZBpczq4Z5171Jt0SzSR09MA3kU5jqGyLIFc5n3xhye3p9Z1OH4PMl5YQ0+7eJ+x2zdf4R2n8UzX5LkQ5Y4EMg2ljb8zSzdY7d/O1o3J8RCwfQI1rAIOp0GeSSCXWdPbjuO5nVRpvLCGnnZ1bIzrKXFqDT0IEaWN0xGavedSGmjjDiZpLQDztC9t3AMM9Z479iUKMjmhXGZNbl/jObtCzwJr6GnX7uXZletP76arRskKhCMhkXUMhzCQ61DNsZhbUfZLICfAjynILQnlMmvj/i6cPUPPAGvoaVfy8MlYedd5TNN19fIqJT5HfFvaty8SMRkYl0AugL8yP5F97WZ9XL/G1a7Qs8Aaetr5udVlV+ihNcrURM5QBxD2TiQPPMFKTrCxring+gpdrKFngTX0tFMGOo+Zs2foqdAgv0MrZn/2G+Q4zMa6poTrdTIlBjuNZ7ywhp52Sj/nMduwN920KPBd4LbQZfTSckocRr0sDF2IKVMWOY2XS+BIXdNr1tDTzscLqdb71DLTVfEI3tOIB71k0SrgMBrF/8p903Xi+DXu48LCOGcNPe18vJAGWUNPlYK0sZLjgJmhS+kmRTmdgiRxAI3pDtcNHbtCzwJr6GknuJ6hrOzodCykcWG0LCXHkcBroUvphh/RIH8MXYRZi5Ljhi52hZ4F1tDTTp039FV20lpK1ctCcnwaMrCtULmWgvxf6DLMOuTslns1soaedur8Vpfdbk+zepmLcCLQHrqU9fgHwgWhizDr0WG33KuRNfS0E/o4jpjEMBPTG3l5AOFM/J/O1hMtrORYCtIWuhCzHq6v0LEr9Cywhp52mso3deNbXsYD3wldxoc8TzsH217zDMhhw32qkDX0tBPnt15rHcczvhTkcuBnocsoe5F2xjBS7OjdLChR4ziifUDIAGvo6ef6heT6hW58yvNNYHzgKt6lxMGMlCQOlDEuqPMP7mle02HKrKGnnfsrdGvoWRLvSDgL5YFAFbyHcDCNMidQftMTNY5f52JX6FlgDT3t1K7Qq15B2hCOB55IOHMJ4QzyMi3hvKa3XF+hu38fMh5YQ08/a+gGhN2AbRLOuhhlbsI5jQvun6HbLfcMsIaedu5vufdB1f6/Z0mL7o/yILBxwpk3Bh6hSRsSzmt6y/V2V7vlngn2xp52yjLHEYWZbOQ4pvGlWY+gxF+ADQNVsAk5HqJF9w2U3/TMIKfRSqxwGs94YQ097Vwfgxizs42zoKhnItxF+KEeG1HiQYp6dOA6TNe5fY3nvLwPGcesoaef+xeSOv70btyL9EKUG0jPmoc+KBOI9POhCzFd4vY17ufCwjhmDT3tajy8kNrtCj3VIv0xcAUgoUv5kBrgZiI9N3QhplOuP7RbQ88Aa+hp5+OTsdgVeiqp5oj0WuCi0KWshwBXEemFoQsx6yHOP7QvdhzPeGANPe383Ora3ENM0xuqOYpcA5wTupQuEOAKIk3zB4/qps53RNgVegZYQ0+7di8vpG09xDQ9NUlrKXIrcHboUrrpxxT10tBFmLVQx69xe4aeCdbQ026kLAGWO466neN4pqdm6QYM5E/ASaFL6RHlOzTrNTbbIGXEcUPP8abTeMYLexFmw0Kn0YSPOY1neqZJt6WNacDBoUvpFeErFHmAaWrzDdIg0jpgK6cx1fF7kPHCGnoWKC86jmhX6KEVdU9yTAN2D12KIwdQy+PM1K1DF1L1atgat+/tJQZhJ+1lgDX0LBBechxxG7tFGlCkI1AewvVVVHh70s7DNOv2oQupaiXna2TeZCdZ5Tim8cDe1LPB9RV6P1qwN90QIj0SeJjK3WmwM8JUm/8eUImdHUd0/f5jPLGGngXub7kD7OEhplmfeJvXXcCAhDM/AbQmmG8LcjxCsx6bYE7zPnH+2raGnhHW0LOghgUeou7pIaZZmznah0hvBn5M8q+5f1DH3ghHAO8lmHcAwgQi/XaCOU3M9WvbGnpGWEPPgpU86TxmyRp6Ipp0S1bwGHBagOy3MJ+DGSbLycsD5NgPeCvB/AJcRqR3MlX7J5i32g1zGk2Z6zSe8cYaehaMkneAV53GdH9bznxYiw4jxxRgRIDstzCfLzBO/nuOdb1ECJ8h2aYOcCx9uZ/pumnCeatPi24FbOI0pni4oDBeWEPPCmW244g70qKVujArvGY9hRJTIcjiw6vJc/pqzfx9eSmWr9RfSbQiZT9qKFLUfKJ5q00HrhcjlujPHMcxjSfW0LNCmOk8ojLWcUwT6QCKeivCrSS/+A3gWxTkfER0nV9RL3OBBkj8yutjKNNsBrxH4vw1/TxDZZnjmMYTa+jZ8YTziMp+zmNWs3j/9RSUUwJkLwFnU5CfdOmrC/IadewPzj8odqYW+DGR/oFZukHCuavBGKfRxPmdQeORNfSscH/LHVy/+KtZUT+D0AzsFSB7G8rJFOT6bn3XMHmTGsYCU/yUtV4n0kZEUXcLkLsyxWsUXC92dX8hYbyxhp4Vy3gaWOo46m5M0y0cx6wu8Rnm30W5D9eLkbqmFeFkGuSPPfru4bKIdg5GeNRxXV2xK8pjFPUzAXJXnhz7EO8scKeU+B0c0wvW0LNirLQDjzmOKtRyjOOY1WO6foIi/wJ+SHwrOWlLKHEgeZnQqygjZQn9OBCY6KasbtkM5X6a9Qbmad8A+StHjiMcR+xAeMRxTOORNfQsUecNHeBIDzErX6QHUsO/gMZAFbwDHEKjuLmyHiqt9OckoGdX+r0lnMViHmGGfjxI/qybpLUohzuOOpuCLHYc03hkDT1LanjYQ9RPMUs/4iFuZZqnfWnWG4C/A6EeVzxDBwUKMtlp1KHSSkFOBL7lNG7XjaSD2RT15ED5s2sgnwI2cxzVx/uN8cgaepYsZiawxHHUGlo51HHMyhTpDixiEsJZwWpQIkqMYYS84C1HvFL+fOKV80kbiPI7Ir2WSdovQP6sOsp5ROVx5zGNV9bQsyR+ju7+RSac6TxmJVEVmvWrwCyEvQNW8lf6MIZGed17poJcjTIOWOk919qdw0CKdmpbF8RjdY9zHLVEXy+P+IxH1tCz5x8eYo6kRQse4mbfDP04Rf6J8Esg3L5p4QaWciTDZHliORvkLoQDiZ/XhzCEHFMp6qXM0T6Baki/Ok4A3I7VVVrYU951GtN4Zw09a0pMANYc6dlbHZzvPGaWxdvRLqKDuRB0ol4bwpfIy5fLd2iSlZfH6aAAwcZ/1qJ8hxXMpUX3DVRDeqkKwtc9RL7TQ0zjmds9iyYZkT4OjHYcdSXtfJyR8objuNnTrNsjXAccGLiSZSgn0SB/DlwHTNVN6MNEwn+4+RHKZRSkLWAd6RHpaHw8hoMdKcjzHuIaj+wKPYuE2z1E7UctP/QQNztm6QZEehXC04Rv5s9SQ30qmjnEJ/7N5wCga6Nl/ahD+R7wFEU9KGAd6aH8yEPU6dbMs8kaehZ1cBc+brvDGTTpUA9x06+oB9HGbOA8oC5oLcKjdDCK4TIvaB0fNk46KMi3gDOBkFfIO6A8QKT3MU23CVhHWEU9CMHHYwi73Z5R1tCzKF7l/C8PkWsQfuAhbnpN100p6k0o9xPmqNPVKb9nFZ9lhLwdupR1KshvEA4n3GK59x1KLS1E+nlUq+vxYfz79XFHTengbg9xTQKsoWdVfDynj7hH06yuR0imzzztS6TfoIZ5KGcQfj1JG3A+DXIKo2RF4Fo6l5cHyovlZgSuZHNgPC1MolmHB64lORGnoM7PPgeY6nXGgfEq9JuY6al52pfFLMTPtLK3gT0oyGseYoc1QWvYgS+gXAJsFbqcsgXAMRSkJXQh3Rb/HP6U+FFFGvwF4QLy8lzoQryZoTvRwQx8bKNUjqVB7nIe1yTCrtCzaidZBfzWU/RNgWsr7jZmUT/J9kxFuYG0NHPlX+TYJ5PNHOKfw4KcD5wNrApdDnAoymwivYxpulHoYpxTzdHBDfiZifAyQjoWYZoesYaeZe38Cn+Lk46iyPc9xU5WUUfSrPeXD7cJdZjK2lzHAMZQL6+GLqTX4rPY9wNeCl0K0B/4NrU8R6TnVdQI2YiL8bd18FrbDphtlXUFVo2K+keU4z1mOIeCXOcxvj8tujclLgHStsVpOco5NIifdRAhtejmlPg94bf9fdDLwGX05yaGSmvoYnqsqKeh/BY/79vv0cF2qV6MaTplDT3rIh0BTPOYoQPhi+RlvMccbrXovpT4X9LXyAFmAcdTkKdDF+KNao4i3yTcOfHrshC4FLglc1eiRf0Myp/xtaVSuZEG+ZKX2CYx1tArQaR/AQ7xmEGBiynIpR5z9M4c7cNKxqFcANSHLmcdfsVSvsFYCXXgSbLiOyS3AR8PXcqHvABcSw03MVwWhS6mU816AsLNQF9PGVZSw24MlwWe4puEWEOvBC06jBIt+F4TodzMAM5jqCzzmqc7WnRzOjgL4SvAR0OXsw7vlu9yVN/+3hk6mBK/QTkmdClrsRzh95S4hgZ5MnQxaxXpRcDl+HyvVq6gQb7pLb5JjDX0ShHp74GTEsj0Qrk5PZxArrWbp31ZwiEopwKfBdJ7EpcwFeFE6mVh6FKCivRs4EogrQvUJpU/sN6Tig+sM3Vr2rkRONhzpreoYadM3KkwnbKGXimm6TbU8jTJHPGpwB+BHyb2LHiS1rIB+5DjeOBzwMaJ5O25VuBSlnJ5kFPS0qhZd0f4HbBX6FLWYznC3Si/Zz7/ZJz4GLG8bpO0lo04A+UnwOAEMp5PQa5OII9JgDX0ShLpxZDoVrMO4HaEG6hnCiIlp9FbdCs6+CzCZ4ADgEFO4/szgxynUy+zQheSOpHWARcD3yJdC+bW5jXgrygPIDxEQRZ7yxRpHcopCN8huRHE84ChmVsgaNbJGnoliad2tQBDAmR/DeVucjyMElGQF7v13XO0DysYDjSiNCI0AjuRrZ9RO96zq5q0gRy3ALuFLqWL2hGmUOJBaphGiajXDX6C1rAjYyhxLHAksKWTSrtGUQ6iQR5MMKfxLEtvlqYrmrURYSpQE7iSN4G5CG+j/BtY/c1P6UuObVG2AbYjfjPL8s/jLEqcRqPMDF1IZkzV/vThUuBrZG/IVQl4BmgCnkN5EeElaniZGt7iPToYKUsAiHQAypYoWyJsh5AH8sS7McLcdbJtahUpy2+gZl2KeinKd0KXUSVWIVxuV+W9EM8NuAnYMXQpVWI+K9mL0bI0dCHGLWvolUg1R8Q/EPYPXUpFE+6nna/Y6VQOxM/WzwF+RDILO6vVSqCRgjwRuhDjnjX0ShXpdkAR2Cx0KRXoLeBC8tyKiIYupqIUdTfgOpT9QpdSkYRvkpcrQpdh/LCGXsniSV0Pk969v1nTAVxLPDXP34pnA0U9DOVXwDahS6kgv6YgZ4UuwvhjDb3SNesZCDeFLqMCzKbEeTTKo6ELqRqRbobwE5TTyN6iubRpopUxjJIVoQsx/lhDrwaRngvY8IieWQB8kzwT7fZ6IM26C8IPgeNCl5JRM6jhUzYNrvJZQ68WkV5OPMzDdM1K4Bes5DJbDZwSkR4C/JQwcxayaiHtjGakvBy6EOOfNfRqEun3iad0mXVTlAnU8i07fSqFJmktG/IFhO8DW4QuJ+Weo4YD7Oe4elhDrzZF/RrKz7FnkmvzV0p8n0ZpDl2I6cRkHUhfzkO4ANg0dDkpNJsSB9Eor4cuxCTHGno1KupBKH8k/QecJKED4TY6+AmNMid0Maab4pP3Po9yCbBV6HJSQbiLWj7PMFkeuhSTLGvo1So++epu4nnp1UgR7gN+QF6KoYsxvTRZB9KPrwDfoHpnLyjKz3iBbyd+SpxJBWvo1WyabkQdN6AcH7qUBK0EbqfEVTZ3vQLN0Q15jzMRvgLsELqcBL0JnEFB/hq6EBOONXQDRT29/Fy9km/Bv4xwHcKvqZd/hy7GeKaao4WDUc4lPnq3ct/rhD/TwZfsebmp3B9y0z2z9CO0cSVwIpX0c6E8hnANS7mHsdIeuhwTQKS7AucCpwIbBq7GpVcRziUvd4cuxKRD5bxxGzdadAglvgccS3Z/PqYAd1LLRPaSV0IXY1IiXkB3IHAcyjHAgNAl9dAbCBfTj/EMldbQxZj0yOobtvEtPtLyAuBwsrHF7Q3gDpQ/0CBNoYsxKTdNt6CWzwEnAY2hy+mit1CupY2rGSXvhC7GpI81dLN+0/UT1HAWcAqwdehyPkCBmcAD5HiA55hiK3tNj0S6A3AoymcQ9gP6hy5pNUpEjvHUMt62opn1sYZuumaC1rADn0Y5FjgC2DxAFW8gTEJ5gBJ/t0VAxrmp2p++7IfyWeAgYJdAlcwA7qGG2xku8wLVYDLGGrrpvglawycYCYxB+CQwEhjkOMsS4vPcm1CaEZopyIuOcxizftN1U2ppQMu/hAZgSw+ZXgEeAybTwf2MkBc85DAVzhq6cWOabkMNu5FjZ5RtgW2J3/g2ZvVm30HcrAHagdeBF1FeJscrwIu08zKNLESklORvwZguadJtge0RtkPYBmVrKP/9f3/W61h9Rf0q4F3gHeBFhJdQFqA8hfAkBXkr0d+DMcYYY4wxxhhjjDHGGGOMMcYYY4wxxhhjjDHGGGOMMcYYY4wxxhhjjDHGGGOMMcYYY4wxxhhjjDHGGGOMMcYYY4wxxhhjjDHGGGOMMcYYY4wxxhhjjDHGGGOMMcYYY4wxxhhjjDHGGGOMMcYYY4wxxhhjjDHGGGOMMcYYY4wxxhhjjDHGGGOMMcYYY4wxxhhjjDHGGGOMMcYYY4wxxhhjjDHGGGOMMcYYY4wxxhhjjDHGGGOMMcYYY4wxxhhjjDHGGGPMh/x//aEXodQI6lAAAAAOZVhJZk1NACoAAAAIAAAAAAAAANJTkwAAAABJRU5ErkJggg==;fontColor=#000000;" vertex="1" parent="lr77hA5LthJ5V9N4e_WC-3">
          <mxGeometry x="54.5" y="351" width="97" height="97" as="geometry" />
        </mxCell>
        <mxCell id="lr77hA5LthJ5V9N4e_WC-21" style="edgeStyle=orthogonalEdgeStyle;rounded=0;orthogonalLoop=1;jettySize=auto;html=1;entryX=1;entryY=0.5;entryDx=0;entryDy=0;strokeColor=#000000;" edge="1" parent="lr77hA5LthJ5V9N4e_WC-3" source="lr77hA5LthJ5V9N4e_WC-6" target="lr77hA5LthJ5V9N4e_WC-10">
          <mxGeometry relative="1" as="geometry" />
        </mxCell>
        <mxCell id="lr77hA5LthJ5V9N4e_WC-24" value="" style="edgeStyle=orthogonalEdgeStyle;rounded=0;orthogonalLoop=1;jettySize=auto;html=1;strokeColor=#000000;" edge="1" parent="lr77hA5LthJ5V9N4e_WC-3" source="lr77hA5LthJ5V9N4e_WC-6" target="lr77hA5LthJ5V9N4e_WC-8">
          <mxGeometry relative="1" as="geometry">
            <Array as="points">
              <mxPoint x="424" y="336" />
              <mxPoint x="424" y="336" />
            </Array>
          </mxGeometry>
        </mxCell>
        <mxCell id="lr77hA5LthJ5V9N4e_WC-6" value="" style="shape=image;verticalLabelPosition=bottom;labelBackgroundColor=default;verticalAlign=top;aspect=fixed;imageAspect=0;image=data:image/png,iVBORw0KGgoAAAANSUhEUgAAAWsAAAFrCAYAAAAXRqh4AAB1YUlEQVR42ux9CViUZ5Y1Pf/MdM9MT0/P0tOz7z3TnT0xiTFKVaHZ904n6U5i1LgLVeW+JO7GPTGJSTRmMSYmmoSdqmKTVXBFREVBxAVUBFlk37f7v+fWVwQQEJClqrgnz32IiFB89b3nu+99zz3Xw0MgEAgEAoHAgzx+ZAob/jPvUMM/+ISO/vdZQYb/MAV73mIMNdxrshgeMFsMo8xWrzEmm9eTJpvueaPF63ccVsN0k0W/zGgzrDZbdevU/69xhNlqWGGyGt4xW/W+Jqs+xmTVRXQWZpt+j/qaIJNNv0P9/7v4fm2/l34DPhot+tnq78YabfoXHa9B/dwnjCFeIxF4rbNsut8YLbr/9A4x/I8xZOQ/TbUO+/Plyz3+SN5kgUDg0piaPOxPzJaR/2ayeOkVIb6syM/HaNXNBEGaLfqv1ecCQKiKAA8pMs1SpFqiolyLShVVKqo7CMfna1XUdSPwdTWdfC9H4OdVtPr5iEz1Wq3qNdrUa/c3WvVrTTbDLKPFsEh9btxMi/4+kPfUqIf+St5tgUDgtJgX+chfgKx8LJ73IDtW2fBzKlOerAhujiLl5Zy12gzbFOn5qYhScUDFYRUZKvJUXNNIskkFOWmUacR9TZF1uvb6U1TEqgfMbvXxU5NF9x5n7DbdQpWBT+DrEGp4DNm4T+io/50V4fmP2GHIHSMQCPqthPGi74v/DxmyKezxH8/2HfFnIOjZESP+hksBNq9HTVaDUZHSevXxG63kcFYjYBqC0aAIPA3XAZm4yr4/VA+veWabbrzJ6nm/KczzF96+hp/iOk6IM/xkue8tf4pry6UUIXOBQHAzZG0KM/wLMkR7DVdlzDbd261KGNEqkpEpq6wzR30sVtE4RInaEXXadbiqrsl5Fcewo1AfQ1V8CwJXf56PDJyz7xDd3bOCDD+Xm00gENwQyO5Qd8UhoCls9H/7WLxu5UM1q+EFRTALVJb4MdeWFfkIGfdJXFRxkMtDFt17KqaBuGeFGu5qObxU7weyb7k7BQJBC1BTNVoNBpCG0aL/QJFICGfMakuv/v+CilwtW6wRou2z7Bt18EJtR5Kp4qRd2aLfarbpTSq8QNyiNhEIhigWhIz8S5DAzFCv4WaL17M4EMRhoCKJr1QkYvsuZDqoUcjqGKt+p/2AVj9De59GQfI412r4O7mLBQI3Bxa6j1U/ArVnrjvbM+cCk0Vfqh0K1vAhmVXfLKQ5iIeUdqlhpaZEKVBxGrsd9Z6tgvYbB5VyNwsEbgTUoFHeQLOHIug3TFbDR5qM7igyOCFGlwpowE/joBKHlEabfqnJpptotOgfxzkDlCVyxwsELgBI7LBgHfI6dNupTOw1dO5pumCpN7tfBp5h7840zELjkaOrEjLL5XGGPxY5oEDghMDWmLNoi97bbDW8z4vY3oRySevQE4Jzv6hXka89jCNVbId6x94ur/tPWRUCgRMAsq7pgQ/+Pbw2uA5t00012wyfqwV7XEhsCIdNn2VvkdfPR9MSDpOh9kEzjihLBILByKSDPW9RC9KMbErT7GZqWVaVkJY05WheK6dUWMwW3WL1Z0+UyGTlCAT9DHS5zQzx+j+TzfAQDpbgIKf5VJQLQUncIE7h7AImWj4Ww1PomoQDIte1BQJB3wGHRmiSMFkNSxRR79MMkMo1iZd0FEp0Fc1atl2hKYCSoApC2Uzq2gJBXxB01EN/BfMfo1X/usqKVmrezVKPluiLyFaRwBJAq2E6HBNnhoz5paw6gaA7II8fwaMDB4fwgIbNJlqPNT8OIRiJ/opimHJB5jnLNuq/UNeGBFQOIwWCLmC2eQ3D9lQtoM9U1hOv+XJImUOiv+Mql9fs/tzzjRbdaDGREghaAc0LaAG3j4vSPw77UZXlHBHykBjEuGC26r/AeDPH4AScmQzF9YldBsqR0h0q8MABj92YXr9Ta2C5qB0ECWlIDFbg0DqXfbjhWW7TzTWG6m4fkuvTavg1tOroDBW2GooHh9wOPPq/1YJ4GsY8dgN/XiBCFBJOF/bhCYZ3zBbdSzNDPO/wCRzzt0NinSYP+xP74at+FzqDhbmG4tMaU71t+je1RpYyzbOjSYhBwollfxhkfA7zJqHThveMux/2Y0KSfbKPvhw2wsJcQ6X2FTHib3Bogye1VvJIERtSCRfMsjEoIQT+5yp+jx2ie54lef4C/iqaNS2Zrbp1sHZAti1s5qZPZ3SIwaYU5vEgaZHhSbhJYDeYhIk27PTnZkN/ebixzbBN21E0IMNGKQSHjUJsbgioPMxW/W95xp5VH6XisixyCTeKak25tJ1nSFp1v3KXtYv6vDaYo1GzokXJcgqya2E2NzqUAEnDe4H10hZ9uPZmy+KWcOc4ycMQrLpHIPWDJNUV1y884ZE9G22G1a3KlE12Hbphmzs9kIY80LKrTWXZpYg6VfPwkMUs4e4Bp8ezPMPTpluITkhXXL+wkTWGeI3UDhYb2h6y6uJ9LJ73CMu5MFCrw8mxNtvwDc0EXqR4EkMzOEnRvWUONTzGzn4u1FACmwez1bBCm8DTcF2zkEX3EjcIyQQe182mTRbDBG22Yb426FSkeBJD+fCxiJMWm36GKzn7oXxpn3HJcsX2aq2L6kG0DMMcUC4R5nOlE+Mwz19g0jRkPUaLfq/4SktIXDcE4aDdjMzwHLJWZ94do9aOkXhdKLYKUN6EVbG0n7sCNGe8BSEj/xLeCdpTWEhaQqLLYFOyKSgX8uGjk5URUNpAs49mQ1zYye+Bdb4f7oRicuUqGTVrMLkDMU7b7slilJDoOso4y2YZq+EFU9jwnzkbWaPEoTX91HcxnLgQXyf2sU4Mx3Bak8VLr96wTaKZlpDorWpEZ0P3I8oOztC2jrXNCZhVH9bN32EnuEAI20nBFqZW/QJ1o0VoRF0vC09ColdxDc00PENUJT+Dv1P2utNkMazXpIfdef2RsI5wtt3BkAcaXKC7VDfXGvUmnZCFJiHRdwMP4Jttsnk9CV32YA3v5bF5dg+Qmm43AFkMi+D1LQzpLHWs5GF/wpOgrYbvtGy6RsyXJCT6LOpVElRqz1T13jh8HOg1juECiqzXan0R3ZXbXrK32A/+rkDgoZmO25+4QTyjThaWhER/DjtI5HZ1m94TBDogRA0nTJvuGfWzY9q+HgP5WEbR9OAHyDtkZGfdmqdMVt2rwpSDKMuDfnJmiNf/oWVWyh4SEgMaV1SS9CUy1hYXv35c63gwaLvm/PavxawI22zz4o+dvNZGlELkkHGwDhGDDD+3TxQ3fGSfjiEt4xISAxyXVKIUrNagsd/KIlqvBAYKKMLOMrUMpEZG7UnTgofTwoinaGPCVFoe/RJn2YjrXissVDHxyUVNq1wSyKbZKQ/6T3vZo1IWjYTEoA45SDdbdT7wgu/rBhRoqlXWPEz9nK/an0GBrGeEjKAPDsyi6HPf0vbkZeSNkoj6XAeNPhHqwfI8uENYdIDgHaz7V9wYmp1pgSwWCQkn0GNrhlA4P+rL9T7DNuqvtaa2C+2JGh9nhz5EIenbqKgqlyIyd9IMy0iaGnw/DKraPlAsukMYvgCzKmHR/s6o4wx/bAr2vEVl1Es0E3VZJBISTjdGDMN6DaNuOoMljx+h1AmpoMqI97WyP1U/R0eTA4fRvPDH6OPD8+nCtZMEHM/dS0uinue/9wkZhddzfY09RHe3sGl/i+HDDP8CEyZ207KXPkSWJyHhbPI+uxprJwYb3IxShKW4Vv0I9X0+1OR3LeoPkPE4v1tpafQLFJ/lT/WNtUzW6QWHaevheVzDnh48oiX71gIWqodl8nk/AjUws9VrDHdQWfVnZEFISDh9QLHhx+O2wjx/0Suyjnror9T3mK+t+YYfyh+jWsog25IWUnbpaXIgp/wcWU5/QitjX6HJQfdy/bq9Ex8kfKIK6afDRPgAqIzaXxaAhIRrhdmqt2L4dG9mIWLKS0frHnpq1KnX751IUed2U0lNQQtZl9Veo6TLe+jtxGk0KfAeRdbX6a6rMHAEmu3B6sB039KHzetJ7Q0rlJtfQsLlosiuwtDP6Im0z8fidas2uPpC++85MfBumhf2KPmf2ky5FReooam+hazx//kVl2jb4YX0esCdNCPkwes8u802w+czQ72GwzZZGPYmgakO7Jhn03tqs9XkppeQcO1INFoN0+HPwWO2ulj7mKuovt6sWUY0tpQ/rJ5cq0a2vCFhEh3LjaOO0NjUQL4n3+Ov5YPGtnVr1NT34+EBmaGw7U0fJA7/GQzDFVEHqgubJze6hISLh0VfytI5q36DMdRwb1drX+tU/MZkn1zTqvwxgmPxnt/S96nv0qXSjE7Iup6iz++mlbEv0+zQh9tn1yD/q7BNFgnfzYjf0aVk1f1KbZvGmexDbOUml5Bwr7hotzf1uhMZ9HVkHaK722w1vH/9qC4dE7UifPr8yBI6XXCEKuvLOiXrU/kHaPvRZbQo4hmaEnRv65/vUJCFzQo13CWsexPSPG37kyTSPAkJt5X2ZUCON9Oiv689BxhthrHohmztP28vZYzicsYbkc9yp2JdYw01NTd1SNZNzY2UW5FFlvRPaWnUCzQx4K6OXkcKpIUOPbewbw/E78iojRb9bK4nyQ0tIeHeYff42IQ2cgcNzAzV6bSZig2tDZrgpIfDwsV7nufyR07ZWeoKzeq/moYqOp4bT2vjxtME/zs6eg3Z6GbE2ZhMPu+JRCd09L+zEYxVlyw3soTEkIkL6HbEuDCfwDF/q/68VVN9Nbb+OgdZbz00n85fS+XMuTu4UnaOPjgwkzsdHRl6q++bqxLEj9FpifKrsHAPSh84fFAfq+UGlpAYMoHhAZj4skkb03WmfZ0ajnpmqxd3Kkad3UXV9eXUXcArZOex1TQrdAxn6O2c+IohKUTTjpB1N+R58KFmQyZ7jVpuXgmJoVvH7mBEl44PB5dFv0RB6VvpclkmFzm6i5KafIo6t4vWxI+nmbYxND3kgdbfHz/vLAyiupISChytpBbdNI2oy+WGlZCQaO2oZ2Syvo/e3edD6QVJVNtQRT1BZV0pHcuNp62H56vs+iG7E1/brL5KkfUOuPoJI3cCFPWNNv2L6skZLTemhIRE+5gaPFxlw6Np3d7XKfb891RTX0k9RX1TLRVUXqaAtA+ZrF/vWBUSZ7YZbpPW807A08etej/JqCUkJDoKtJQviHiCws58QaW1RZ3K9G6kCkH7Ocgedetxfrd19LMOqHhasut2mBf5yF/4hOgfxtbD7hkgN6WEhMQPMr1pIQ/Q1KD7ab4i6q+PraGLJel0sziRl0Cr48bSDDTVaC3orX5uBg/+Dfa8RRhaA9zzkFGLe56EhETn5Y/7uT38syOLKbPoGFXXV9w0WV8oPsmqELSpoxbezjY1H9puo83rUWFpDWab7kGt9HFVbkoJCYnWGTVkdZMD7+UJ5RsSJtO+ixaqbqikvkBeRRaXU9bGTyDvkFHtvUIwZPskOidFRx32+I9hPs5aSrkxJSQk2oXDGQ8kCh/q6PPfUn7lZeoroOZ99EoMfXRwDv8M+GG3ew1lZoth3pDvZLRrqQ0r7H4AcmNKSEi0jWlMngZaGvU7Cjm9ja5WZLeM6eoL1DfVUW75Bfrq2GqaGnQfywHbvYZGdFKii3Lo+n1YRv4bpjKY2sxPk5CQkLBn1HDRA3kujXqRhwlk98GBYkeAKsSWsV2zWh3e/pARXiXfYyLVzcyMdGnlB7oTtTbySrk5JSQk2nh+aE56KE18cGAWZRQeYTe9/gBkfHsvBNDiqOe1pptRbQjbbNPvUX/+fW/Gj7l804vJpnteXYSo1laHEhISEo6MenrICFoQ8SR9fHgBJV2OZKe8/sTx3L30/n4TzQt/XD0gRlwv4bPq1xqthl8PnTZy+wCBJzSrwwKTeFJLSEi0byVXZI0Oxff2G5lE4aTX3APfj97gbNFx+ub4eloS9Ts2iGoz7suiL1UJZrCPVT9iyGip4U8L60GTfRS93JwSEhJtYnLQvWxbujFxKh24aKPy2mIaCBRV51HcBT9aGzeBJqmfDxlfa68QbTrN0+5P1Ms9/gg99maLfpX6hTPlppSQkGjvome3KTVwdhuRuZMq68pooFDfWKey62PscT0x4G72yW73GmthLsc+Ie48PQZZtdpGTITA3CS+1BISEu0C7d7jA+6gt+LG0p5z31BeeRY1NzcPGFmjzFJSXcjdkRhm4N22OQZRZ7Lol2EYAvjMLYkaJiiYZ4aaj9yUEhIS7Q8U0Ygy0+ZFy2P+QOGZX1FpbSENBhqbGjUXvtEtqpC23YyGb4wW3WhYOLslWaMob7bqd5nsI3nkBpWQkGhzoIg5iMujX6K4899TcfVV1j0PBhqa6mhvVgCtT5hIc8Mebd/NCOXafqPVMB3ZtdvVqdGhqLYOa9QvmSs3poSEROvApBdk1qvjXqMIlVFfq8qlwURjcz2lFRykHSkreVJ6u25GDCTIN1r0H6js+j/dzPfD8xf2ieQ86LZWbk4JCQlH6YNd9BQZLol+nqLOfkNltUXU2NQwqGQNieDl0kwKTt/Kcx0nBd7T+nVDZtxstOoD3coy1dvX8FPYCmLopAnjceQGlZCQ0IjaIc9bGz+eIs9+zYeJzoBmaqKq+nJKzA6m5TG/p/H+HQ4kOGiyGB5wGyc9nvZiM2wz8ZRguUElJCTs8jyj1ZOtTiHPg4NeX3hS96UiBDhdkETrEybRhIA7Ovo9MkwW/cusCHF1CR9OSs0W3WL1S2XbHavkJpWQkIPEUXxgh6x6gyJCTBa/WnGRnBEohWw9tMDubW1Tr93q2fp3uYjpMWar7lcuPZuRZXrw/bDp9skNKiEhYbR4aoZMI2hB+JP0zr7pFHfBl2vUzoprVXnkd3IzvbHnOd4FzLC0aZAphF2Gj8XwlEvrraFB1EZzFciNKiEhAZK2m/qPoPf2GelYbrwi6muDfpjYFUpqCmjP2V20Ln4ia67bSfjKOBlFk1/Y4z92zQ7FMMO/mCyG9Wx6IjephMQQDvsoLjjneausdGn0i/Rp0pt0JGcPa5mdHdX15ZSef5i+SF5Bs0Mfai/hq2cJn82w2iUza2PIyH8yWnWvqF8iVpz0JCQk4K0BM6Q39zxHO1NW86HdQLjn9dUwgqLKK2RJ/4TmhD3SXsLnkPFthy+/S3Ypqqfpd+oXKJIbVUJiaAaG24KkJwXczaUDjOIKOPUBZRalUE0fDbgdKFUIjJ32ZYfQrNAxNK5jCV/IrCDDf7gMSWOIpHrBP8dASZNMJpeQGPKHiUbNBxpdid+lvk2XSs+QqyI1L5EWRjxFEwLu7Oj3TTBbvcZMiDP8xDVketZhf2606l/X1B/SpSghMWQPEh+ksb6/5v/fcng+7b9ooZyyzH4bxTUQyCw6ShsTp/AwBHu0kfClqM9Nmm0d/c8ucahoDDXca7bqraKnlpAYmt2IkOWh9AGJ2/zwJ+jz5KWUnBvjUmWPznCpNIO+ObaWlux5ng9MvdtK+LJNVt2Hzt/NSB4/sh8qGqarzDpdDhUlJIau4gOt429EPsMTyC+WnqbyumJqam5yebJG005oxnZaGzeeH0gzWntcW/Sl9kG6huecf5aiRfeSyT70VoYJSEgMoUNEZNOYUwjymhf+GG3aN4NJDZmoO6G89hol50TTRwfn2LXiIW301qgm5Botem+nJmv4uaoX+qn2giWrlpAYUq3jnjRdkfX8iCd4DFZyThTXppvdIJtuO+qrhrKK0+jLo6t4B4EH1HUSPot+mfM66oUa/sFo1f3eaNEdkhtXQmLomDBh1NV4v9s4y1wdN46nqtg7EovIHYGHD+ZA+p/6gCYHDePooBz00fTAB/8eyjjna4CB9alN/71JBgpISAyZg0R8xOgtn5BRtG7vRAo7s4PyKrJpKCAy82t+UE1t28noCD/Fh54LQkb+pfNZoNoMs9QLvGLCAEm5kSUk3Lo+jSza4T+9KPIZ+uLocjp6JYZyyy+4ROt4XwDNMUuinifHBHajpc11ijXaDGMhuHAakkZrJaR66NyRG1lCws3bxTVLU+iL39jzLL2dOI0CTn1E566doKGG1Lx99PHh+dwgY78mbfTWGWarbt3MEM87nCejDva8xWzTv6te3CW5mSUk3LvsMTX4fnrN9xaaG/YYfXn0LUrJjeNhtrUNVUOOrPGA+jb1bVoW9SJNC7q//dTzApNNvxsDV5xCUw2TbUj1NE213NASEm54gGiXp41gO9MFKovcmDCFgtK2sANdfVMtDVUUVl2h2PPf07r4CVwO8mnbHAMXviRzqOExp9BUcwOMTb/UJGO6JCTc2nsaW/xZtjG0LWkRS/KgNa5vqqPm5uYhS9YYPXYiN4HeTZxBEwPu5gaZNvI9mz4LQ1ecYkwXZo6pFxUnbeUSEu7TgWjUsukpQfeyZzMaXNAAYs34jC1NIVsTEHdjFlRepi0H59JY31v4odbmWsLD36afwWO+Bm0uo/rBqFWrF7JDGyogZC0h4RYOeXY5ntlmoDlhD/OAgO3JS+nw5QiqqCsVhr6uQaaWvkxZRRP872yfWSOqjVb92pkhY36JSsSgEDWE3kaL/nGtAaZZuhUlJFz/8BDZ9AT/2zmjnh/+OH2avJgSsoPofPEJHmkl6HggAer3eLCZNV+UVte11mzVfwG1nLev4aeD4lXtEzrqf9WL2KBeTL7c6BISrt0iDjkeSAajqiBDeydxOu06vo5OXE0cMprp3mfWdRR/wY/W7X2d5oY9woewra4vek5ioLdGN+PgOOvZR3UdVFEpN7yEhOuWPKYFP8DjqaYG3U/Lol+k71I30cmr+yi3/DxV1pe5xLitwc2s67hEtHm/ma1g2/mENKg4ZbLpFnoH6/51UMyazDb9FvUiaqT8ISHhegRtnyo+nN3i5oU/TusTJvEQ2Ohz31J2yWlh4B4A09gzi46pncgGnis5OfDe1te7yX7IaNhmChv93wM+AQYja0xWXYQQtYSE69amUfaYGTqGPjg4k2LP+9KVsvN8WAbykWy6J4qQRsqvvERhZ75UO5OXaGLAXW3le3YHvoBZNt1vBpSs0TppshreMfE0BLnxJSRco0V8JHcevq6IBM0tb+55lj5NepNsGdvpeF48FVTmCOv21oGPmrh78+ClUFoZ8wqN73iI7n6zTffgwI3rWu7xRzxX0aJPNclcRQkJ1wmbgadxzwp9iFbFvUpfH1tDJ68e4MMxwc2StX0Xcir/IK3d+7oi69s72M3o09EcAw7td701fshcq+Hv1A/eqKJKFoCEhHNn0lMC71OZ9J00wf8OluGhqcWW8TmdyEukSyUZ0tjSx7hYcpo2HzCzE6G5lV5di3MYdTjDNuqvmbD7E7MjRvwNetwxW0wWg4SE89WhfVh+N5KJGkNq4eGxMvZlWr93Iu06vp4OX4qgkmrRSvcX0MmI5hi05ENv7d1Wb33ZZDGsRxmZuxn7E9BVm2z6leqHZsrikJBwrtZwEAOkd5MD76GJgXezwuOTI2/Q3qwASlPb8/yKS1ReW0yNTfXCqv2Eoqor5J/2AS3e81sexuDdeoiuVZ+vsu1dGNCy3PeWP+1fG1Sr7hH1AxNNMgRXQmLQXfDQyDKDJ5Tczz7KIIc3I5+ldXsn0NakBRSU/jEdz9vL08QFAwN0eEL6uGHvJPV+jOH3pdX7Vq7igNGimzQhzvCTfiVrs003lf1ZRa4nIeEEWmlPe1066D7ecq+M+QNvweMu+NHlsrM8pBZt0E08qFZkeAMBPBjRHIOzARzk4kHa6j2rsdet9Qtm+474s36bAoM6i9mq+9gk47okJAalHRwtzCBm2HDCtwPKjrXx42lb0kIKOb2N9mUH05nCZPZXFgwOahqq6Py1VD4fmB32ML9PbZpjrPoKbiYMe/zH/XOwaB39z9psxSSR60lIDOyhIbvfqcx5pm00EzS8J5bseZ7eP2Ci0IztlFGQpEiiUpjSSToZcYAbmvEFzVHvE1r4O3hfg2At3T/lD8vIf1M/YKeKEu3pIAtJQqLfatH2+YaYOjLO71aW3kECtjpuLGfRlozP6MBFG6UrksZg2qr6cmFJJ9Jbwydk74UAzqwhmezgfY6EWKPv/apVum6yeOnVD0iRhSQh0bdZM+rOIGfUnnFY6PBCnhf2GCsKYKq0IWEyfXZkMUVmfsUOeGW114QVnRyY8L4w8inuFu3gvU+EtTRsO/rUBtUUZvgXdVPNRGFcFpiERN9qojFVBIdQ2C6P97tNfRzGpY6NCVPp2xNvs+zudOERyik/R8XV+eyA19jcIGzo5EBn6IrYP3B7v/2h3Lo5RpdstunGwwyv7zoW4wx/bLIZHoIBifoh12SRSUj03N2OM2eVMcOPA9aZIOdpwXaVAOw0l8f8njYmTqH39hvp8yNLye/k+5SQFUxnrx2niroSYT4XxNmi4/T+AaN68I5ueTC3ui8yFKcuM9sMt/Wdrjrs8R+rdN1bffPToq2WkLh5sp4aNJymqfC2PEhvRD5L7+830fcn36X9lyycQcNMCWOzahuqeRAt3NwErofs4jT64uhy9R4/Yx/s0HbU10WT1fCRj1U/om/by3/wrJaDRQmJDnTOP2TM9/GhIKR1sMhEaQN/Pz/8MdZAv7vPh7YdXkTfndhE4Zk7KCE7mJtWskvSqbS2SMobbgQc/Aanb6W3YseST8gomhHcppMRVYoQk83ryT4zbVJPhHuMVn2oLEwJiR/UGq3bvOG/wZI62xgehzUn9GH18WFu9X5jz7O0du8ERdALyP/UZkrMCqZTVw/Stao8YTM3R1FVLsWd9+PRaLyrajvmCwN0j5kt+tf6TFutWaEekQUq4da+GtrUFBz24SNGXCFLnuLIlAPtmTIkdJDSIcb738FfO09lzatiXlaLchpnzWiGCEzbQrHnv6eky3so9eo+yiw8SpdKz/ACrqwrpeZm6SZ0d8CDJTknhrYcnKPdU8PbN8eUmK36OX3UWq73UjfyN4qwc2RBSwxGBmvsKix2b4zOY1SH4a3Vjx2BhYRyhiMzRswNe5QWRDzJQ2NRV14S9TwtjXqBJ4DAWH5t3Hhav3cSfXRoDu1MWU2W059wFpWSG0cXik+x81qTlDSGNHDmgHthx9EVdv+W4Ps68rde2ydWqZCW8KmltJdLDJKszZuz3evDvq38Ifud2ibub8mIJ2kZsT3u5njdH9nxbS3xqu//cdazeM/zKkN+hVbE/J42qa3rZ0mLaXvyUvruxDsUeuYLijn3HSVkBbJ73eXSTPbeQF0yXxHzteqrVFZTxN7QWKQyCVzQ3Nyk7os8+jb1Hb5XcU+2v89VQvyut6/hpzevArHqlpvsU3mFQCRuqHZoyVw5Wx3REvbDtwfsB3DB9/NHh3wNvgltYxgfyjm2jKj/orUama794yPqc4/w5xdFPqOy3JdpVewr/BGxIuYPHG/FjaV1eydyvRByuPf2Gendfd4cyIa3Jy9riU+S3qRvjq+jsIwdFHV2N+05+zXtz7bQidwEnu597toJulpxkTXOIqMT9AT1TbUUlL6VibqTtvPt3iGG/+m1tzXScoxLV99oq7jrSfQFWU/XyLp1dEbWyIJRxkD33tr4CWw1uXHvZP6IWBf/OpchUB/2P/UBLwZ8RPid2ky+J98nS8anFHvBl5JyIrnj70ReAh3LjaOUKzG8NUXduHVU1ZdRdUMlm/DAYwPZMRzrMDgWWTL8HhqbG0VGJ+hZdq3+w1Qe3Ns49+hg/fhxd3jY8J/1Wq6nvsnTJos+XMho6Pok/9DE4Sg33KuVFu7hUgICZQV8HTJfjIxCIMPdmDBFEetkbpNGdrvl0FzOYr9IXk6fJy/l1umdx1ZTUNoWCknf1iaC0rayCQ5sPg9cCqVDl8LpsIpDWmAgKXwxUvP2UVZxGl0szeCPjgAZXy7LpMKqHCpXmTATcH0l+2dUyQgrwQAj/kIALYx4ktcJ1lW79RZjtBnGQszRu2kwFq9bjTbd21q9WshrCMrSzK0laaE/SNLgIoaYG/ood94tinya1sSPp62H59EnSYs4QMDxF/wp9tz3FHvel+VqUERgNh1qvdAUw0ISh3ACgbvj6JVYLr9BNWQ/zG4zkzHFaDEsMloNv+7tweKDcIWC76qQl/se4DkO6Rz1NLiDjfO7heVpUExADQGXt02JM1QmvIR2H99Ific3c+YLMj6Ss4eSc6I5wz1TeJQyi1I4ckrPclYLMkY3HuRqqPU6ygr4WKuyXSkpCIYCTl7dT9uSFvAZC7TWrbNro1V/3mjRf6ASo2G9tEP1elZ9o2whNXdzdrN324Gk8WdkzShfQJ725p7naFnUS6wX3pAwRWXK8/nQLfTMdibm1Lz9XGKA+qFQEbBAIOgekMjsPPYWLY36HZ/VtCuFXDNbdf4zQ3W63s5ZHKf5VgvZucHhn7c2ow/15gn+t9NrKnvGnzH1en38RK4hI2NOyAriLJlrvqWZlFeexcM/S+D0VlfKtV/7mCiRpQkE3cX54pPs/QKzLqy7doZO1YpvI8xWrzE9IumpycP+ZGbImF9q08tFW+3ClpuOQ0EcEKLevDT6BVZWwDRo66H59PWxtWTN+IwJ+lT+Qe6uq66XSSMCQV8jryKbIs9+o9bf63xI346sm41WfbrRpnumR2Q9K8jwc5WJjTZb9F/L6C5XJ2u7NM5sG01r4sbR18fX8g2Tln+YM+bKuhJFzhV2ZzeWpzmGqgoEgr5ESU0hHbwUTpsSvVuMvdqt3WKTRf9yj8jaGDLyn+xDBnTJ6hvUCwE6v7xuesgD/LSeFHA3nzSjtLFu7+v0wcHZtOv4BgrP/IplbmeKUtQT/qIiZilhCAQDCUhGU67E8a62E7KuMVl003pE1uik0RphClU0CiE6vwGRyWYfoopSB2pi25IWKYL+kpKvxFBRtTi7CQSDDZz1wKLggwOzW/oS2q3lShXze9TFODPE6//UP4rSWsylc9GZSFl9RIkD00UgrUMmjcNDaJxRf0aLNEyEMFkkv+ISO34JBILBBySqRZVX6PMjS2ic3+28A263xqvMVsMKTDvHGMVutZibLYZRJps+TcjRyfTQkNspokajCkzsoddEu/XHhxZQ+Jkv2bsCLdICgcA5AQXVN8fW0fiOyRqDXbZixNcNB+iCqPFFKHKrf3RGSHLww8wey56s5kCzyoSAO7iTcPN+I3cIwucCHYFoOAFRw4NAIBA4JyB5xRlSSxnE0ma9Q8wR4mMxPAWrjxsOxZ1lG/VfmmTvopDlYOuiR3JXoX0c1OO0KvZV+vDgbPoudRP7YuSUnZW7XyBoX25ocl6jrbqGGgpM30IzbV4t4oBW6x5ijkSTTTcR0umuydr3lj9FB40i6x3qH10V0hxcskY2jbr07LCH+AQ5LstPEfQ59krGE7qxqV4yaYGgFbAeauqrWIpKTrg2II+NOreLlkW/wDvkdqWQekXU+9THKd6hhn/ojnf1K8zuVn2ZkObABp6yDrN8/P/K2JfZECmsRdWRK6tRIOiMpBuq2E0RfjMNLE11RrKuo71ZAey1MyfsYU7IWnFAg900z7DEbBn5b11bovqO+DNIR7QSiDTDDAphj2L5HUzzA9I+oPPFqZI9CwQ3Kn00N1J+5SXKLTvP2auzAmSNgRbwY4cfDwzUWq1/yKSLFFl/ZAob/d83bDNXX7xZO5VsEvLs/0A92uEPDaKG/3Ng2kd0+HI4XSrN4HKHQCDoGo3NDZzYnC48wpm1swIdwhiA8fHhhWycNrXtiK8mTWv9mdmq+1XnTE0ePzKFef7CbNX7CokOVEu4J5lsensjS/RLtHm/mY32ocUUCATdR53Kpo/nxdOhnAiqrHfewRI4Z0IX8VfH1vAAZiRq7ci6TnHC97Nsut90ytUT4gw/8bHqR8hUmIGpTeNgAYeHLMM7YObRU3DlKqkp4KevQCDoPiBb3X/RSjHnv6fy2mtOTdbpBYdp+9EV3CfRjqxJa0JMnBnieUcXXYtjfqlNMT8ghNo/3Yc+ml56huVBrletjnuNdp/YSIcuh1NpbZGsOIGgV1l1Dfur770QwNOIKpy4a7epqYGyS07zfNDFe57n8ud1XGHRp8606O/rfIRX6Kj/NVsM89QXHxdi7Z/mFrtu+n7+M2YSRp/7lgqrrlB1QwXX3AQCQc+Bg8WUvDjan22ltPxDVFNf4bSvtbm5icpUYoYxdytiXla767s64ovjxhCvkZ3L9iyGB7TDxXNCrn0bXPLwv5Mza6g8dh1fz00tMmlFILh5HM2NoZ3H1tDhyxF0rfoqlxqcmaxhSbwvO4Sb3FAKvf48S5+uduIvQJ2HrvLrR3iFGh7DWBlphumfBpepQcNpTfw4Cj3zBV2tvCgrTCDoI/ILOf0JZ6kwMHOF14tpSxj2sTL2lQ7JGgmz2aY3TQ988O87dOAzWnW/1+rVlUKwfaOXhvn/xMC7eeDs50eWUpJ68ueUnZcBsQJBH6C2sZqnr2Cgxuq4cZR6dZ/zkzU1sZlTUk4k77InBNzeMVlbdT5zrYa/65CsTTb9DPVFl0VfffPDAJBJo+QBSd6bkc/S12qLdrYoRVaXQNCHKKzKoYTsYPoseQl9cXQF2wI7P1nbG9ygCMF4vfH+t3ZUBjlvturnzLaO/mf0vnRA1rqFWjOMEO5NHSKOoqnB9/Oo+eUxL1FI+ifs51HtxIceAoErIrsknb49sZG2JS2ksDM7WBHiKsgqTqP1CZN4aDUSvHZcgqR5oylEdzcsQNo0w8AW1WjTvS2Ee5M2psEP0IyQkTQv/DE2XorI3MkDAAQCQd8CpUQc0r8V+ypPRUKjSZUTN8O0xxWVwG1QZD3W7zcdkfVVmOlh0jkOGVu4GhMJZgUZ/sNo0X8ixNt7skaNelLg3Txa6739PnwjwR1PGlwEgr4najS+wM8d6+2L5OUsh3OlQc+XSzNp/d6JNNa3Q7LON1kN36jPP9KGrFET8bF43Wq0Gr4U4u05SeMj+3qojBplj10n1rOEqLS2UFaVQNAPgLvesStxKikyktnmxV46rgaURvH6MYTAYT/RilsK2fbD5vVkW7K2DvtzdMuotHu3EHDvApOKF+/5Ld80l8rOSDYtEPQjCiovc68C1txbca9RYnawy/0OeeVZ9OmRN1mIYNa6m1txyjVF1lZorduM94LJtUq3X1VfECPE2/2MGgGSnhx4Ly2NfpG1nheKT1JDsxC1QNAfaG5uZvvT1LxEWhM3jqcnfZnyFp0pSna9B07FJdp9YgP/DpgaA2FC6ynnRqv+mCJro7ev4ac/NMNYdb8yW3SLpc28p455dh21I6POrchyqZqZQOBqaGxqoIulGfR96iZOlpbFvMTNJdeq81zud0H3sv+pD5g/7GQ9sjXH1EERYrTpl5rChv+sDVnzJ4Wsu5dV2ww0NXg4TfC/nZZE/44C0z+ic9eOs0WjQCDoz8y6iUfbLY1+gT013kmcTplFx6i+qc41yfrkZloc+VxHZF1rHwBjWNKGrI2hutvVU+p98QS5sWueQ57nY/XkJ2JA2od0qSxTOhIFgn4GCDmvwl7nfT3wLrYWRbNZaY1rHuSDrP1Ovs9Nc52Q9QWjxbCoDVlrHtYBKGoLId+g4cUyksYjo456nkJOb1NbstPcOipjtwSCfia3qis8uxBdf9PUzvaNyGcoLHOHNhjXNcna9+R7/Ht0QNY16GLkRsXWZM3TzK36KOle7DqmBt3PmfUbe57liwyiloxaIBgYHM/bS+8fMPFahLZ666F56nMJLrsG8fBpW7N+sP3gXChCNswKMvz8h5q1Te+lTTOvF1LuPKClxhgeDAs4W3ScM2qBQND/wMGi5fQnZLIZaJzfbWpn+zuyZXzO7eWuStY4FLVmfEYrY17mh8+MtlPO7WHT75gdMeJvfiiDWAxPqU9maeNkhJiv86IeycoPs9WLPj68gE7kJVJ1faWsIIFgAABPnTOFR9Xam0+Tg+6ll7//X3bYO567lwfjumoJEh2XCVmB9O4+bx7th9JOB2T9vU/gmL/9wcDJanhB/UW1EHPHMS34AXUxH6IPD86mg5ds3EIuEAgGBlnFp2jXsQ18EIe6LsqRWw/NV1l1lkv/XvC0TrkSS9sOL2R+mapNkGo33isANqmtfKwNz4mHdQeh2ZziImKwJQbaYpit1KkFgoEDrBtWxrzC6g/IZhdFPs1nRpgI48qoqCuho1ei6eNDC7pH1uiOMdoMY9VfVAhBtw0U/JFVL4t+Sd0cm3nOm0AgGBjgTOh88UnacXQVlyH/8N3/0JzQh+nTpDftpcgG1y5FgqyTc6J4l9AZWWNyVwtZq6z61yabbq76iyoh6Pblj+HqaX4ffX1sLRVU5siBokAwgICrnv+pD3kCODLqV31/TXPDHmXb4ar6cpfvFu4xWZsthlFmi36V1KzbWp3CCWt22MPqQs6l9PxDsnIEggFDsyLqYkVk0bQmbgKrsGDvgDLIqphXOKt2B/QmszaYLPo1QtZtZyeilfXtxGnqxthLNaL8EAgGDDBqwsgrGDQtjHiaPeJxdrQg4gmeYwqztCFJ1tBYG636tULWP5Q+kF0vUVsvy+nPqLSmQFaPQDCAqGmopPDML+nNPb9luezEwLv47AgDPfZftLrNmpTM+iYDWy3UyHxT36Xz106Ki55AMICoa6yh04VJ9NHBOaypRkaNc6MZIQ+yAqSoKpeamhqGKFmHeI002fQrhzpZoyZm1lrK306YRifz9vMTXiAQDBwyCpPp06TF3CmMXS5LZ4PvR3MI7Tn7jVsN9egxWaN70WzTvzvUyRo3Bnw/VsW+yqfNFbUlsnIEggEC2snLaq9RYNoWLn1MDxnBDTBowZ4T9gifH6Ve3e9Wv3NvyiDTVUa5S7PkG7Jk/XrAnTyp4fvUdymvIltkegLBAAKt11B/fHhgFvc3gKS9LaO4LPlW7FiyZnzO63JIk7V9QozOpk0mGILKD08Oo9WTVse9Rsdy42TlCAQDjDOFyfTJ4Tdorsqip4c8wIQNsp4ceA9tS1pIWcVpVNtYM8TJ2mpYocg6YqiS9Qx+ij/IRB2c/jG7eAkEgoEBrBtAWmFndnDDC2R6DvksPsLgKCh9Kx88uht6TNba4WLkUCVrHF7gtPnzZOg3T7mskblA4IpA80vcBX9at3ci16ihALF7x99Hc8MfpQ8OzlK73Xi3/N0ls+5hCQRbrXnhj9Ges1/LyhEIBhDIlmFzujFxCk0Jvo/VWEaLjpVZkwLvoZWxL1PsBT+6VpXnlhJaIeseEDUuzvzwJ/jpfSIvQVaPQDCAyCxKoa9SVrGj5RQtozby+tSx3cPbiVPp3LVUbRiu+43NE7LuAVljy/V2wlRKzA6mwsorsnoEggEAtNKYPxiY9pFKlh63nx0Fj2g5Q0IHMdrM/U6979YSWiHr7jTAQP2BzDpkOH117C3uinInsb1A4MworsmnfRctPCFlatBwTY2l47WJ8gcOFbclLeLdrjtPZBKy7kZMD36AZquLszr+NXXThMjqEQgGDM2UfCVaEbUPr8HJgfaWckcJBM1py2N+T3EX/LhJptFNWss7I+ujV2J4VKCQdSeBp/ebe55T26zNdKn0jGTVAsGA0HQzD4nddWI9J0zTgoa3cboEac8Pf4w+SXqTzl077rKzFSWz7sMY53crrYj5Az/VajBwU8yaBIJ+x9WKixSUtpWWRD3PB4hT4XBpM3CNGkQFCS0OFXGGhMED7g7sHFAOen+/iWbaxrR5eA15svaxerYcZnx0aC5dkQYYgaDf0djcwJNd9pzdRfPCHqOJWuPLD6Gze/Ooj/5qt+tOznpdAbV7+BCtjR+vyHo07zaErFt1K+JJjuGb1tOfufzATYHAFVBaU0gx531pQ8KUlka0Hw77dVwCQXa9POYl2pcdMmR8efBQCkrbQkujXlBk7cUt9l0OzB1KZA2pHm6Kr1LeorNFx6i6oUJWkkDQj0BGjenkIOqpWvZs1A4U7UOp0bU4jJZHv8RSvZyyzCFzbQorL7Nx3BsRT2tkPbKDzFrvOyTJeoL/HWzYZMvYrm6iMhksIBD0MzIKj9AXycvpjT3PtsmoHfNOpysCH+v7a54Cg691Rw+Qzsk6h/xOvk9vRj7bFVnv8gkc87d2i1SbYbX6ZJQ7kzU/zVXAdnGZ2mrhYFEgEPRnRl1BmWr3uvvERu4SxvqDR3XrOvUMbduPxhhYoA61YR9oxAs49QEt2fPbjsi6UUW5yaJ7b1aQ4edDxsgJ/h+INyKfZsOm89dOyGoSCPoRZ4tOMFEvj/59y2CP9oeKaDFHVvnl0VU8IHeoecgjs/Y/uVldg+c6ImvMF8hmC+uw4T8bMsMH8ETHSev6vZMo6txuLuwLBIL+QVF1HpcaMcvUJ2QUlz9A1ih7tCbrCQF3stve0SuxVF5XPOSu09XybNqRvJxmWr342vi0faCBjy8YLYZFLWSNsV5ItdVf1LjzyC7EZ0eW8NYM2mqBQNCXaGZv6oKqHNqbHUgbE6fSlMB7ed2Z2pC0nicygZzQwbj7xNtUUlM4JK/YlbKz9P5+I2vOHeXa9mStEuk3fsisLbrRZqtunTvPYJwafB+fRPuf+oBPp+VgUSDoY6pWawpS2NgLvmoHO5Elso7RXD+sRYM2Qu8u/ojJMKcLkqiusXZIXrPLpZn8UEOTnqktUZPGx2dUzG8h65mhOp12yFjtru56UIAsjHyK4rP8ZVUJBP2A4mq7OdPb+6ZxJ+JERcjInluXPhwH/ehWRAfx/mwLNTTWDdkO4pzSs7Q+YRKN9ftNR2RdpmK/SqYnefsafuqoWRtMFv0adyRr1MmmB4+g+RFP8HbjaK6oQASC/gBmKH58eKHKqL20oR7Xy9BwgIYGmAURT9H25GV0rui4IurmIXvNMEJwY8KUzsi6CA0xRpvumanWYX+uqUEMD5kshvXuSdb26cgrY1+hwLQPKbvktKwqgaAPUdtQpYj6KDeaQaLnqL92WI5UGfe04Ptpy6H5bH9aWVc6VItGbB6HEtDavRNonP9tHZF1voqdPiH6h2f7jvgze1OMTe9ltOrXuiNZ4ykOHwLUhfZftFJJdaGsLoGgj4Czn/PFqSyHddSm0T7eWa/DNM24KTxzJ1ufururXqdUra4bHlSJWUGcSL4ecGdH16zAZNPvNocaHvuBrC0j/81o0Xurv6x0O311yIP0mt8ttPmAmc63jAcSCAQ3T9SNlJZ/kL44upwWRjzFGXVHpQ/UrFH+gC3xgvAn6fMjS+lcUeqQvnYg6+r6ckrICuyKrK/PrLW69XPcLeN2ZD2KLwSe/DgAEQgEfVD6aKzmjBpEjS7EacEPdJpRY3sPsp4WdD9tOTiPTl494NbTX7pL1rCAxYCFFbEvd0bWV9S1+9BkMTwwIc7wkxayNlv1v1V/WeVuJRA81TEiKIAle2WyygSCPgBq1DggXKQyapQ2ZrRpI7++IQ2SPQz7sGV8zg58Q/lQkXclTQ089ARS4iVRv6PJatdx3bWz6bOgsZ5lG/VfU5OH/Ul7si5yt9Fdc8MeZc1nYnYQ1alsQCAQ9B6V9aU8kRzt4XweFHCXJsfrfB3igH9p9Av0feomLkUKiBqb6ulU/kH67MhS9cB7mg9eO7h2Z1GehonT8jjDH7cia90T+Eu3aoRRFwA1Msw3O563l+qHkJuXQNAfAFGj5jw37BHNc2dkl+ZpDlvid/d7K3I6wMoRgX26+6mrB7ijujOyVg/A8yabYdbMkDG/bEPW6GJUX3BARYPbeFerrcUbkc/RdyfeoaySdBbfCwSCngMkC5nZlymraI4i6gn+t3dgzNQ+o76Pv2ZV7KsUc/5bqhiyMr2OyLqOjlyO5N4POA5O62BCjIrT6oH3e3Qvvuj74v/7IbO2GEapvwxzp0NGbNEWRz3P1ov5lZfdekqyQNCfyFbJDmrUWi21veFQh/G6/500J/RhCjj1IRWo9Vc/RFvKOwKuRdwFX/Uge4Vmq2s0o6MJMVZ9ykyL/j4P8viRR2sYQw33QiaiIs9dyHq832080v7QpXDODGQorkDQM7SW5y2IeKJTeV770Xk4VARRo6MxLf8Q5A9yMVsBAxZCz3zB15StUTu+pidmhnje4dEeZpvhNs1575w7TTBfHf8anSlIlrtDIOhp6aOdPG96SFfyvNYH+3b1BwZSY5xXaY00onVE1gFpH7GsEbV9nzZmVxzNKg6bQnR3X0fWM0O8/k8bQnDKbTJr/9vZK/dC8Sm5OwSCHsIhz1vYIs978AbWDjq7J0jISD40Cz/zJZXUFEj5sQPgmnx74u2WnUo7a9QmFRVGq/5bo9Xw6+vI2jtY968YQgCXJ9cf4eXZ8oT/8OBsulSaKXeHQNAdEmluUJlwAZ0tSqGdx9bwAeEkRSh2Muk6q8aQATS+YODA7uMbKLs4TS5oB4DGHA0xmEv5mu+tHT0EMc7rqtqdvKMegP95HVlDywd3J/WG2NyhaxF1oHnhj9FXKaspr/yC3CECQTdQUlvILdBQKcy0jW5pLrvxurN7V0MlsuXQXLpUcmZIDb7tCeob6+hc0Ql1nebxIWwHQ3IbVVadoz5u7JCsF4SM/Ev4Wqsv8HN1sp4R/CCTNUbbB6Vt4ZNogUDQZb7HE17isvxoY8JkbiiDp871o7iu9/1A1j05cBjNCh1NbydOocOXw+VydoEylVUfuhRGmxJnsF9KB2QN+fRJk0230BRm+JfryHpe5CN/gR509YT8zvU7F0dwVrAmbhyFn9lBRVVX5A4RCLpAqcqo4UoJssW8RGTTRquum2VHHR/mr4p7lQ5eDqWahooh66bXHVytvEh7zu2idXtf5+7ODnYuGFweZ7Lqxk0PfPDvryNrdMjMivD8R0XWH7lDm/nM0DH85NqbFUDFNQVyhwgEnWzJLxSfpIjMr2jTPm/ekcJUyOGrc+NxeffzARkOIQPSPqRClZ0LukZ2SRr5p22mlTEvaw/G6zTrtSab/nuz1WvMrCDDzz06g9GmX6rJRlx6OO6s0Ido66F5dCQnispri+UOEQhaFz2am7gxI7PoOO0+sZGWRD3PbeEz1K60OyTdmqwXRjzN3wOkX9ckjS83AjxBPj2yiN6IfFZx1YiOyLqGk+Zgz1taJsR0BLPFMM/VhxCgzx5dQbBFPZl/gCrrxG1PIGgNHP6lFxymXcc3cOMYKzlUkuOYOn7jQ/yR7BU/M3Q0fXBgFqVciaVqLn8IbgRoz9fGj+eEEtfR2PGg3I2zraP/ebnvLX/aOVnbdFPVF2Zr8hHX9AQJGsZkvevEBtZY14h5jEDQgtKaIkq+EsNjuBZEPMm+FFODhrdMHu9OjXo6Z+B62nxgJu3LDqEy9T0F3UP0uW/ZXwXXENr0DsnapluIIbltPEE66GT8g/rigxBluypZ44QVFwOeBFcrssWTQCDQ0NTUxNK8dxKnsx7a0cjSHa8PB1FjfBfOhTBvMfzMV1RWWySNLz1A2JkvaIbKqKcE3tvZdcYB4xQm6va+IG301iH6hzVFSJ6rk3VI+ja6VpXL3rECwVAG1Bk5ZWcp9rwvT9OeGjycY7rm9ta9OrWODxPx71bEvExBaVvpStl5ubjdfVA2N/IOBL7eU4PuZ7ljB9cZFY0LmNzlcSPMDPUarr54syt7hDjIGjdTYWUO2xEKBEMZ16rzKCh9C2fDXQ21vdHkJbZFtem5xHitKo8JSNA91DRUUmbRMW7hR9ciDmc7uM4V6qEYASXIDcl6VpDhP1RmbVT/IFnIWiBwbVTVV1Dq1X0qm3uXlkW/wF4UDp/p7q4nTCNH+QOSvnnhjzPZZBQekYvbQ8DQ6sDFUHp/v5l3KNNChnc0cCDHaNF/YrJ63n9DskZR22jzelSRdbSQtUDgmiUPeHxgy52av58+TlqoTRe/u3ezTDWvHdS1tx6aT+n5h8RuuBfIK8+i4LSP6a3YsVz373BupUWfqh6MyyHbuyFZo6jNdqku7BEiZC0Y6rhYcpoiMr/kkXbwyEGNtJM5f122kjvcK0Es25IW0cmr+6lC+hZ6BSjTth6ez3Nh8QDsxHNlv8mmn4EKh0d3YArz/IX6R19pVn1C1gKBiwCjs9ILksj/5GYeUoshAI6MuifNLo4aNTJyfA9YDZ/IS5ALfBM4kbePlsW8SFOC77MPGe7o3MCmC4bIY4Zt1F93i6xh6gR7Pk2c3SRkLRC4RgEk5Uocu7nBxAy1ZibcG0x26Syrhm8Fatyr48dR1LndvJYEvcehyxHatJ27urr222fZRv1XmwG5XWfWj//YbNObtGnnNULWAoHzAhpn1EPh5IaaMrI2lDzQkYjtdk8yanwtCN6hVFijiDry7NfsyCd16l6+Pzg/qL1GoRnbaVboGD6o7eT6N5os+jXgX4/uAl9stOlfVP84SkWJkLVA4LTJNBVUXCbr6c95irjZ5tWiiTZZdb3KqCErm6gIBd8PGXWuehCAcMRJr3eobqikM0VH2Vt/duhD7MHSyfUvMVv1c7pshGmPqcnD/gTSEbNV97H6BrlC1gKB8+FqxUU6cNFG36VuYn8PtI2j0cJ+cNVTojbwv5nCRGKglbEvU+iZ7ewFLyR9c4CR3L6LIfTePh/OrLHj6eA9QMk5Re2KXvHoCaAIgem1+sfz0U0jZC0QOEsi3azu53rKrciiqLO7aEPCJPZut5Os7ibXjo412CtjXyHL6U8pp/ycXPA+QFFVLgWlb6VlUS/ye9WhZI87xg3fmGyGh3pE1kjDJ8QZfqL+8Qvqm2QKWQsEzoGmpkZKvbqfTZjW752ottVjeOo4aszGXpG1ocVWGCQCA7Svjq2ms9eOy1iuPsKV8vMs2UNrP0/W6bgh6Szq1bNCDXd59AZa63mSq5I1BOhFlVeErAUuj9qGKk48IJ/79MhirisjCwYBGHt4iNh+IrmRJ5I/SG/ueZZthY/lxYv5WR8Bh7/QpqP+/6rvr9s8INvtapKNNsNY71DDP/SKrO3NMXqLNoyg2XXI+m4ma0v6p1RcfZUam8XISeDayCxMId+T77EP8pywhzWnvFE9ahvv6DARZI+J5HPDH1MPgTfpFPzf68ukTt0XJavmJsU/+RR7wZfPFCYE3NHFQ1O/12zTPYjzwl6RtU/o6H83W/UbtEm7ja7jZ30vzVY39O7jGym7OJ2zEoHA1YAyBFztYFb/9bF1tCjyGZZ9IXpjxNSWHDy57AEN9qKIp2nH0ZV0LDde/UzJqPusZNXcwCWrz9ROaFHk0111kDbB6dQYMvKfPHqLmSFjfqluikkqRY9X37De9cZ6zadkGeslcFFcKs3gcxdsoeGW5zCqN970QSK6E0cyeWD4wLbDC+lEXiI/HERL3Xeob6qj8MyvaGnU75iPULrqxBK1XMUm+DL1mqzxj802r2Emm2EbD3F0MbL+6OAczkogSBcIXAU4kDp0KZS+PLqKVrAkb3hLfbo3beMdHSaiRj037BH6MmUV18Er60rlwvcxqurLaeexNezLYi9Z6TqT7GUojp3V5Qiv7kn4hv9Mm8tY6Wpk/eGBWXTwUhhPshAInLi6yU0nKEHAgMmS8Sm9pbLpyYH3aJpcXR+tDfv3gdfHm3ueo0+SFnGNWtAfJZAmtTM6oxLG2ZoR1oOdvS+FZqvO32jTPdOjzsWOsHy5xx/hlFJ90zJXIWvU4qBnXB07lmwZn1NR1RW5ewROjculmdzWDQJdHfeayp69uMHFrva4ObJ2ZOJT1PeDHhvyvC+OLqfjKqOuqCuRi98PgLYa49PWxk+giYF3syFWJ+/PRaNNv7RHfiBdtp/bDA+ZbPo09Y0bXIGscWFm2rxoQfgT9PWxtZRXfkHuHoHTATViLOqzRccoMG0LLYn+HctOsW22Z2KGPlkP2IIjMOB2RcwfFFGvoGN5e1U2L1Ne+gun8g/Sx4cX0sKIp3gn08WB8Clk1dxi3pM286701kjV1TcucAWy5hvTZqB5YY9zP36ukLXACYFtslXt/LYcnEtvRD5LM0NHM0lDoeFzE5K89ln1JJVRw+kNGXt45pd07toJyaj7GfsvWmlx1G9ZA9/1e6lLNlkMD3j0FZCia63nKa5A1pAlmW16niC85eA8yimTtlmBc6CqvoxVHrAy/fbE27Qs5iUudYz3v62rumavd5gOuRjc8yLO7qRCKQn2K7Bbgad4QNpH/L5O6Vyuh76VKpNN/713iOF/+oysfQLH/C0XwK36MNfpZNTROLUA1sW/Ttklp+UuEgw6Ghpr6XRhEu1WJL0qdiw3t+BsxdSZEf1NxvTgEazJXqP5UWOHiYNMQX8+jMt5+IOjy3R6x6ZNDsleptr5rDBbRv5bn5E1JCXewbp/VdnqFlci69f8fsM1OmhIxeJRMFgor73GNUz4GW9PXqq2x8+zlweM/e31TM+bkON1VAb05MYwfE+UPiJVRg2HPrn/+x95Fdn0/cn3aFn0i1zO6uJgscFs1VvNVt0T3Z4K07ODRt1cTW/tEq3nyCqWRb9EMee+pfK6YmqSAxXBAAHNJdgSY2htcs4enoWIA0PUMLtYwDdfAmTlCH6Ont5OnKqI+hsqqLwkb8jAvOuUln+IVse/xlm1sesdUxW6w5EE35S+ulOytrvwHTRZ9KWuYuj0ZuRz5Jv6Hh/mwFpSIBgIIJONv+BH3xxbq0hzGncgQuVhd7d7sE+6ENuTNDK5Cf53cGnlsyNL6FhuHOWr1yGlj4Gg6WZqaKyjfdkWmo/RXYF33eg9u4rucCbqvlCBXE/WXnearLq3uOPGBcia22nDHe20CWL5KOg3oAmiuqGCiqrzuLEFJY81cSrD4rrxXTwYoD+zaZQ+IFeFgRlmMMLpTTBwALdcLMngQ2MMGIACp4v3rM4+xbyn3tU9UYUEGX5utHj9jn+Qi3Qyzgt/jN7b502HL4dTXUO13FWCfkFtYxWlFxwmv5Pv0+YDM2nxnt8ycUJGikzaPr2lr+9xe1kFdW8oD3Cvw5AJXYlisTCwqKgtodjz39P6+In80Jze9cP5ismm34FpXB79CchM1A/zc43mmAd5SwhhOkYUCVkL+hI1DVV8oJRReIQX6o6jK9jBblLA3TTO71bupO3rckd7aZ79QeDJB4nfpr5DpwuS5CBxEIDd1LakRS2HxTewro0zWXWvzraO/ud+JeupUQ/9lfpBH7qKIsQnZBS97n8HT9aoqa+Uu0rQZ2UPNJcEpn1EGxMmcxaN7e9MbWBtf0jxOto5mtTPWbznObKe/pQKKnPY6U3IegBr1eo+gAUzDOPWxI/vTq0a8SnkevBe6leyRv+6+mFT0CbJom6nJmsDZ9eY0PDhwdl0ufQM38wCQa8WJjVRfuVFSs6JpojMnXyIh3mFyHDH+93GB9r4f2TTfSnFa1+fRqMFauBwzUP3Y2TmV+wtIhgcnFY7K0gycYgMOeYN3sMaxUtLPAYCmGQw06K/T8uur7hC6zmMVDYmTqX9Fy1UUlMod5egR5kTJJ98gFR6mqLP7aK3E6bSLNsYNkWyb3d1A3pPY+YiiOGjQ3YL4Or6CnmjBunxjaw6OP1j9X48Tma1q7qBLBMzAU6bLIYJA0LWcOHDQaPZphsPxyjnbz0fxYtqlcqAgtK2sIRPIOguCqtyKCU3lm1LtyUtpHV7J9Cc0IdZhofxcSzD6yMfj64zak/OqKFwWhr9IvmefJdfV0l1gbxJg4S6plrKKklnDT04xhue1V0/uHNVbDeGeI30GEj4WDzvUT84QZOhNDuzTwhOy/Hke3efNx25EiV3maCTPAmZUjUrKfIqsrg1PDxzB314cBb7o4/jUsfd/V7qaF/2MGrzFlH2wAzGEPXgyCk7K7XpQcalsjM8yQeNd/Ae976B4sdo0R0y2vQvmsI8fzGgZG0KG/3fWinksrNbp9rnzUEZMoZdxwSCjoBDw/PFJynugi/tSF5Bm/bNUFnsCzz6yu618cCAZdL2B4GOFSXI4tGe/v4BE7u5QYEiPQODj4OXQmll7MtkshnYNK4byp8wDCHv9VDc3mJ2xIi/0ToaI7Xs2mnJ2mETie4ujNkpqckXL18BAy54ueVZlFl0TBGhjXaf2EgbEibzPQNbUUz5gOrCrpM2DJiKia1StU7H5Spz26q22gcvh0l92glQ31hHBRWXeYgxSlMogdzg3kAyW4w5iwtCRv6lx0Bjtu+IPzMFe95itOg/sJ9wOn+DzLSg4fRx0kJKKzjE7liCoU7U5ZRRcISC0rfSu/u9OYtGuWx22EN2raxWgjAO8AGiQ/GBcssbe57hrjjIBKsbKsXfxgmAgRHx5/3pncTp3OKPMusN3tMyLhnbdBPBmwNO1jhoZMK26sapF3LGPk7duafHIHA4szv1bboiAwmGHMprS3gYbVr+AdqbFUi+J9+nT4+8Sctj/sCLDqqhSdrcw/7pOLyxWx7KHfj5UHvg4ApluwvFJ+XNcyKglf+9fUZuuPPRzhNu5ANisulXmq26X4E3PQYLmHIAA231gkqcu25td8DC9nJF7Ms8f04OaNwXeG8dsrvGpgbOhlKuxFLYmR3sFYM69OSgYUzSgyG/6/QwUX1cGPE0+yGn5MZxG7PAWc40GnjCjjXjM55jCVfPbryvEF+c8LEYnmLC7A/Tpp5MkTFaDIvUTZbuKk58s8Me4akZ0Fw3ihOfWwLdqjDWOXQpnBtYMIsTnh1r4sbRosinWauMxQYp3EAdGnZ0lgKCRibteB0bE6YyGcDAXvw9nAuwqzhwMZTfI7tn+LAbvcdNPL3cov/ax+J1q8dgA5prlVl7an4hTu9z7Rizs/XwfDqqMpfKulK5C10csL6taahkciuuzuduviM5e1hXvynRm96IfIYJEQdBP5DzwEjvbtSw5WhLh/HTu/t8KOa8LxXXXJU31enusTrKKj5FWw/Ntze+2NT7Z73hAx4Hi4mwQh1wuV5n7efwCzHaDKu1UTVOTdYztA6j+Wob/G3q23StKk/uRBcHzPWP5+6lkNOf8OTu9/b7sLHRkqgX2InO0VlmV1g4htHqBpmoPWlCwB32Jhf1OgNOfUhnClO4yUX8p50P0N2HnfmSVsa8wlN4uvk+N5tths+NoYZ750U+8hcezgKj1fAcRN/qBVY4de26ZYrMXbRu70RKyz/IT02BawAKDhgWYa4mLEmTciIpJH0bfZr0Jo9SQqcfyhsT/G/nkhe00VyXHvSatL3kYZ/L9wC/zoWRT9FHB+dw2SO7JF3eXGe95+rKWHu/Jn4C2wxMDb6vu+/7VaNF7w25Xr+bNvWso9HrVgx/dJ3a9d28uCMzd/Lhk+iuXaAO3VClss+jtOfsN5xBr0+YyO/hgvAnOIOG6931kjud02j9kU1P44nX99Pc8Efp6+Nr6XTBES7d1DfWyhvshMABdVZxGn1yeBG/d3Dx7OaDH+MPE31C9A+zAmQwDxbbA2k+zLTVC7S4xhSZ+9njYUPCFDp4KUxGfjkZKupKuVMPjmZJOXvYL9qa8Tl9kbycNuydzKOTIHPDDgmZ9BSuRY9wihJHe4UHXhdeI0oweLh8fHghl2wyi1JYqSJwXsD7Y9fxDeyJj6Y6vIfdOuuw6dNUvOkTOvrfPZwRIGyjTfe2K9Su7VI+6FqH05cpqzi7FgwuILdDhplfcYkn0kee/Zp10GjptftEGwbEJ7p/mlzu5do0Glyg9KhUW2uBcwMPUkg9sWOzT6Hvwb1n0++GO+lU67A/93BWmK3636rMJl694Eqnt0/FYIKAu+mtuLEUmfk1HyIIBg7YzRTX5NPZa8fpSE4UhauFgXZv1J8hs1sbP4EWRj7N9V0Y5UwOHMYZNBaOdyslhbN2zDpq5stjXmK/4/3ZFt5SQ7kicG6U116jfdkhPOx4ijbouJt2A1DEFZktusXevoafOi1Ro4iOCQgmm26uesHnXCG7nhH8IDuqYbhpYnawdtgozTJ9mqE0N7CbHQ4Hy2uLqaSmgHLKz1Lq1USKz/LnjtLN+2fSwnB7owr8OJCJOiaB+wyCBrq395O9o82TzDYDHyBuTJjC02RQ8hC4wO6uuYkfpslXohVRT205a+iBDr+EDZusuic8nBrk8SNT2OM/VjftaPWCD7vKAkNNEW/Kd6mbKL/ysnQ29nWWUldCZ4qO/pA9p26kLYfns4k/JHYOZzu8B8hE7SQ9QpPZjXICJUd3m1seYPOnCQG3s2zwu9R36NiVOLpakS0GTC6C+qZaOpl/gL44upzvSbtyp0cH1Rlmq37OrCDDf3i4AowhI//JZNG9p154gbN7hmChgRywxV4TN5673bC4BD2vNyNzLq0p5JozGlPOX0ul1LxEij7/LX1zfB1tOTSPVsa8zEZJk4LsLoiv+9+pZdEPtPIDNrhMLRoPExx0YgcwL+wxeiv2NdZ5WzO2i6eHC9aos0tPq3t1Pc1V7yWShRtMKe+oYzHEGKq7fVA9QHqCGbZRf61e9NMmmy5Yk7A4d+3a6qltdXRqsY1lz2A8YQU9y57T8g/xtUPn4GdHltL6vZNo8Z7nOUOBMdHcsEft8jpbK3mdJrFz9uy5K590DCWAlhvDLeIvBHBdGgeIOCyVXZrr4Fr1VYo5/x2tjn+tpdO5B/cluhWvqdiIJkGnkurdcE5jyJhfGi362dooG5dYfMiucei4VWWAx/P2ykFQB0CDAJQzICQ0pWAGYPwFf7YZ/VwR9Pv7zZw9zw1/jOWR4/1v4wx6cuC9/Ge7vG6US5Kzg6Adh4f4PVDCeVdl0n6n3udrca1KWsVdb1fYxDLR6HPf0oaESdzxCi74YQhEt2vVO2eG6nQergizTe9lsuqitUGRTr8Qsfjw5swJe4Q+T17G23hB68wjj05d3U8JWUH0feq77F4H3TBb0FpGuiT59vY+gSIFRI3yDh7slfWlPGlG4Hooqs6l2Au+3NEMkvbunT3uKbPF69lBd9br9YAC6+h/VoRtUr/ISVepQZq0g6IlUb+jr1JW89Z+qKGspoiulJ2nU/kH6fClcPZU9j/1gboeb/GuY1PiDFoR8wduFEBdDw0fOFiDz4VDweHtwtnz9QfQD6rf7+6WbBqHotvVwxwtyBgKUCFmYC5d+gBRr1dE7XDl9NaStm7fJxZ9qclq+G6WTfcbD1cFTJ4g5VOEvUWrXTe7wgJtrUL4/MgSlWGf5FZndwFaaOsaa7nMA9dByOnQ8lxQlcMSs8SsQLKkf8J6540Jk2l26ENMyJDUTQ6ylzMGch7h4BwcerbcA6izY1jt8pjf0+b9JorI/IoPD5vEcMmlDxMxzi32vD2jdtjl9sKJESMNYzCEZa7V8Hcerozlvrf8qdmq81G/0FlXKYc4pkljq4sDMrQ4p+cfdpsbFQ+eSyUZdPLqPtp7IYDldDtT1tAHB2exthQTtFfEvExvRD7LCgdHndYhqXNkzj6DMPJqICR4+P2QYY3zu5UPmpaqXRbuAejw4U1SWJkj5xkuDnjZQ6W0bu8kNndjwy925OwxWdcYbfqlqCIM+CDc/jF58rwHUj51Uc67UnY1w2J3SEOr89eKzM4XpfKkCFcA1CwVdcVcZ0YGASndOfX6j+cmMEGjrIGuOpAzDgSx3R/r9xt6TQVKGqjdQZI2vcVvw31r0HgYYaE6SjjYSaAeja0x2t0tpz9VD+tDVOtGu6shm1GrXSU6leOzAmh9wiTeJcJfBg/qXmTVFSabbp/LHip2NlyXDxst+nDX2w7bt8JL9vyW1Q7QDTc2O7fpU11jNZ9u4+ALBkiYNfhF8kp6J3EGLYt+id7c8xwb8kNSBzkdyMnEnVqjtHBtSV2Py17qdwZRj/OzTzJHPd7/1Ga+fgVVl3moAXYjcoDo+iitKeKuWSQpM7Tp8b1ORiz6VBXLMFvRw50AT1ezVf+G+iUvappEl8q6kGGD2LYcmsvbYQxeHUwgy8ONhyzhfPFJOqGI5eClUIphd7rPuEsQ03BQc14c9Ty/9qlBipD8b+PaM7b5U/hA8IFWbnXur+TA4oRyxdEIheYczNNbG/86fXRwLn1/8l3aq7Kui6UZTv9QFvRsp3mh+BRbIkOe52Mdpc1Q7PXEIHDYp2iAcWqzpt7Wrk02w0PqF/xK62x0uUVunzQzgtbEj+NOR3TqDYbFJdQamYX29m3MkoT50aZ90zljNrM7nX5IZMQ3q/LAx5mho9WOYzq7q50pTOYyV5N4m7sd8PBF6Q8lPxwk3uT0ehB1JsZ1ebgrMIfMaNO/6CoDCjoqiSAbw5N4ddw4+laRZGJWMBVUXu6HQ8BKulpxkbMBaJsxUzDq3G4KTNtCO1NWsxk6nOlQV0VpY07YQ5z9Twy0S8y45txKteEuUrpeaaLZs+Nuu+914L00P/xJ9XCbwd4d4Zlf0bHcvZSrdkpSk3Y/wAIB06B8T73H5S3slLn5rafyvLZxWcUms81wm4c7wzvU8A/qF92ujf9qdskaZ8gomhRwD2+hYOMJEsWoqap6rcW4+cYtxsje6pvq2I0OJj/I6FAbxUxIHAam5MXSnrNfk9/JzSwfhN8E6swgYHQEooTRmox9nNwydOBCp3mV29vZ0dqOMgcmyUDdsjp2HNfvUerIK78gI93cFLDfBVGnXIljUyZMtOdhycEjboakmzUJcpAxxGskqgVuTdY4bFQL6hH8wq6sHpgePIJrn7PDHqZVMa+waiD8zJecCXenNAJih3wOWR2aK0DKXx5dRR8dmkvv7zfSuoSJtCr2FVoa/SKT9Pzwx1tc6ZikHRI6hybczWR0vZlx6MPvywOcOeGEH63u0EhjGpBv6nvceQlVR07ZWSqpyeeHpcA9gbMclCoxMR7lQYck8ybPZmq5U9Gqn+Pymuru2qhOiDP8xGjVv65+8dOuYPTUqSYX5KBIE1I3u4rgZW7DPngxlGtkRVVX2EcjrzyLLpWeoXPXUul0QRIduRzFBI0a2idJb/KBB+YIgvwnoPnE73aefG0/BLT7Ok9vcaXTuYwr3UCUpRyHv3iAYSHioYaJLDCR2nzATLtPbFDX2o8H7EqZw70BtQ6au85dO85j01bFvtrSHzBdEXUf3Hdc/pgZ4nmHx1AB7AMxr9Fs1X2sfvlL7tDtxp1utjG83UIN+dOkxbTn7C6KOfctZ81oT35n3wyeSoNWdoQ9Y36CvUhm2kZrNVbPtvK5ISSh61kt2v6gxELEwxLOd7iGmxKn8wPz0OVw9YDM5EEHaAeva6wR6Z2bA6XEAxdt9HnyUpVNP8vlL58+XD9Gi+6Qj8XwFKoDHkMJprDhP7MbPbnGgN3ulUYe4GwY2TG0yxtUdgeDfWR6aFfGvEfUm8f53cKHXa3lc/ZyhnMNe3We6SujWIXjcLtD4DrhgYczgw8PzuaHIbIpDD+GAVdlvcw4HCqAXQI6S1H2wG4KMlUcKNvnJnr2UVKmT1exYFaE5z96DEVgDBgugLoY+UJMEt2JGdp29i21xYXjHYbqZqiFiqEHMo5taAFe4bWN1XT0SjQ7QMJYzNHY1cf3XbXJol+D6S+YhOUxVIEJwJrRU577ScZGiFqjBxm0o/6MOv2kwLt5hzItZDjNDX+UM2hMmkHTyp6z37DGHI536NSskVr0kEN1QyU7YoZl7lDZtImJ2nF24d039WlHlBst+r2Yqegy01/6c1CBj1U/Qj25AvgJ5qJyPoleSOxapsVoDSo2Ly4fgZyx+BZH/Y42Jk6mz44s4aYVDDHFoa1gqB4gNnL/AfxuUnLj2FxrgbpP2IMaZURrn3fhYkzXAdg8ewfr/tVD4OHhEzjmb01Wg1ER9hFXVYdI9EzFgXqiw0Tn9QC7bnyeIml4RUMhE5S2lQ5dDuNBu1kladwtWlpbNCgdowInyabry/ngeEfKSu7YfSPyuRb/+X6aPqSSR8M7Kpn4zyFd/rhuqoxV9yuTTbdQXaBzg9tQ4dkiCeswNKWGHAT2QF5nGcmlIIfFKqSHOASC/hXyKjT8gKD9Tr5H0ed2U+rVfdy9KRCgsQUP6oyCZIq/4Me6aZTGJgbexeUyn/6bUFTEvSAWL72w83XqkMd/bLZ5DVMkGDHY5OJQHnQUDt9bo+iduz1QdppWh57gfycrYhaEP8k6aGxjo8/toszCFLpaeYkPCSG/wlZXGlYEDY11rPKwnN5G7+3zpmXRL3CZrEUu249JE+rUan2/gOHfws6dEbZF/5q6WAkqGgdKrwsymczNJ/CuHqMyvt+y2gBbcpg2wQdkTfx4/vPy6JfsDnaavhcEjsxxKOugW5c2HG52uDa4LtCdr4x9hbetcAHcfeJtCsvYQfuyLTw2rLAqR1hJ8ANBq4c0mshgRRx77jt+oKOT1z5a7S72dunn6UTgnQyzxTBvaHQp3kSzDHtf2yfLXBqo0gcyZdwMc8MeY6vM7eoGCUrbwqbztozPyXr6MwrN+IL//K0im3fVUx6EPYXduzylYUUjbHsJybNlZ7JYPfQgqUKn5v6LVjpfnMpjxJAxwQQeB0bN0qgi0AAb08tlZ3jmJ9YYHvRccrQN6A4212zTvzsr1HCXW0x+6fcDR4vXrSaLYb02CqzP28TxEaYuIFv8/zpF0HCyizn/HR3LjafMomPqpslkz+rc8gvsyIanPf6Mwy6MwwL5BJz8gLYcnKuZxNzPk1X6QePpZF7Qo1rJ6+7hJh9k0mjzhgMgGlS+Ob6eH26HL4dTRuERbrVHJ6H4QwuuJ+g6tmE4cDGUHSUxvQg7WJQ7pqn1NEndW33Z3HIjmR7XqW2Gh4Zcl2JvAe8Q9N9r7eiVfVkSYTc2LRPGfEUcbkVmfk3ZxWk99jEurymi5Jwo+jLlLbZfRNu40S3ldbqWtnezJq+Di938iCf4kBAlInQQRp7dSYdzItSD7qyoNgQdoJnd8ODRAguAoqo8Opm/n75L3aQe9JP5DAgJj8NveoB3rIpndPEmm26i1Kl7iHmRj/wFCvzqAkZrT7ybzqgRyAKRUa+KG0vB6dtYeQA/6t6Y/GALj2ktmNSCcfbwl/bRSgGuPnmldTkDtUJk0GhUgcvgmrhxPOIMDSpwsjtdcISyS9L5OmIQKXw4BIKOgHsE49JC1Nr79Mhi2oSDw6gXuaw4Q2uK+mFy0YCS9SVMsoKeGp3VwsA9BHtfqycdP/HsI99viny8tS5CZMEhpz/lEkdfwW4iE0ofHpjN5kxTtRKLK5lR2TsI7dar/7+9q4GO4ryukJM0adK6PYnTtEmaNmkSJ/4pdkhCQNLMCGxqbGM3buMEJw1QAwK0OxL/YBLLTm1jwHYcsKFgg2sCxgYJtDOzQkIgQGCBQCABBgQICwRCgECAfviRhKfvvpkBGeNmqXZXu9J7OfcswUJazc735n3vu+9eXKexlJgxnILFNG3DUHvW5jR78c4XeCeyq2YTK9m1tEprQ+LjAdEsPLTrL51hGiamTcuOr7eD5QtYThgiZjDK8AwhvHuug9YA1PT+0KXU9CIx3QjhFJhS0sU8/P9vh2gOfSz7R/Z/FfzKNsrn20fO7Q8rPQwtFHBCy2o2cu8WPoe8jbNiv9XhVdE8pJLZg/vRUBAEE2bOlgncf951YqN9vOEDV8XuLI94Xw7RaEGi60U93SM499lStYplavGwf3rtz/l8B+cbUEj0DqRjQIt9kT876Xa0XyXrtvvAMekHmCSixFfZHuU29JRh5YSbKFJymU3NDXb+wcU87OH04HrFHMXOS8ye6h+uD3rPMwqHsyHwH8ue521qYeUKPnA9zo4qUkFLfEJivlTH7Q2oHaKtCENpNm3eOYMPnKesfoTvNUyqopLGrvParEIHrglDPUeveYSBkmXDSOljwSdTXUYX9qI7sx9yosbWHq0JHCZuq86PKF0M1ToMB0D5G58zgKUaY5Nil+DyyvvaT+U/xj3ogkPLeLz7nNt3bkuv+1AU7SRuEGcunOAHOu6dRaXP2TM2ptgT8x6y04P3crECvRc9dofHNvot5VE5UAxzgErjM9QBdIEDNyP2hD41nubPrx/MN1Qd3VzRCPR0MUyDAxMnSSZFPSmjD4jTdTwwhmTexTQoMDnQCpq3dQoPqEBitOiIyQ42qI7kcFDiRgF+fE3DEbu8tsTeUV1Aa+kd29g7z/5j6TSmr84sTGF9cTz8MWD2n1mO7jjuv5iooq8ffDHUbfSe0tIC/b4i2TVSGiKG8hhd7B1uhR1Csk6wh2b+sz2fklM09Saqz1fQjfw8O1Y4/OQ+0aPamZ6KXV97bPA+PmkH1S5jzc+5zeGwYN6zT8n0YJcP7Jqwe0KbC2bPeFjDxBkj/0jQpxuP25V1e1gzOu/gYvutHc/as97T7cm5D3E7A8bRKEjAhY4TA40Wwn6/pT4JfWrJqJGssM2+X6Nk9LhuqatDYYA4buQJ9tKdL/LNF70+3hm2GPoD3djOSHvketdo9XAV7Tqfw8NxOP0ZY/Ngp6zc+5q9vjLT3k0JGoa+eGg1Xj7PbQ6Jrh2tVy7zgTEO3HfWFNpbj+axZyXaeCg25mwZz+1DnGfAkg5TqWgpIiHzIBgl7Kvmza5xc4yzn6oJc9KCyb06vTt5TPSw6SL7TG2kO+H4iZQ+2M7Dhw1UPUwnXm6J3hYflcrJxip+SOBQD/Sk8B8U9nEXSQK3NybnPWw/UzDIfnFjij23eBIl6bm0+Fbz+5DE3PkDuhoAKuQLzQ12/eU6PvyDiSxaXLgPMIl75Ow++8DpHczwKa7K4eSc9f5s1g1/dfNYZjNNzX+UipxEZjX9evkdzLXHjALaGiOZBx13k7qtLkVvgW4m9xPmR7TC7tbdH1DuYYaI8wHc8APCU3/CqgeZflZas55v4qhtL+l/+HnG3vlc2Tu+geGi2iVe9XscRkgJ/MR+au1jPGRQ8MG77O6MxXmeqnvpQXedON1YbdfS546d035KxtuPF7Bhw7pDy+wAPbih0bK4dBrLjD6zdhALJKGQgcEzKmZw6lE1o22WHuzntO9caeCPmDhzmyPO9HAc5sdyPvfK6XVLl3d9ifpIOm1ldFN7hT6EAzc6dEQlMCXvERZfwva/pQNkN2FBhZsdAwDh4ENj0YxfNYCpgRC7eXP70/aKva/Zm44YVC2VUYKuta98eG3UG8ka7I4zTTV2bVM1V1eYNoT0JIAKCzh4upRf8XdQw9teXWAXH821tx5b3W7g+6DnufdUMT9IvJ8ZKnCo9UHdbrbwwu+AB1EoOElJC1+PqUpQKnEtvL5sRwLvAUD7AcyhU43HWLO57Xuvpb9D0oWuCq6Z9/lAtwaHwWhZlBxbw22Lrcfy7PUfZNrZe+ayAFnWntn2W6XP8u5qTvFEeybttJCUcQAIedphtMt7/N3buGJG26yteTNaG9es6JI6i3QCDE0CupH8yMRAwl9K9uyA6hrtEFTYuqlOv5FKH25AVAy4eaFX0RFc4fyKt51k3U4Kn6dpMoYqHvgRLimbbm86nM2c8bbVM3rlULdDcsPihlbHmkPv8EMD7yX34CLmUc8qSrdn05YXvoYAdh94nVU0xp5G2+DJuQOZcoX2SnuB9z8x9wFKGiOZheL9zFDw6pZxPMa/kB5KVvkCbmeBwRIKoN6Gr998NMfec2oLX5PDZ/fwa0cCD8tKKh6w20MLYnXFEnbmbvve11QsZX/Bpbtm8jXzPp/X6BUj2hmUfFEFO1Zo/bgSTrf6XkUaI9mhzjG0q5ILXUwR8pLPVEt1SxnMY+SUNyR5dmD/mj6IPq5KX3nbDwqWUb9d8zNOVKiuOqJvi0XXnmR9bQRX4+0qDnxw8ANdjjxa4NDmwDYXix3Ioq3uwu0ZLKz0+rapnOhmFI6wp28YxodEEP1HhcUMkZz7eZqsLfD33q5k8PI7ufJqL1DB4cGJBDIp98GP/cz/C2CxYJgJrBo8pGby7/JESMBDB1//SpFu//fWyXxNoI+M144E3sNCegUz50V6gE0vHMafS9v3js8KU3/QT7/+miExY7AJ9Dj0lJ3q+G6+xk5rrCdPoToHgNcqZe98o4tJ+hb5DHW0biR8Q7JlLCTsddqnIavqtkROemPp2N4hwaG6wmHLlQ5I1u2trL1kjeoIyeednTN5ChNC/rMoEUNUCS0S1ligBYqt7PXONqP4tN5DnzY9yBsjUg4cXhvn5uHoujgJp/dNwPl6XINPcv7pSHiUt7bvNbTPSjTUQ0CT2x6dgB61ZMlYHJqx1LfdhM0qcZBBxeh0TUOl3doBbRC0IMLRBkFlPSl3IGv9YqgF7R2wP1B1eoeNoSXr3nGYrBPDlqxHxECSBqPC+XPbZN1bknV4sdtvaenwdpXsGIOBwwM9qN3vJux60OUm5z7MRH6MUcOJIsojB9cOGMMwdj6aR8SdxY4Rem8QQfwgBYK2utRqGcy3x+T2/qJkxRgNHCCMyL/3r1wfx81UZTaDjgTdCzAcoknd44GDD5v5UAxJNhzUPU/Xw8FHpxUFAgFjP8bIodaJ9qhkxTiYctQtZQRtf1eMC/avga8ilMCiyQa5NhQzk7fwaFHIQhIIIgZQd7fD6DY12PcfJAvGUYWNQ4VUI+kR3dQy04L9zq7Y+yprMEdt3PxyHQvezCkeH/Fxc4FAoB71GdpktELF6SUOA9KHqWbCA0+s7PnSnOKJ+w+eKYtawj7ZeJRF16fm/9SdBOsjC0ogiAyKdVMdmxpM/K5kvXim9WV0+9TwzB53PLtu8O9zKxYdP9FQ2RzpQ0WYxaJHDqeVlEAvRw2v80yDCQSxAGjaN7CCnqlOkMnEThJD3tQ+95v8f9XeLHn6pX2nth6KdFUNmqC5b749Ke8hHlCQhSUQhB3Njpm25hN6XiccnJm10d9jU+WKl+sunDjccqX5QriTNKzCTjVW2fkVS+wXNgzlQZaUlT+WhSUQhLeiPuE31FUw0wb7S7JbZwu7W/eXi8b8ec7BN+4pPV7w5NmLtXvC7qbRfN4uqrJYYAk9ah9PIEr7QyAII85TJZ3ps5SHx5narXKY2Mljw6HM79Q2Vo2j/FpEuND+irrVrqk/bBcezmYdCmhgYPwbVl66DKsIBOGpqB3D7AVI1CPMnp+XTNbZC2zb7l5SUvKZ+vpjX6I/D75iXyltr9M5mB+rDyxmwaRRrrWRDKsIBOGl5lFFPZdF23IGfFb0qLtYNDU1fXVd5bIhVvkbwfLaknN1F0+F7HwOjzpIkUJHGjKWUEqDHCXGypGwpaIWCMKG7T5LezYtqCji8NLFIyW71wMLt2VkFR7Orj14urS17kINexTCGgm8bCRm/Bk96YZL5+xj5yvsspr19uKdL7DcqCfGk0pJWjQ6BIKwTSQ2+Q11l8OhlqlECYpBb3/31ql5jyrTNwybN3vzmDNziyey+JNZ/rpdcOhdO//gEjt771wW7V9QksHypLBGglY2RN0xnTjqqi+dJGuBIExWXFm0vn6RFki+TXQ+JD4ST2T9MGFoVo95v1z2vfeHZfVsnJI3kPWif7d2EIu+Q+1uMNzDM+/idgeE3ePQOFQgiHVq3nFCDmy4JCtJ3DCgJzIqkHDbKKPPpNGBhFKwOqAXPTZ4H3OmP+IoLgeJAkFETAP4INHQEkXiVOJPhs9QvplqKqmjAolLRwZ6H7pqh2RIYhYIIgSMjr9HmOE3tJ9IFpIIKUC0x1MdN43PUGfRDXRaFpNAEDFcpEJoi99QUlJX9PvSiJKen5EsJHFTgZsm1VR7+y31SbqhCt1+miwugSB8OEAF0TwqjIYI40Oi/Unb7Pl5uqmG89PfVM8TWmSRCQTtouVdchTztBf9AeUeqaYlwnj4qH09NaDeR1u139NNViELTiBoF+NjOWh5hDthdi0ZRiL8SdtM7uEz1efpZttIqCG0yuITCEITYSLsgxBTqqE9JNlEIqIxPq//F+BI4beSH6Qb73VCnSxCgSAkoMDRUfAILU8iulW2kawy1cihHFXLYhQIPoYLhN2Et3RDG+YLJHxVModEdMPu1h2HIvB5xKSV31LfdCevZIEKBN5BoqFu87Q9Ri/T/kL0pyU6NNJXan+tW2oy3JX9ppIrrRFBV4fPVEvpdY7PVB4X2y2JmAuYdvpN7d/pRl1BFcU5kP2Fmy3oQnS8ZlbKM9UdmE2QJC0R0zE6qP0tetm6oUylm3alm7RlMQu6AJQS3VSnw8kl3VK+L0p5EnERMPIEPYlu4vlUZeyh15NSZQs6KR2vAk7juqX6R2crfy+rXyKuwtMXcWh+yqN0Qy9yt4iywAWdyBdR2YSWh89Q+oLpkbHs9j+T1S8R14HpR93UXqEbPEAol5F1QRz3pk8QNvthXmsoT4wOaN+WFS7ROcLu1h0jtWmBfl/RreSefkN9zmeqh2ThC+IQNZhA1C1lMJI06His60H3uCx0iU4X6UHtbto6joLaGGGDHEIK4gD7wHIiTMT0Lg7SZSVLdJnw5yR92W8qv/RbSjYthkaX6tfibjUlQQg6Eq2uMl4jWB5wF4dccEZGt0/JypXokjHG7Ps1d2x9gs/U/kfaI4IYAfrSy6mQmAQqni+o3IWWh6xYCamycwZ81m+pSX5DewE0KFooR9xJyEuSOARRYXY47bgqHB6yD6KpPAAtd1mdEhLXBbjZOLRhOzFTSeOhGidpSzIRRNxaC1IJ3JOmnV6qkXwHLLZkVUpI/IkYZ2q3YqhGN9UpaI/QQlrvVj2iny0IF864Gh55MNXwWerP0nOT/k5Wn4TETQRGdUH38+f0ugVTYW2U/Q5LkhGEAaeQpDF16DeTfozDbrQ8ZERcQqLdPe1et0DZTzeVVAzXuDSqUpdFIslHEAog4VtAu7WFfksZh8na9JXaP8rqkpCIYOJOCyoKWiS0+NYSal3Fs1ZXf0Sof4IP3fuhxTUAqPCb2mKfpf0q3Ur8lqwiCYkoBWhUkKB0THy1IXCJpsp7tesLKclKcBbnHPRAXwKddXr9KQ6upSctIdHRyTugfVs31P+ghP0aLdR8n6nudRN3nVt1SwLr3GjiHZalVkJPmlsdpjpcN5P7YScmK0RCIkZiyDrtcxgB9pna93xB7YeYjKTE/bI7HSl2Y52/5VHGrCFLHYUWmT876Xao4MF2TqYOJSRiOCCuk2ok/cDZ/qrPcdKGnKWp7nPNfS9IkovbMfBad+e0mT5fU7e0N/yWlo4qGhZzcvdLSMRRoJqCtjDoWFjA/hzt6+wTaaoT3S1ymZghxCWqWGbXUsbpQe1+f07ffwLtDpZy2F2JIa2ERGdI4Ou0T8MMgbbLGh9KGupTflOZTa9ZlACK3URwURJiTCXm3Ty0Yqpv6aYyzW9qPgxL4YwCPHy5qyUkukigItMNLRHj7bydNtVCwlGXv93iQiiBkes1X3Hh0exwGHyZ8D7E/f2W+gz40HjIiguLhEQXD9AAUalBAhNaxVRt/xpqa5Qs5rSpukWjJDKodltShvOw1H4DFofPSP433VL6QO1u5Io+fyOHhBISEp/YMgGzhBJ3f0xN+ixlJhIKYTsfUjoUsWqmizlqbU1iVXbDw8DL7i6lzqVSYtdS4R4Q5mEalXY249kRPKjdLdWzhITETQd6oqB+8eGkqXwHyQTVHh9sGUoKs0xgBGyoq8DthTCQJOiPOX9X8QPOoVC+hMqZKuhfoPUEtg7aG7qR8A0Id43P6/8FueskJCTCGhi0AJfXmaBUB1Ei0p3qW3vHTd5rXargVpcueNQVtK9r0w+PT91nU20g1LtiSBDWOuD2mMv4d6bfnyrnpVCyo8r5aRwKgkKJ5OwzlG/K3SMhIRG1AEUMhgmoBpG4nQo86csYZ0ZCwmCOl8h9lvpbKAbCaBVCQq4A1RE34cWdYSz9TtvQxwfHGX19WF6xMBLtNvA7Q3sD1wHXA5rQuDYetY7bHGIuKyEhEWsJHYYKaYHk23iqzlT6g9mAsXhM2qFXC7YDJb3p0DaBgTD9/3dxqOkkdsVyDYWRHHciyXtw2y5l9N92uf3zs27fvL4NuFdMX3/MNXzlf9fme5S5wPcqIuTQe1nmPlSW0/d9G44p7N5DQFKGpKjPVB7HQwhOKtDb0C3tTqjXIUELz1lCQqJzB1WbGJdPM9QfoZ/LTAhDHUBJdSiqVrc6f9IDixMZylS0GRwLKq5yC1xOsgu2RzN4DBsJl/+tMsn7HvzvCewzaKij6WsHpgWTe+Fns+gRXOipOpYPR0JCQuK6wKEmqIRor4zJ7f1FHL7hEA42U+mW8n0PzFTJTrodVS0SrN/S7uXkbiX/iwcchGIE2xdITkDi9f6d9z3w71lDg/8u8Vs45MPEJ342XtHmkU9EQkJCQpK1hETI8b9jAC3VirL9TAAAAA5lWElmTU0AKgAAAAgAAAAAAAAA0lOTAAAAAElFTkSuQmCC;" vertex="1" parent="lr77hA5LthJ5V9N4e_WC-3">
          <mxGeometry x="372" y="213" width="101" height="101" as="geometry" />
        </mxCell>
        <mxCell id="lr77hA5LthJ5V9N4e_WC-10" value="" style="shape=image;verticalLabelPosition=bottom;labelBackgroundColor=default;verticalAlign=top;aspect=fixed;imageAspect=0;editableCssRules=.*;image=data:image/svg+xml,PHN2ZyB4bWxucz0iaHR0cDovL3d3dy53My5vcmcvMjAwMC9zdmciIHdpZHRoPSIyMy43NSIgaGVpZ2h0PSIyMy43NSIgaWQ9IkZhc3RhcGktSWNvbi0tU3RyZWFtbGluZS1TdmctTG9nb3MiIHZpZXdCb3g9IjAuMTI1IDAuMTI1IDIzLjc1IDIzLjc1IiBmaWxsPSJub25lIj48ZGVzYz5GYXN0YXBpIEljb24gU3RyZWFtbGluZSBJY29uOiBodHRwczovL3N0cmVhbWxpbmVocS5jb208L2Rlc2M+PHBhdGggc3Ryb2tlLXdpZHRoPSIwLjI1IiBkPSJNMTIuMDAwMDI1IDAuMjVDNS41MTI3NzUgMC4yNSAwLjI1IDUuNTEyNzc1IDAuMjUgMTJzNS4yNjI3NzUgMTEuNzUgMTEuNzUwMDI1IDExLjc1QzE4LjQ4NzIyNSAyMy43NSAyMy43NSAxOC40ODcyMjUgMjMuNzUgMTJTMTguNDg3MjI1IDAuMjUgMTIuMDAwMDI1IDAuMjVabS0wLjYxMjI1IDIxLjE2ODgyNVYxNC4wNDg2SDcuMjkwNmw1Ljg4Njc1IC0xMS40Njc0MjV2Ny4zNzAyMjVIMTcuMTIxNUwxMS4zODc3NzUgMjEuNDE4ODI1WiIgZmlsbD0iIzAwOTY4OCIvPjwvc3ZnPg==;" vertex="1" parent="lr77hA5LthJ5V9N4e_WC-3">
          <mxGeometry x="184" y="215.5" width="96" height="96" as="geometry" />
        </mxCell>
        <mxCell id="lr77hA5LthJ5V9N4e_WC-18" value="" style="edgeStyle=orthogonalEdgeStyle;rounded=0;orthogonalLoop=1;jettySize=auto;html=1;" edge="1" parent="lr77hA5LthJ5V9N4e_WC-3" source="lr77hA5LthJ5V9N4e_WC-12" target="lr77hA5LthJ5V9N4e_WC-9">
          <mxGeometry relative="1" as="geometry" />
        </mxCell>
        <mxCell id="lr77hA5LthJ5V9N4e_WC-19" style="edgeStyle=orthogonalEdgeStyle;rounded=0;orthogonalLoop=1;jettySize=auto;html=1;strokeColor=#000000;" edge="1" parent="lr77hA5LthJ5V9N4e_WC-3" source="lr77hA5LthJ5V9N4e_WC-12" target="lr77hA5LthJ5V9N4e_WC-7">
          <mxGeometry relative="1" as="geometry" />
        </mxCell>
        <mxCell id="lr77hA5LthJ5V9N4e_WC-12" value="&lt;font style=&quot;color: rgb(0, 0, 0); font-size: 14px;&quot;&gt;Nginx&lt;/font&gt;" style="text;html=1;align=center;verticalAlign=middle;resizable=0;points=[];autosize=1;strokeColor=none;fillColor=none;" vertex="1" parent="lr77hA5LthJ5V9N4e_WC-3">
          <mxGeometry x="76" y="190" width="54" height="29" as="geometry" />
        </mxCell>
        <mxCell id="lr77hA5LthJ5V9N4e_WC-13" value="&lt;font style=&quot;color: rgb(0, 0, 0); font-size: 14px;&quot;&gt;React&lt;/font&gt;" style="text;html=1;align=center;verticalAlign=middle;resizable=0;points=[];autosize=1;strokeColor=none;fillColor=none;" vertex="1" parent="lr77hA5LthJ5V9N4e_WC-3">
          <mxGeometry x="75" y="441" width="55" height="29" as="geometry" />
        </mxCell>
        <mxCell id="lr77hA5LthJ5V9N4e_WC-20" value="&lt;font color=&quot;#000000&quot;&gt;&lt;span style=&quot;font-size: 14px;&quot;&gt;FastAPI&lt;/span&gt;&lt;/font&gt;" style="text;html=1;align=center;verticalAlign=middle;resizable=0;points=[];autosize=1;strokeColor=none;fillColor=none;" vertex="1" parent="lr77hA5LthJ5V9N4e_WC-3">
          <mxGeometry x="198" y="317" width="68" height="29" as="geometry" />
        </mxCell>
        <mxCell id="lr77hA5LthJ5V9N4e_WC-22" value="&lt;font style=&quot;color: rgb(0, 0, 0); font-size: 14px;&quot;&gt;Spring Boot&lt;/font&gt;" style="text;html=1;align=center;verticalAlign=middle;resizable=0;points=[];autosize=1;strokeColor=none;fillColor=none;" vertex="1" parent="lr77hA5LthJ5V9N4e_WC-3">
          <mxGeometry x="470" y="282" width="91" height="29" as="geometry" />
        </mxCell>
        <mxCell id="lr77hA5LthJ5V9N4e_WC-8" value="" style="shape=image;verticalLabelPosition=bottom;labelBackgroundColor=default;verticalAlign=top;aspect=fixed;imageAspect=0;image=data:image/png,iVBORw0KGgoAAAANSUhEUgAAATgAAACiCAMAAADiKyHJAAAA4VBMVEX///8AYYrkjgDjiwAAXIcAXogAWYXjiQD66tLlkwsAVoMAWob//vvT3uXihQDkjwDssGHww4HI2OG1ytadusvvwZL45MXrq0jssFX++e/q8POAq8D88+nllCDtuH3B0dtRg6EAZo7ttHBjk63nmQz23cHhgQD00J0tep3xxosAUYD33br0+Prf6/DuuGsYcJWMscRVjqpsnbWiwdDonijvv3n01a388d700Z3nmTLpozt5obdLf560z9pZkKsdbJGDssbyy5Pnmivvv4zxyJ7qqUP01KRYhaPqqVnnnj5Bh6VovbzhAAAPjElEQVR4nO2da0PiuhaGW0haaClg4aAUHK3OMAhFbiJ7BOTocWYr//8HnaSXJL3SMqhI+37Ze4ZG6TMrWZesphx3FBpcTOs1dfDZX+OryWitZUGQ4Ppyqn32d/lKMsYS5LEglPRFZnaxtRAQMwAseEAYK5/9hb6IDAlx6042awgsdPwim7BxNBV4uYX+a1xMZME0O0GffvaX+goayXzPsP5Xaw0Fc7ETFsbnfqmvIAYcikvqvDlhwTibrts0lXhhRf+ojUw3AWB3cz1p1WuZqwjToMfDS3ZmDpbACk4AkAWgdye1LEQJVBe6TA65iWs7sLOiOyDp15m3CJCKKOnuJa3O9yRBRrEdhDY7fpS5C58mAnIG7r/SFHXamlz/uxza0R0Uuhef8+0OWNoa8lI95DN1AiXb7CaZ0XmkoOhNDl/GVmPZNDsZhtBNr0YIjB7uOw3l0QnvMgfr1jVa5jZRF6jjnhneZdmYWwaOSVqRl6y6gukkMqNzSeGRQamRl2gjMziRu9GXpU11gYdD91/5nKjalbDRSdl0ZTWReYHxmspQ131O1Bhhw+SF6ywwodIgD7sMEJR3yRPfVas1dq+gm5GjqgOenYTGGPA9/3KmbbCPAMOsakKEEgh4yfzZ0CG4DrhugWcrXGcZGNEj4HXWkKZyIDiujkM6CDNyjmqSyz2g4K4XnGOtsIuAIHOutgY6cg/sX9T1EB+grjE5vvYR3+oLyBhDvscW5ozQJEGx9sOyUNjS1DNXI6SYNqdn5EwZEg8fY0Zoqo7JDbPNMFMbBCMuCtWM5yJLKulRzR0DR2tqZV/v+X2+jAZrCJaxr26ZNpdVhbEmKBONn0xdy4iclCVfnLn7IEfXM1kZXYA7nTIHgVAsIQyLegOk4hRC8NdQUqiawAujBJf3+MgNshRJh3CYYFfhGk/W2CHMMWsqJJp72hqbXDZZzVWOB6vt1zmq4ZhEytJ9jlvhXZsEkxVHMHCdTVYzOgMJQgwN73wliGGOVwZK38EwfkwyMsPgbJsalylRcBY/xNC6KJiTF+/4hb6MVIEP3m0IVg0/KbHOTA5PVh4ksCBcOU4UNh+t8DMjSYoeKxySDLdfd/R6BDxIVBQ3e+cSBH9HqsEQJrSfFnKsSVbFI5UCk65YimlyqQ+C64J7Rz+GLrF7SH0QvIHwMeGQFU4fUl/R5GPvrhIZQ5goaD5KreQdEqipjPen3+PrfB3VZW9PawzhBNfzSFjqtABwvP0qr0Y479ph3PHI2EB5h/QJB3+8lOZeEmO42+4L3p4GSb3xMUlD+dYulXBNSHnjlybxcKdFfgHS3YSj9Xa0GzPv6qW3IUKR3OCmsSk+glSn+ggc21CueB+ejhhpPl+YWpPDp0LQNc7ogti9JGYlOL0mh5wD41UfhQQ+doU7SRK0iR2XUDhC47ga3m2+jD0WB8Egrf0QxpDJHHBveYKUf2pusaa0uoRSLpIAmGW2BDZkmFusaTU5FMg61RFzkz7JnukUpw9Jy8fHorrszDZjYx0VFL8obppcgv7ro5IKnFqupiNqa7TOxd+HUbFjBUs1lQ8Ck1VtgGtsl1OJT1BnwukDD2F3lEIXsQH2qoZ9AwpouxDqsTFoa+sQNUlvpa6bBDdQm3N1JJg9IRcgiadUuvZZTDIcp6zIpA3t51Zxs6W0Mk+YS+ApjdqGB9aJQvJjuhxsS7D2XXDu2UMT7sJ/Tlq0BtNr2bQ7IE3StNZpeHVHfnGJw1nOOhAi6XaCNh3zMh4/TFNj9Qj37BtG1+neQkEG3CSOMJSWLqTt3Lku8gf6QifbLy059Gi+SE3xwcLCMD1OQtEhbx7y6BRKxvJuzaraAqKfxNdTY3SrnhVTOAHcYBh8est21fB8ldJzGpM6lCAQeFIL1nTY263DwZjgkyTTU9/U6svLCTM71bW8ax/XFGUTML1nHSq6tGulbYCyCZjep28Gw92P3MNGJzymKRhmNVjCnW99sEERzjg1LsIj4/EvTtyry7yQ3j6w0V/0I9XkND9/M01864ayqrcWWDgyTG/T5jRJ6jWoTYaSJAiyDIBZagJC6sqbRLW45Aa1sW4V5pw3Qwj6Ms0v/lL/G8dDGAtdAg4xWZYFOJxMlbS6VUtGnNu/sLNdIEjD6/oq5cgSyLg07a37OMqYJVMd90+A9MYfuwsfWZXuDv4dZZ0Gqac3cttZU6vZKWq2GgNFUQaJMmBzxJEvmxa50BcsGavF5VDn9XV3EXdCayNrxHKy/5folkqldqHQiFIhaFCzHST0gf9XoJ9vax79XazXGAAYtLs6mEDJeq0rhECKV3KqAwHaI4TeXhsFmvffHiplLDFc5VPPoP5L9S5XDlbl7val74E369gfdl4DsLJS17L15lFfunHByzwjOc55/WOBHQL257IL1aIo5nPblD9jxpR+nBXzYj58VB59Wqz+YAmdiM5n1S3gOG1sGZX3XTfaEPIuxXhHREtyD9mXy27OcmLo7YeBa5zFIJ3LiWKVmd8JwOHpZb3Vy727WvdC4IVtZ8SsfEP289BdoRgPmwvcSSxsFronZlQCcNzg0TwZHbpOmdtALwVejs7/jSXwjtjLwUSFXFwEFFxpFpe1ie7G+V3JwKGV7tLc3WbXpLWP27aO2QsfN0Tu7zcdm6cMN7QsRYk4h59ubvkgsZ/37XFJwaG73uBSCdPZSW9ej2k/Xb+N8sLfg7svU8vIP1S//SdK99aYeYWlIhZ/V6+8er0TKdx8sWkNTA6O45QJWut6hBy9+RbxrpGHTyhkhQOLfYL7TUwjf9JuxrudF8bg8m99NMyv5nxG8eZt4ruAQ2vdGNLXjtAFXh0Sk4s6RGFBZqqugP2Ba54Te7uKPYiZ3eWbcAKNivdn7wbO6iOxb5WCU2qEgxye1w7ogAkn7A9cgdxcpRF3TIkxpUjafQdw/s7itCs48y3L1r0yFmcQk4sIL1oElqTsE1yDMDjfkgVRleiyGE2bOp7iX4JD6av9Si8GnNmkbYMIcw/a2nEN+On1wwF33o688psDqvLX4DhlaLYDsOA03aES2t1eJx4EP0x7QOCakVfuExxnjHG8xoKjC39oREISNLMfPgCc4fuf4F9OZP/FFwLHGQvNA27QIyRC3gRGYhHzCQw/OG3YdRRVZmlB3RLvdEl+JXCmXOC4MTG5wIOtzIfWbYPDXALA9aCjSHDOSHAk4C5IViAFRSQq+dhqPgkARwtOkeCcpTIAXC5+OHI44MwjDy2TCmoFG9OI1/w0ABxNZJOBo3Gc+C3udz8kcDWyiMl+R8kEv1bpaY/gSiRzyIn9iJGsDgmcQdxmwIPsI0rFquntERzHFIgqM/+eQpAOCZx1DoI5V3VvRKLRa+3GxH2Caz7TxFMsi8XvrO7uTm9ffnhxHhQ4Qydz1buTUCecZLuIvE9waJWL2jbIi2K++HbjShAOChy3cGh4IxKDFOLApe049gqOK3wv+4h5+Im5K8bsDgvcgORdnt72Gk3vnVBlv+C40s/K1h0EsTwjjA4LnPlYsWVy7oiEGBw1xT2D47j506/cNnbiqzNfDwycQvIumd0PUyklko4FgKObtLuAQzAaL2ff/dvR7NaB+Gzf7IGBo2Guqyx3TQsABMk7gDNVKvTv//zz09E/TydXzww6Z7fq0MCtSGLFRCQDmjTQfdf3Aheg9o87Sq5oTdZDA0dXMyYimdBCHKW5x1x1u5p0O6dsudaDAzelEYnjHga08sts9H8oOG5OcouylZQdHDiNbD6QiGREDI7tEwkAR9sj9g6uWTl0cHTzASxtkyMrnHUSiq0MnAecQTcKrV7EKd2FZpsTDxAcbRksFGh+tidwzfn9n/7cGhEIjluQGzPTeYOW6ZZsUHyI4L53SEvhM6kl7wdc/63c6XTEV7PSGgxO0cnUxEguCA53GhZUOv/sqVq6JX+bJ7ut+wBXuu28/SzMC0/FDo4jg8ExQXCL/RN0vwvxcMAV6UYF0/qVz9k10W/5MHDbWlmpZuWZ1VTcrpZ/hoJTHRvDEYlCLvKUmj4YXM4LjobEebZqfMKQ+2Ne+OrZyX8i4B7igit0qtwtmqmdYoO7Q/9OIeDofhbKTCdhmXvUGhf5XOdO4GgznBMAf6fgXO3Ufzzpma935AexVTFesZnjrnJt7vYXWkQffjUb4lMYOLqDCi8HJIbzltMDwNFmgKiO2F3A9YsUk+0vz1hArOnc06Io+mBOisv5qvV5m8z6/Fu83cj2HZrUGBw3O2+Xfj2EguN4krEynYSeDZyAnXxqnXARvpmfHFzjhukPPLUhsf1xtrNzLmf2fqpFSvHF+rhUpd14xZ9xjK6d+x/H3RZfXr6VEfzTYjg4pkuED7vLAHADQC/Xx6PaRZBUUmqh+6q/T8P1+66SZxiVnQWtSY0Ql9fPT2c3tp6qzPpHryE+pMAUm9FPvvt9ehYu7LHbeQwu962Y+4P+1c4q4eBodkrk68oParqhwPED7FKw/P8WfTGwgTegkTcn0p5zbw8wU8DLBUg8ISPdXddRv1rMmeCKV+ZU7eewfb7dhYPzP83gfy1JYLfSVArorg4TBRe75bx8RtOr0mzbNoWbOF0HS1exR5oxYqlatJxD9bnEFfInEeB8j45A32MgwW1ealcI6K/eE7h8zt2zehLxSI135C07svRUidnqbwXX/c4Jd3uOTK98wr0iswsH530QJOBEp5D+OK2uyzGtLiE4UXzwdpb0z+M9IpL/7R1ZOIvz+BPJSh7E+wJeXBv3N50ZDYBhwCtw6+zt9wJ6DYllSd5+idViKEkygABACAH0agdwaLEpF6+CGnLuz0If5WLr7QGNFYWbB7Es5qON1unxb552rhrNUrtx1sF5mk4U8DyWuuQF884FuRvUMOd0uekBL3oxBqvW5PHfyyD9u/aDqxSjdP789jprhNSOSu1/qm/Fiuuhkjz6ec+/3t6Y/uqnwKH3s+rr2/N51O+2f23zpCKe/zoXz80fpBAFRl1qfbLZbB5HF4EJlOqMTXqm+sQXjjQLkZrPowtuaHzjh0sNNKjdLN3ThYzxqd7B83nULydL4/x+djbrR7cbv6/84N5NDZpElHeuWh6MPhAc16DdPOLZFrs9eH0kOG5OH+cUH744uUsCbtvDsftQ85SSe45bDTlI1Ug4ssubUJOrXaUVui9MTmPS2Q86R6ZUJRsRnXLcTtkPlbGqbVFrw9Ow2rXZ+J4qzYm2nZjxOdJ0SYiU5E7GQk5CSZ8Mb2UgSnD3Y3mPTknAgfQegu1XfHBA2mQHjFHFAoerBvA6O12MlaFH+wYsfr283v9RVl9cxrS+RbUL9RgOT/s/rkGTaf6+gOIAAAAASUVORK5CYII=;" vertex="1" parent="lr77hA5LthJ5V9N4e_WC-3">
          <mxGeometry x="301" y="416" width="252.29" height="131" as="geometry" />
        </mxCell>
        <mxCell id="lr77hA5LthJ5V9N4e_WC-27" style="edgeStyle=orthogonalEdgeStyle;rounded=0;orthogonalLoop=1;jettySize=auto;html=1;strokeColor=#000000;" edge="1" parent="1" source="lr77hA5LthJ5V9N4e_WC-5" target="lr77hA5LthJ5V9N4e_WC-1">
          <mxGeometry relative="1" as="geometry" />
        </mxCell>
        <mxCell id="lr77hA5LthJ5V9N4e_WC-29" style="edgeStyle=orthogonalEdgeStyle;rounded=0;orthogonalLoop=1;jettySize=auto;html=1;" edge="1" parent="1" source="lr77hA5LthJ5V9N4e_WC-5">
          <mxGeometry relative="1" as="geometry">
            <mxPoint x="-633" y="387" as="targetPoint" />
          </mxGeometry>
        </mxCell>
        <mxCell id="lr77hA5LthJ5V9N4e_WC-5" value="&lt;font style=&quot;font-size: 21px;&quot;&gt;User&lt;/font&gt;" style="sketch=0;outlineConnect=0;fontColor=#232F3E;gradientColor=none;strokeColor=#232F3E;fillColor=#ffffff;dashed=0;verticalLabelPosition=bottom;verticalAlign=top;align=center;html=1;fontSize=12;fontStyle=0;aspect=fixed;shape=mxgraph.aws4.resourceIcon;resIcon=mxgraph.aws4.user;" vertex="1" parent="1">
          <mxGeometry x="-614" y="201" width="139" height="139" as="geometry" />
        </mxCell>
        <mxCell id="lr77hA5LthJ5V9N4e_WC-26" style="edgeStyle=orthogonalEdgeStyle;rounded=0;orthogonalLoop=1;jettySize=auto;html=1;strokeColor=#000000;" edge="1" parent="1" source="lr77hA5LthJ5V9N4e_WC-6" target="lr77hA5LthJ5V9N4e_WC-11">
          <mxGeometry relative="1" as="geometry" />
        </mxCell>
        <mxCell id="lr77hA5LthJ5V9N4e_WC-43" style="edgeStyle=orthogonalEdgeStyle;rounded=0;orthogonalLoop=1;jettySize=auto;html=1;strokeColor=#000000;" edge="1" parent="1" source="lr77hA5LthJ5V9N4e_WC-36" target="lr77hA5LthJ5V9N4e_WC-11">
          <mxGeometry relative="1" as="geometry" />
        </mxCell>
        <mxCell id="lr77hA5LthJ5V9N4e_WC-36" value="&lt;b&gt;Google &lt;/b&gt;Cloud Platform" style="shadow=0;fontSize=14;align=left;spacing=10;9E9E9E;verticalAlign=top;spacingTop=-4;fontStyle=0;spacingLeft=40;html=1;whiteSpace=wrap;fillColor=#f5f5f5;fontColor=#333333;strokeColor=#666666;" vertex="1" parent="1">
          <mxGeometry x="791" y="104" width="428" height="333" as="geometry" />
        </mxCell>
        <mxCell id="lr77hA5LthJ5V9N4e_WC-37" value="" style="shape=mxgraph.gcp2.google_cloud_platform;fillColor=#F6F6F6;strokeColor=none;shadow=0;gradientColor=none;" vertex="1" parent="lr77hA5LthJ5V9N4e_WC-36">
          <mxGeometry width="23" height="20" relative="1" as="geometry">
            <mxPoint x="20" y="10" as="offset" />
          </mxGeometry>
        </mxCell>
        <mxCell id="lr77hA5LthJ5V9N4e_WC-40" value="" style="strokeColor=#dddddd;shadow=1;strokeWidth=1;rounded=1;absoluteArcSize=1;arcSize=2;" vertex="1" parent="lr77hA5LthJ5V9N4e_WC-36">
          <mxGeometry x="115" y="143" width="203.32" height="76.36" as="geometry" />
        </mxCell>
        <mxCell id="lr77hA5LthJ5V9N4e_WC-41" value="Compute&#xa;Engine" style="editableCssRules=.*;html=1;fontColor=#999999;shape=image;verticalLabelPosition=middle;verticalAlign=middle;labelPosition=right;align=left;spacingLeft=20;part=1;points=[];imageAspect=0;image=data:image/svg+xml,PHN2ZyB4bWxucz0iaHR0cDovL3d3dy53My5vcmcvMjAwMC9zdmciIHhtbG5zOnY9Imh0dHBzOi8vdmVjdGEuaW8vbmFubyIgd2lkdGg9IjIwIiBoZWlnaHQ9IjIwIiB2aWV3Qm94PSIwIDAgMjAgMjAiPiYjeGE7CTxzdHlsZSB0eXBlPSJ0ZXh0L2NzcyI+JiN4YTsJLnN0MHtmaWxsOiM0Mjg1ZjQ7fSYjeGE7CS5zdDF7ZmlsbDojNjY5ZGY2O30mI3hhOwkuc3Qye2ZpbGw6I2FlY2JmYTt9JiN4YTsJPC9zdHlsZT4mI3hhOwk8cGF0aCBjbGFzcz0ic3QyIiBkPSJNNyA3aDZ2Nkg3eiIvPiYjeGE7CTxwYXRoIGNsYXNzPSJzdDEiIGQ9Ik05IDBoMnY0SDl6TTUgMGgydjRINXptOCAwaDJ2NGgtMnoiLz4mI3hhOwk8cGF0aCBjbGFzcz0ic3QwIiBkPSJNOSAxNmgydjRIOXptLTQgMGgydjRINXptOCAwaDJ2NGgtMnptMy01VjloNHYyem0wIDR2LTJoNHYyem0wLThWNWg0djJ6Ii8+JiN4YTsJPHBhdGggY2xhc3M9InN0MSIgZD0iTTAgMTFWOWg0djJ6bTAgNHYtMmg0djJ6bTAtOFY1aDR2MnoiLz4mI3hhOwk8cGF0aCBjbGFzcz0ic3QyIiBkPSJNMyAzdjE0aDE0VjN6bTEyIDEySDVWNWgxMHoiLz4mI3hhOwk8cGF0aCBjbGFzcz0ic3QxIiBkPSJNMTAgMTBsLTMgM2g2eiIvPiYjeGE7CTxwYXRoIGNsYXNzPSJzdDAiIGQ9Ik0xMyA3bC0zIDMgMyAzeiIvPiYjeGE7PC9zdmc+;" vertex="1" parent="lr77hA5LthJ5V9N4e_WC-40">
          <mxGeometry width="30" height="30" relative="1" as="geometry">
            <mxPoint x="15" y="15" as="offset" />
          </mxGeometry>
        </mxCell>
        <mxCell id="lr77hA5LthJ5V9N4e_WC-44" value="&lt;font style=&quot;font-size: 16px;&quot; color=&quot;#000000&quot;&gt;AI GPU&amp;nbsp;&lt;/font&gt;" style="text;html=1;align=center;verticalAlign=middle;resizable=0;points=[];autosize=1;strokeColor=none;fillColor=none;" vertex="1" parent="lr77hA5LthJ5V9N4e_WC-36">
          <mxGeometry x="178.65999999999997" y="229" width="77" height="31" as="geometry" />
        </mxCell>
      </root>
    </mxGraphModel>
  </diagram>
</mxfile>
